G04 #@! TF.GenerationSoftware,KiCad,Pcbnew,7.0.10*
G04 #@! TF.CreationDate,2024-02-13T11:50:05-05:00*
G04 #@! TF.ProjectId,prototype,70726f74-6f74-4797-9065-2e6b69636164,rev?*
G04 #@! TF.SameCoordinates,Original*
G04 #@! TF.FileFunction,Soldermask,Top*
G04 #@! TF.FilePolarity,Negative*
%FSLAX46Y46*%
G04 Gerber Fmt 4.6, Leading zero omitted, Abs format (unit mm)*
G04 Created by KiCad (PCBNEW 7.0.10) date 2024-02-13 11:50:05*
%MOMM*%
%LPD*%
G01*
G04 APERTURE LIST*
G04 Aperture macros list*
%AMRoundRect*
0 Rectangle with rounded corners*
0 $1 Rounding radius*
0 $2 $3 $4 $5 $6 $7 $8 $9 X,Y pos of 4 corners*
0 Add a 4 corners polygon primitive as box body*
4,1,4,$2,$3,$4,$5,$6,$7,$8,$9,$2,$3,0*
0 Add four circle primitives for the rounded corners*
1,1,$1+$1,$2,$3*
1,1,$1+$1,$4,$5*
1,1,$1+$1,$6,$7*
1,1,$1+$1,$8,$9*
0 Add four rect primitives between the rounded corners*
20,1,$1+$1,$2,$3,$4,$5,0*
20,1,$1+$1,$4,$5,$6,$7,0*
20,1,$1+$1,$6,$7,$8,$9,0*
20,1,$1+$1,$8,$9,$2,$3,0*%
G04 Aperture macros list end*
%ADD10R,1.800000X1.800000*%
%ADD11C,1.800000*%
%ADD12R,1.701800X2.173999*%
%ADD13R,1.000000X1.250000*%
%ADD14R,0.599999X1.000000*%
%ADD15RoundRect,0.250000X0.312500X0.625000X-0.312500X0.625000X-0.312500X-0.625000X0.312500X-0.625000X0*%
%ADD16RoundRect,0.250000X-0.625000X0.312500X-0.625000X-0.312500X0.625000X-0.312500X0.625000X0.312500X0*%
%ADD17RoundRect,0.102000X-0.819150X-1.500000X0.819150X-1.500000X0.819150X1.500000X-0.819150X1.500000X0*%
%ADD18R,2.500000X1.250000*%
%ADD19C,0.900000*%
%ADD20R,0.399999X0.850001*%
%ADD21RoundRect,0.250000X-0.312500X-0.625000X0.312500X-0.625000X0.312500X0.625000X-0.312500X0.625000X0*%
%ADD22R,1.117600X0.558800*%
%ADD23R,3.200000X3.200000*%
%ADD24RoundRect,0.050000X-0.050000X-0.387500X0.050000X-0.387500X0.050000X0.387500X-0.050000X0.387500X0*%
%ADD25RoundRect,0.050000X-0.387500X-0.050000X0.387500X-0.050000X0.387500X0.050000X-0.387500X0.050000X0*%
%ADD26R,1.524000X0.533400*%
%ADD27R,0.812800X0.406400*%
%ADD28R,0.406400X0.812800*%
%ADD29R,5.410200X5.410200*%
%ADD30R,0.711200X0.711200*%
%ADD31R,0.850001X0.399999*%
%ADD32RoundRect,0.102000X-0.725000X0.150000X-0.725000X-0.150000X0.725000X-0.150000X0.725000X0.150000X0*%
%ADD33RoundRect,0.102000X-1.250000X0.900000X-1.250000X-0.900000X1.250000X-0.900000X1.250000X0.900000X0*%
%ADD34C,1.500000*%
%ADD35O,1.800000X1.000000*%
%ADD36O,2.100000X1.000000*%
%ADD37RoundRect,0.075000X-0.500000X0.075000X-0.500000X-0.075000X0.500000X-0.075000X0.500000X0.075000X0*%
%ADD38RoundRect,0.150000X-0.425000X0.150000X-0.425000X-0.150000X0.425000X-0.150000X0.425000X0.150000X0*%
%ADD39C,0.650000*%
%ADD40C,1.750000*%
G04 APERTURE END LIST*
D10*
X88625000Y-30897500D03*
D11*
X88625000Y-33437500D03*
D12*
X27000000Y-80104900D03*
X27000000Y-83895100D03*
D13*
X70000000Y-65875000D03*
X70000000Y-58125000D03*
D14*
X84950001Y-45624999D03*
X84000000Y-45624999D03*
X83050002Y-45624999D03*
X83050002Y-48374999D03*
X84950001Y-48374999D03*
D15*
X30587500Y-41000000D03*
X27662500Y-41000000D03*
D16*
X81062500Y-48037500D03*
X81062500Y-50962500D03*
D13*
X23000000Y-65875000D03*
X23000000Y-58125000D03*
X35000000Y-75875000D03*
X35000000Y-68125000D03*
X55000000Y-75875000D03*
X55000000Y-68125000D03*
D15*
X85150000Y-30000000D03*
X82225000Y-30000000D03*
D13*
X87000000Y-75875000D03*
X87000000Y-68125000D03*
X55000000Y-65875000D03*
X55000000Y-58125000D03*
D17*
X24435000Y-91937500D03*
X24435000Y-91937500D03*
X26975000Y-91937500D03*
X29515000Y-91937500D03*
X32055000Y-91937500D03*
X34595000Y-91937500D03*
X37135000Y-91937500D03*
X39675000Y-91937500D03*
X42215000Y-91937500D03*
X44755000Y-91937500D03*
X47295000Y-91937500D03*
X49835000Y-91937500D03*
X52375000Y-91937500D03*
X54915000Y-91937500D03*
X57455000Y-91937500D03*
X59995000Y-91937500D03*
X62535000Y-91937500D03*
X65075000Y-91937500D03*
X67615000Y-91937500D03*
X70155000Y-91937500D03*
X72695000Y-91937500D03*
X75235000Y-91937500D03*
X77775000Y-91937500D03*
X80315000Y-91937500D03*
X82855000Y-91937500D03*
X85395000Y-91937500D03*
X85395000Y-91937500D03*
D13*
X55000000Y-78125000D03*
X55000000Y-85875000D03*
D18*
X24750000Y-43500000D03*
X24750000Y-41000000D03*
X24750000Y-38500000D03*
D19*
X22000000Y-44400000D03*
X22000000Y-37600000D03*
D12*
X59000000Y-73895100D03*
X59000000Y-70104900D03*
X79000000Y-73895100D03*
X79000000Y-70104900D03*
D13*
X87000000Y-65875000D03*
X87000000Y-58125000D03*
D20*
X32650001Y-32875001D03*
X32000000Y-32875001D03*
X31350001Y-32875001D03*
X31350001Y-35125002D03*
X32000000Y-35125002D03*
X32650001Y-35125002D03*
D21*
X69225000Y-37937500D03*
X72150000Y-37937500D03*
D22*
X82944900Y-52424999D03*
X82944900Y-54325001D03*
X85180100Y-53375000D03*
D16*
X64000000Y-24537500D03*
X64000000Y-27462500D03*
D12*
X59000000Y-80104900D03*
X59000000Y-83895100D03*
D13*
X45000000Y-75875000D03*
X45000000Y-68125000D03*
D12*
X27000000Y-73895100D03*
X27000000Y-70104900D03*
D13*
X23000000Y-78125000D03*
X23000000Y-85875000D03*
D12*
X39000000Y-73895100D03*
X39000000Y-70104900D03*
X69000000Y-73895100D03*
X69000000Y-70104900D03*
D16*
X71187500Y-32912500D03*
X71187500Y-35837500D03*
D14*
X84049999Y-37375001D03*
X85000000Y-37375001D03*
X85949998Y-37375001D03*
X85949998Y-34625001D03*
X85000000Y-34625001D03*
X84049999Y-34625001D03*
D12*
X74000000Y-80104900D03*
X74000000Y-83895100D03*
D23*
X52000000Y-34781250D03*
D24*
X49400000Y-31343750D03*
X49800000Y-31343750D03*
X50200000Y-31343750D03*
X50600000Y-31343750D03*
X51000000Y-31343750D03*
X51400000Y-31343750D03*
X51800000Y-31343750D03*
X52200000Y-31343750D03*
X52600000Y-31343750D03*
X53000000Y-31343750D03*
X53400000Y-31343750D03*
X53800000Y-31343750D03*
X54200000Y-31343750D03*
X54600000Y-31343750D03*
D25*
X55437500Y-32181250D03*
X55437500Y-32581250D03*
X55437500Y-32981250D03*
X55437500Y-33381250D03*
X55437500Y-33781250D03*
X55437500Y-34181250D03*
X55437500Y-34581250D03*
X55437500Y-34981250D03*
X55437500Y-35381250D03*
X55437500Y-35781250D03*
X55437500Y-36181250D03*
X55437500Y-36581250D03*
X55437500Y-36981250D03*
X55437500Y-37381250D03*
D24*
X54600000Y-38218750D03*
X54200000Y-38218750D03*
X53800000Y-38218750D03*
X53400000Y-38218750D03*
X53000000Y-38218750D03*
X52600000Y-38218750D03*
X52200000Y-38218750D03*
X51800000Y-38218750D03*
X51400000Y-38218750D03*
X51000000Y-38218750D03*
X50600000Y-38218750D03*
X50200000Y-38218750D03*
X49800000Y-38218750D03*
X49400000Y-38218750D03*
D25*
X48562500Y-37381250D03*
X48562500Y-36981250D03*
X48562500Y-36581250D03*
X48562500Y-36181250D03*
X48562500Y-35781250D03*
X48562500Y-35381250D03*
X48562500Y-34981250D03*
X48562500Y-34581250D03*
X48562500Y-34181250D03*
X48562500Y-33781250D03*
X48562500Y-33381250D03*
X48562500Y-32981250D03*
X48562500Y-32581250D03*
X48562500Y-32181250D03*
D26*
X47355100Y-23095000D03*
X47355100Y-24365000D03*
X47355100Y-25635000D03*
X47355100Y-26905000D03*
X54644900Y-26905000D03*
X54644900Y-25635000D03*
X54644900Y-24365000D03*
X54644900Y-23095000D03*
D13*
X87000000Y-78125000D03*
X87000000Y-85875000D03*
D12*
X44000000Y-64000000D03*
X44000000Y-60209800D03*
D27*
X67100002Y-21899501D03*
X67100002Y-22699601D03*
X67100002Y-23499701D03*
X67100002Y-24299801D03*
X67100002Y-25099901D03*
X67100002Y-25900001D03*
X67100002Y-26700101D03*
X67100002Y-27500201D03*
X67100002Y-28300301D03*
X67100002Y-29100401D03*
X67100002Y-29900501D03*
D28*
X68199400Y-30800001D03*
X68999500Y-30800001D03*
X69799600Y-30800001D03*
X70599700Y-30800001D03*
X71399800Y-30800001D03*
X72199900Y-30800001D03*
X73000000Y-30800001D03*
X73800100Y-30800001D03*
X74600200Y-30800001D03*
X75400300Y-30800001D03*
X76200400Y-30800001D03*
X77000500Y-30800001D03*
X77800600Y-30800001D03*
D27*
X78899998Y-29900501D03*
X78899998Y-29100401D03*
X78899998Y-28300301D03*
X78899998Y-27500201D03*
X78899998Y-26700101D03*
X78899998Y-25900001D03*
X78899998Y-25099901D03*
X78899998Y-24299801D03*
X78899998Y-23499701D03*
X78899998Y-22699601D03*
X78899998Y-21899501D03*
D28*
X77800600Y-21000000D03*
X77000500Y-21000000D03*
X76200400Y-21000000D03*
X75400300Y-21000000D03*
X74600200Y-21000000D03*
X73800100Y-21000000D03*
X73000000Y-21000000D03*
X72199900Y-21000000D03*
X71399800Y-21000000D03*
X70599700Y-21000000D03*
X69799600Y-21000000D03*
X68999500Y-21000000D03*
X68199400Y-21000000D03*
D29*
X73000000Y-25900001D03*
D30*
X78950788Y-30850806D03*
X78950788Y-20949200D03*
X67049212Y-30850806D03*
X67049212Y-20949200D03*
D31*
X82937501Y-49724999D03*
X82937501Y-50375000D03*
X82937501Y-51024999D03*
X85187502Y-51024999D03*
X85187502Y-50375000D03*
X85187502Y-49724999D03*
D16*
X88625000Y-36037500D03*
X88625000Y-38962500D03*
D12*
X59000000Y-63895100D03*
X59000000Y-60104900D03*
D13*
X65000000Y-75875000D03*
X65000000Y-68125000D03*
X70000000Y-78125000D03*
X70000000Y-85875000D03*
D15*
X33462500Y-31000000D03*
X30537500Y-31000000D03*
D12*
X74000000Y-63895100D03*
X74000000Y-60104900D03*
D15*
X76712500Y-37937500D03*
X73787500Y-37937500D03*
X33337500Y-36687500D03*
X30412500Y-36687500D03*
D32*
X42875000Y-28250000D03*
X42875000Y-28750000D03*
X42875000Y-29250000D03*
X42875000Y-29750000D03*
X42875000Y-30250000D03*
X42875000Y-30750000D03*
X42875000Y-31250000D03*
X42875000Y-31750000D03*
X42875000Y-32250000D03*
X42875000Y-32750000D03*
X42875000Y-33250000D03*
X42875000Y-33750000D03*
X42875000Y-34250000D03*
X42875000Y-34750000D03*
X42875000Y-35250000D03*
X42875000Y-35750000D03*
X42875000Y-36250000D03*
X42875000Y-36750000D03*
X42875000Y-37250000D03*
X42875000Y-37750000D03*
X42875000Y-38250000D03*
X42875000Y-38750000D03*
X42875000Y-39250000D03*
X42875000Y-39750000D03*
X42875000Y-40250000D03*
X42875000Y-40750000D03*
X42875000Y-41250000D03*
X42875000Y-41750000D03*
X42875000Y-42250000D03*
X42875000Y-42750000D03*
X42875000Y-43250000D03*
X42875000Y-43750000D03*
X42875000Y-44250000D03*
X42875000Y-44750000D03*
X42875000Y-45250000D03*
X42875000Y-45750000D03*
X42875000Y-46250000D03*
X42875000Y-46750000D03*
X42875000Y-47250000D03*
X42875000Y-47750000D03*
D33*
X40750000Y-26650000D03*
X40750000Y-49350000D03*
D12*
X27000000Y-63895100D03*
X27000000Y-60104900D03*
D34*
X47550000Y-41750000D03*
X52430000Y-41750000D03*
D12*
X49000000Y-73895100D03*
X49000000Y-70104900D03*
D16*
X67437500Y-32725000D03*
X67437500Y-35650000D03*
D15*
X45462500Y-22812500D03*
X42537500Y-22812500D03*
D12*
X83000000Y-73895100D03*
X83000000Y-70104900D03*
X83000000Y-80000000D03*
X83000000Y-83790200D03*
D21*
X30537500Y-22000000D03*
X33462500Y-22000000D03*
D12*
X83000000Y-63895100D03*
X83000000Y-60104900D03*
D13*
X40000000Y-78125000D03*
X40000000Y-85875000D03*
X23000000Y-75875000D03*
X23000000Y-68125000D03*
X40000000Y-65875000D03*
X40000000Y-58125000D03*
D16*
X61000000Y-25537500D03*
X61000000Y-28462500D03*
D12*
X44000000Y-80104900D03*
X44000000Y-83895100D03*
D35*
X22925000Y-30320000D03*
D36*
X27105000Y-30320000D03*
D35*
X22925000Y-21680000D03*
D36*
X27105000Y-21680000D03*
D37*
X27680000Y-24250000D03*
X27680000Y-25250000D03*
X27680000Y-26750000D03*
X27680000Y-27750000D03*
D38*
X27680000Y-28400000D03*
X27680000Y-29200000D03*
D37*
X27680000Y-27250000D03*
X27680000Y-26250000D03*
X27680000Y-25750000D03*
X27680000Y-24750000D03*
D38*
X27680000Y-23600000D03*
X27680000Y-22800000D03*
D39*
X26605000Y-28890000D03*
X26605000Y-23110000D03*
D13*
X75000000Y-75875000D03*
X75000000Y-68125000D03*
D40*
X87450000Y-43020000D03*
X87450000Y-41020000D03*
M02*
