M48
INCH,TZ
T1C0.0098
T2C0.0157
T3C0.0236
T4C0.0315
T5C0.0354
T6C0.0394
%
G90
G05
T1
X10310Y-13853
X10876Y-20620
X11220Y-11196
X11294Y-17224
X11442Y-25221
X11442Y-30315
X11486Y-16969
X11663Y-17741
X11677Y-17484
X11688Y-25221
X11688Y-30315
X11811Y-9449
X11811Y-10236
X11811Y-10630
X11811Y-34326
X11934Y-25221
X11934Y-30315
X12180Y-16166
X12180Y-21949
X12180Y-25221
X12180Y-30315
X12216Y-21025
X12303Y-34326
X12343Y-12943
X12426Y-25221
X12426Y-30315
X12549Y-18209
X12574Y-12402
X12574Y-17249
X12598Y-12943
X12672Y-25221
X12672Y-30315
X12795Y-34326
X12918Y-25221
X12918Y-30315
X13115Y-20399
X13164Y-25221
X13164Y-30315
X13287Y-34326
X13361Y-14444
X13410Y-25221
X13410Y-30315
X13656Y-25221
X13656Y-30315
X13791Y-34315
X14050Y-13066
X14518Y-18086
X14518Y-19833
X14518Y-20669
X14764Y-18086
X14764Y-19833
X14764Y-20669
X15010Y-18086
X15010Y-19833
X15010Y-20669
X15256Y-18086
X15256Y-19833
X15256Y-20669
X15281Y-17274
X15568Y-17250
X15699Y-34473
X15797Y-18529
X15945Y-34473
X16191Y-33735
X16191Y-33981
X16191Y-34227
X16191Y-34473
X16437Y-33735
X16683Y-33735
X16806Y-11024
X16929Y-33735
X17175Y-33735
X17349Y-12474
X17421Y-33735
X17446Y-13706
X17667Y-33735
X17913Y-33735
X18061Y-11393
X18110Y-12598
X18159Y-33489
X18159Y-33735
X18307Y-11959
X18504Y-12598
X18676Y-11024
X19291Y-18947
X20472Y-13693
X20817Y-15502
X20857Y-12005
X20965Y-14715
X21038Y-11715
X21063Y-15503
X21211Y-11959
X22416Y-12574
X22466Y-13629
X22835Y-12598
X22835Y-12992
X22925Y-13452
X24016Y-21998
X24434Y-19857
X24498Y-10285
X24596Y-10036
X24926Y-11457
X25197Y-11024
X25591Y-19144
X25787Y-9252
X25861Y-18159
X25984Y-10630
X26083Y-17963
X26280Y-18627
X26476Y-20719
X26550Y-12884
X26649Y-13976
X26673Y-18627
X26895Y-18898
X27239Y-12475
X27559Y-18652
X27707Y-14149
X27781Y-21063
X27953Y-12918
X27963Y-21393
X28666Y-12918
X28740Y-11491
X28740Y-11737
X29134Y-19144
X29355Y-18307
X29626Y-18282
X29823Y-18652
X29995Y-12032
X30020Y-20719
X30143Y-9769
X30192Y-10089
X30217Y-18676
X30315Y-12205
X30438Y-18898
X30881Y-25000
X31053Y-11762
X31078Y-12156
X31275Y-13780
X31865Y-25000
X32372Y-11811
X33465Y-13632
X33612Y-22121
X34227Y-8907
T2
X10630Y-25197
X10630Y-29134
X10630Y-31496
X15354Y-29134
X17323Y-25197
X17323Y-31496
X19291Y-22047
X19291Y-29134
X23228Y-25197
X23228Y-29134
X23228Y-31496
X27165Y-29134
X29134Y-25197
X29134Y-31496
X31102Y-29134
X32677Y-25197
X32677Y-29134
X32677Y-31496
X34078Y-19684
T4
X18720Y-16437
X20642Y-16437
T5
X34892Y-12164
X34892Y-13164
T6
X34429Y-16150
X34429Y-16937
T3
G00X9183Y-8535
M15
G01X8868Y-8535
M16
G05
G00X9183Y-11937
M15
G01X8868Y-11937
M16
G05
G00X10888Y-8535
M15
G01X10455Y-8535
M16
G05
G00X10888Y-11937
M15
G01X10455Y-11937
M16
G05
T6
G00X9620Y-35999
M15
G01X9620Y-36393
M16
G05
G00X9620Y-35999
M15
G01X9620Y-36393
M16
G05
G00X33620Y-35999
M15
G01X33620Y-36393
M16
G05
G00X33620Y-35999
M15
G01X33620Y-36393
M16
G05
M30
