G04 #@! TF.GenerationSoftware,KiCad,Pcbnew,7.0.10*
G04 #@! TF.CreationDate,2024-02-13T11:50:05-05:00*
G04 #@! TF.ProjectId,prototype,70726f74-6f74-4797-9065-2e6b69636164,rev?*
G04 #@! TF.SameCoordinates,Original*
G04 #@! TF.FileFunction,Legend,Top*
G04 #@! TF.FilePolarity,Positive*
%FSLAX46Y46*%
G04 Gerber Fmt 4.6, Leading zero omitted, Abs format (unit mm)*
G04 Created by KiCad (PCBNEW 7.0.10) date 2024-02-13 11:50:05*
%MOMM*%
%LPD*%
G01*
G04 APERTURE LIST*
%ADD10C,0.150000*%
%ADD11C,0.152400*%
%ADD12C,0.120000*%
%ADD13C,0.200000*%
%ADD14C,0.127000*%
G04 APERTURE END LIST*
D10*
X26545180Y-80785714D02*
X27545180Y-80785714D01*
X27545180Y-80785714D02*
X27545180Y-81023809D01*
X27545180Y-81023809D02*
X27497561Y-81166666D01*
X27497561Y-81166666D02*
X27402323Y-81261904D01*
X27402323Y-81261904D02*
X27307085Y-81309523D01*
X27307085Y-81309523D02*
X27116609Y-81357142D01*
X27116609Y-81357142D02*
X26973752Y-81357142D01*
X26973752Y-81357142D02*
X26783276Y-81309523D01*
X26783276Y-81309523D02*
X26688038Y-81261904D01*
X26688038Y-81261904D02*
X26592800Y-81166666D01*
X26592800Y-81166666D02*
X26545180Y-81023809D01*
X26545180Y-81023809D02*
X26545180Y-80785714D01*
X26545180Y-82309523D02*
X26545180Y-81738095D01*
X26545180Y-82023809D02*
X27545180Y-82023809D01*
X27545180Y-82023809D02*
X27402323Y-81928571D01*
X27402323Y-81928571D02*
X27307085Y-81833333D01*
X27307085Y-81833333D02*
X27259466Y-81738095D01*
X27545180Y-83166666D02*
X27545180Y-82976190D01*
X27545180Y-82976190D02*
X27497561Y-82880952D01*
X27497561Y-82880952D02*
X27449942Y-82833333D01*
X27449942Y-82833333D02*
X27307085Y-82738095D01*
X27307085Y-82738095D02*
X27116609Y-82690476D01*
X27116609Y-82690476D02*
X26735657Y-82690476D01*
X26735657Y-82690476D02*
X26640419Y-82738095D01*
X26640419Y-82738095D02*
X26592800Y-82785714D01*
X26592800Y-82785714D02*
X26545180Y-82880952D01*
X26545180Y-82880952D02*
X26545180Y-83071428D01*
X26545180Y-83071428D02*
X26592800Y-83166666D01*
X26592800Y-83166666D02*
X26640419Y-83214285D01*
X26640419Y-83214285D02*
X26735657Y-83261904D01*
X26735657Y-83261904D02*
X26973752Y-83261904D01*
X26973752Y-83261904D02*
X27068990Y-83214285D01*
X27068990Y-83214285D02*
X27116609Y-83166666D01*
X27116609Y-83166666D02*
X27164228Y-83071428D01*
X27164228Y-83071428D02*
X27164228Y-82880952D01*
X27164228Y-82880952D02*
X27116609Y-82785714D01*
X27116609Y-82785714D02*
X27068990Y-82738095D01*
X27068990Y-82738095D02*
X26973752Y-82690476D01*
X70407200Y-63333332D02*
X70454819Y-63190475D01*
X70454819Y-63190475D02*
X70454819Y-62952380D01*
X70454819Y-62952380D02*
X70407200Y-62857142D01*
X70407200Y-62857142D02*
X70359580Y-62809523D01*
X70359580Y-62809523D02*
X70264342Y-62761904D01*
X70264342Y-62761904D02*
X70169104Y-62761904D01*
X70169104Y-62761904D02*
X70073866Y-62809523D01*
X70073866Y-62809523D02*
X70026247Y-62857142D01*
X70026247Y-62857142D02*
X69978628Y-62952380D01*
X69978628Y-62952380D02*
X69931009Y-63142856D01*
X69931009Y-63142856D02*
X69883390Y-63238094D01*
X69883390Y-63238094D02*
X69835771Y-63285713D01*
X69835771Y-63285713D02*
X69740533Y-63333332D01*
X69740533Y-63333332D02*
X69645295Y-63333332D01*
X69645295Y-63333332D02*
X69550057Y-63285713D01*
X69550057Y-63285713D02*
X69502438Y-63238094D01*
X69502438Y-63238094D02*
X69454819Y-63142856D01*
X69454819Y-63142856D02*
X69454819Y-62904761D01*
X69454819Y-62904761D02*
X69502438Y-62761904D01*
X69454819Y-62428570D02*
X70454819Y-62190475D01*
X70454819Y-62190475D02*
X69740533Y-61999999D01*
X69740533Y-61999999D02*
X70454819Y-61809523D01*
X70454819Y-61809523D02*
X69454819Y-61571428D01*
X69454819Y-61285713D02*
X69454819Y-60619047D01*
X69454819Y-60619047D02*
X70454819Y-61047618D01*
X84545180Y-46238095D02*
X83735657Y-46238095D01*
X83735657Y-46238095D02*
X83640419Y-46285714D01*
X83640419Y-46285714D02*
X83592800Y-46333333D01*
X83592800Y-46333333D02*
X83545180Y-46428571D01*
X83545180Y-46428571D02*
X83545180Y-46619047D01*
X83545180Y-46619047D02*
X83592800Y-46714285D01*
X83592800Y-46714285D02*
X83640419Y-46761904D01*
X83640419Y-46761904D02*
X83735657Y-46809523D01*
X83735657Y-46809523D02*
X84545180Y-46809523D01*
X84545180Y-47190476D02*
X84545180Y-47809523D01*
X84545180Y-47809523D02*
X84164228Y-47476190D01*
X84164228Y-47476190D02*
X84164228Y-47619047D01*
X84164228Y-47619047D02*
X84116609Y-47714285D01*
X84116609Y-47714285D02*
X84068990Y-47761904D01*
X84068990Y-47761904D02*
X83973752Y-47809523D01*
X83973752Y-47809523D02*
X83735657Y-47809523D01*
X83735657Y-47809523D02*
X83640419Y-47761904D01*
X83640419Y-47761904D02*
X83592800Y-47714285D01*
X83592800Y-47714285D02*
X83545180Y-47619047D01*
X83545180Y-47619047D02*
X83545180Y-47333333D01*
X83545180Y-47333333D02*
X83592800Y-47238095D01*
X83592800Y-47238095D02*
X83640419Y-47190476D01*
X86643980Y-40429923D02*
X87643980Y-40429923D01*
X87643980Y-40429923D02*
X87643980Y-40668018D01*
X87643980Y-40668018D02*
X87596361Y-40810875D01*
X87596361Y-40810875D02*
X87501123Y-40906113D01*
X87501123Y-40906113D02*
X87405885Y-40953732D01*
X87405885Y-40953732D02*
X87215409Y-41001351D01*
X87215409Y-41001351D02*
X87072552Y-41001351D01*
X87072552Y-41001351D02*
X86882076Y-40953732D01*
X86882076Y-40953732D02*
X86786838Y-40906113D01*
X86786838Y-40906113D02*
X86691600Y-40810875D01*
X86691600Y-40810875D02*
X86643980Y-40668018D01*
X86643980Y-40668018D02*
X86643980Y-40429923D01*
X86691600Y-41810875D02*
X86643980Y-41715637D01*
X86643980Y-41715637D02*
X86643980Y-41525161D01*
X86643980Y-41525161D02*
X86691600Y-41429923D01*
X86691600Y-41429923D02*
X86786838Y-41382304D01*
X86786838Y-41382304D02*
X87167790Y-41382304D01*
X87167790Y-41382304D02*
X87263028Y-41429923D01*
X87263028Y-41429923D02*
X87310647Y-41525161D01*
X87310647Y-41525161D02*
X87310647Y-41715637D01*
X87310647Y-41715637D02*
X87263028Y-41810875D01*
X87263028Y-41810875D02*
X87167790Y-41858494D01*
X87167790Y-41858494D02*
X87072552Y-41858494D01*
X87072552Y-41858494D02*
X86977314Y-41382304D01*
X86691600Y-42239447D02*
X86643980Y-42334685D01*
X86643980Y-42334685D02*
X86643980Y-42525161D01*
X86643980Y-42525161D02*
X86691600Y-42620399D01*
X86691600Y-42620399D02*
X86786838Y-42668018D01*
X86786838Y-42668018D02*
X86834457Y-42668018D01*
X86834457Y-42668018D02*
X86929695Y-42620399D01*
X86929695Y-42620399D02*
X86977314Y-42525161D01*
X86977314Y-42525161D02*
X86977314Y-42382304D01*
X86977314Y-42382304D02*
X87024933Y-42287066D01*
X87024933Y-42287066D02*
X87120171Y-42239447D01*
X87120171Y-42239447D02*
X87167790Y-42239447D01*
X87167790Y-42239447D02*
X87263028Y-42287066D01*
X87263028Y-42287066D02*
X87310647Y-42382304D01*
X87310647Y-42382304D02*
X87310647Y-42525161D01*
X87310647Y-42525161D02*
X87263028Y-42620399D01*
X86643980Y-43096590D02*
X87310647Y-43096590D01*
X87643980Y-43096590D02*
X87596361Y-43048971D01*
X87596361Y-43048971D02*
X87548742Y-43096590D01*
X87548742Y-43096590D02*
X87596361Y-43144209D01*
X87596361Y-43144209D02*
X87643980Y-43096590D01*
X87643980Y-43096590D02*
X87548742Y-43096590D01*
X87310647Y-44001351D02*
X86501123Y-44001351D01*
X86501123Y-44001351D02*
X86405885Y-43953732D01*
X86405885Y-43953732D02*
X86358266Y-43906113D01*
X86358266Y-43906113D02*
X86310647Y-43810875D01*
X86310647Y-43810875D02*
X86310647Y-43668018D01*
X86310647Y-43668018D02*
X86358266Y-43572780D01*
X86691600Y-44001351D02*
X86643980Y-43906113D01*
X86643980Y-43906113D02*
X86643980Y-43715637D01*
X86643980Y-43715637D02*
X86691600Y-43620399D01*
X86691600Y-43620399D02*
X86739219Y-43572780D01*
X86739219Y-43572780D02*
X86834457Y-43525161D01*
X86834457Y-43525161D02*
X87120171Y-43525161D01*
X87120171Y-43525161D02*
X87215409Y-43572780D01*
X87215409Y-43572780D02*
X87263028Y-43620399D01*
X87263028Y-43620399D02*
X87310647Y-43715637D01*
X87310647Y-43715637D02*
X87310647Y-43906113D01*
X87310647Y-43906113D02*
X87263028Y-44001351D01*
X87310647Y-44477542D02*
X86643980Y-44477542D01*
X87215409Y-44477542D02*
X87263028Y-44525161D01*
X87263028Y-44525161D02*
X87310647Y-44620399D01*
X87310647Y-44620399D02*
X87310647Y-44763256D01*
X87310647Y-44763256D02*
X87263028Y-44858494D01*
X87263028Y-44858494D02*
X87167790Y-44906113D01*
X87167790Y-44906113D02*
X86643980Y-44906113D01*
X86643980Y-45810875D02*
X87167790Y-45810875D01*
X87167790Y-45810875D02*
X87263028Y-45763256D01*
X87263028Y-45763256D02*
X87310647Y-45668018D01*
X87310647Y-45668018D02*
X87310647Y-45477542D01*
X87310647Y-45477542D02*
X87263028Y-45382304D01*
X86691600Y-45810875D02*
X86643980Y-45715637D01*
X86643980Y-45715637D02*
X86643980Y-45477542D01*
X86643980Y-45477542D02*
X86691600Y-45382304D01*
X86691600Y-45382304D02*
X86786838Y-45334685D01*
X86786838Y-45334685D02*
X86882076Y-45334685D01*
X86882076Y-45334685D02*
X86977314Y-45382304D01*
X86977314Y-45382304D02*
X87024933Y-45477542D01*
X87024933Y-45477542D02*
X87024933Y-45715637D01*
X87024933Y-45715637D02*
X87072552Y-45810875D01*
X87310647Y-46144209D02*
X87310647Y-46525161D01*
X87643980Y-46287066D02*
X86786838Y-46287066D01*
X86786838Y-46287066D02*
X86691600Y-46334685D01*
X86691600Y-46334685D02*
X86643980Y-46429923D01*
X86643980Y-46429923D02*
X86643980Y-46525161D01*
X86643980Y-47001352D02*
X86691600Y-46906114D01*
X86691600Y-46906114D02*
X86739219Y-46858495D01*
X86739219Y-46858495D02*
X86834457Y-46810876D01*
X86834457Y-46810876D02*
X87120171Y-46810876D01*
X87120171Y-46810876D02*
X87215409Y-46858495D01*
X87215409Y-46858495D02*
X87263028Y-46906114D01*
X87263028Y-46906114D02*
X87310647Y-47001352D01*
X87310647Y-47001352D02*
X87310647Y-47144209D01*
X87310647Y-47144209D02*
X87263028Y-47239447D01*
X87263028Y-47239447D02*
X87215409Y-47287066D01*
X87215409Y-47287066D02*
X87120171Y-47334685D01*
X87120171Y-47334685D02*
X86834457Y-47334685D01*
X86834457Y-47334685D02*
X86739219Y-47287066D01*
X86739219Y-47287066D02*
X86691600Y-47239447D01*
X86691600Y-47239447D02*
X86643980Y-47144209D01*
X86643980Y-47144209D02*
X86643980Y-47001352D01*
X86643980Y-47763257D02*
X87310647Y-47763257D01*
X87120171Y-47763257D02*
X87215409Y-47810876D01*
X87215409Y-47810876D02*
X87263028Y-47858495D01*
X87263028Y-47858495D02*
X87310647Y-47953733D01*
X87310647Y-47953733D02*
X87310647Y-48048971D01*
X87643980Y-48287067D02*
X87643980Y-48906114D01*
X87643980Y-48906114D02*
X87263028Y-48572781D01*
X87263028Y-48572781D02*
X87263028Y-48715638D01*
X87263028Y-48715638D02*
X87215409Y-48810876D01*
X87215409Y-48810876D02*
X87167790Y-48858495D01*
X87167790Y-48858495D02*
X87072552Y-48906114D01*
X87072552Y-48906114D02*
X86834457Y-48906114D01*
X86834457Y-48906114D02*
X86739219Y-48858495D01*
X86739219Y-48858495D02*
X86691600Y-48810876D01*
X86691600Y-48810876D02*
X86643980Y-48715638D01*
X86643980Y-48715638D02*
X86643980Y-48429924D01*
X86643980Y-48429924D02*
X86691600Y-48334686D01*
X86691600Y-48334686D02*
X86739219Y-48287067D01*
X87548742Y-49287067D02*
X87596361Y-49334686D01*
X87596361Y-49334686D02*
X87643980Y-49429924D01*
X87643980Y-49429924D02*
X87643980Y-49668019D01*
X87643980Y-49668019D02*
X87596361Y-49763257D01*
X87596361Y-49763257D02*
X87548742Y-49810876D01*
X87548742Y-49810876D02*
X87453504Y-49858495D01*
X87453504Y-49858495D02*
X87358266Y-49858495D01*
X87358266Y-49858495D02*
X87215409Y-49810876D01*
X87215409Y-49810876D02*
X86643980Y-49239448D01*
X86643980Y-49239448D02*
X86643980Y-49858495D01*
X28958333Y-43274819D02*
X28625000Y-42798628D01*
X28386905Y-43274819D02*
X28386905Y-42274819D01*
X28386905Y-42274819D02*
X28767857Y-42274819D01*
X28767857Y-42274819D02*
X28863095Y-42322438D01*
X28863095Y-42322438D02*
X28910714Y-42370057D01*
X28910714Y-42370057D02*
X28958333Y-42465295D01*
X28958333Y-42465295D02*
X28958333Y-42608152D01*
X28958333Y-42608152D02*
X28910714Y-42703390D01*
X28910714Y-42703390D02*
X28863095Y-42751009D01*
X28863095Y-42751009D02*
X28767857Y-42798628D01*
X28767857Y-42798628D02*
X28386905Y-42798628D01*
X29815476Y-42274819D02*
X29625000Y-42274819D01*
X29625000Y-42274819D02*
X29529762Y-42322438D01*
X29529762Y-42322438D02*
X29482143Y-42370057D01*
X29482143Y-42370057D02*
X29386905Y-42512914D01*
X29386905Y-42512914D02*
X29339286Y-42703390D01*
X29339286Y-42703390D02*
X29339286Y-43084342D01*
X29339286Y-43084342D02*
X29386905Y-43179580D01*
X29386905Y-43179580D02*
X29434524Y-43227200D01*
X29434524Y-43227200D02*
X29529762Y-43274819D01*
X29529762Y-43274819D02*
X29720238Y-43274819D01*
X29720238Y-43274819D02*
X29815476Y-43227200D01*
X29815476Y-43227200D02*
X29863095Y-43179580D01*
X29863095Y-43179580D02*
X29910714Y-43084342D01*
X29910714Y-43084342D02*
X29910714Y-42846247D01*
X29910714Y-42846247D02*
X29863095Y-42751009D01*
X29863095Y-42751009D02*
X29815476Y-42703390D01*
X29815476Y-42703390D02*
X29720238Y-42655771D01*
X29720238Y-42655771D02*
X29529762Y-42655771D01*
X29529762Y-42655771D02*
X29434524Y-42703390D01*
X29434524Y-42703390D02*
X29386905Y-42751009D01*
X29386905Y-42751009D02*
X29339286Y-42846247D01*
X83337319Y-50142857D02*
X82861128Y-50476190D01*
X83337319Y-50714285D02*
X82337319Y-50714285D01*
X82337319Y-50714285D02*
X82337319Y-50333333D01*
X82337319Y-50333333D02*
X82384938Y-50238095D01*
X82384938Y-50238095D02*
X82432557Y-50190476D01*
X82432557Y-50190476D02*
X82527795Y-50142857D01*
X82527795Y-50142857D02*
X82670652Y-50142857D01*
X82670652Y-50142857D02*
X82765890Y-50190476D01*
X82765890Y-50190476D02*
X82813509Y-50238095D01*
X82813509Y-50238095D02*
X82861128Y-50333333D01*
X82861128Y-50333333D02*
X82861128Y-50714285D01*
X83337319Y-49190476D02*
X83337319Y-49761904D01*
X83337319Y-49476190D02*
X82337319Y-49476190D01*
X82337319Y-49476190D02*
X82480176Y-49571428D01*
X82480176Y-49571428D02*
X82575414Y-49666666D01*
X82575414Y-49666666D02*
X82623033Y-49761904D01*
X82337319Y-48857142D02*
X82337319Y-48190476D01*
X82337319Y-48190476D02*
X83337319Y-48619047D01*
X23407200Y-63333332D02*
X23454819Y-63190475D01*
X23454819Y-63190475D02*
X23454819Y-62952380D01*
X23454819Y-62952380D02*
X23407200Y-62857142D01*
X23407200Y-62857142D02*
X23359580Y-62809523D01*
X23359580Y-62809523D02*
X23264342Y-62761904D01*
X23264342Y-62761904D02*
X23169104Y-62761904D01*
X23169104Y-62761904D02*
X23073866Y-62809523D01*
X23073866Y-62809523D02*
X23026247Y-62857142D01*
X23026247Y-62857142D02*
X22978628Y-62952380D01*
X22978628Y-62952380D02*
X22931009Y-63142856D01*
X22931009Y-63142856D02*
X22883390Y-63238094D01*
X22883390Y-63238094D02*
X22835771Y-63285713D01*
X22835771Y-63285713D02*
X22740533Y-63333332D01*
X22740533Y-63333332D02*
X22645295Y-63333332D01*
X22645295Y-63333332D02*
X22550057Y-63285713D01*
X22550057Y-63285713D02*
X22502438Y-63238094D01*
X22502438Y-63238094D02*
X22454819Y-63142856D01*
X22454819Y-63142856D02*
X22454819Y-62904761D01*
X22454819Y-62904761D02*
X22502438Y-62761904D01*
X22454819Y-62428570D02*
X23454819Y-62190475D01*
X23454819Y-62190475D02*
X22740533Y-61999999D01*
X22740533Y-61999999D02*
X23454819Y-61809523D01*
X23454819Y-61809523D02*
X22454819Y-61571428D01*
X22788152Y-60761904D02*
X23454819Y-60761904D01*
X22407200Y-60999999D02*
X23121485Y-61238094D01*
X23121485Y-61238094D02*
X23121485Y-60619047D01*
X35407200Y-73809523D02*
X35454819Y-73666666D01*
X35454819Y-73666666D02*
X35454819Y-73428571D01*
X35454819Y-73428571D02*
X35407200Y-73333333D01*
X35407200Y-73333333D02*
X35359580Y-73285714D01*
X35359580Y-73285714D02*
X35264342Y-73238095D01*
X35264342Y-73238095D02*
X35169104Y-73238095D01*
X35169104Y-73238095D02*
X35073866Y-73285714D01*
X35073866Y-73285714D02*
X35026247Y-73333333D01*
X35026247Y-73333333D02*
X34978628Y-73428571D01*
X34978628Y-73428571D02*
X34931009Y-73619047D01*
X34931009Y-73619047D02*
X34883390Y-73714285D01*
X34883390Y-73714285D02*
X34835771Y-73761904D01*
X34835771Y-73761904D02*
X34740533Y-73809523D01*
X34740533Y-73809523D02*
X34645295Y-73809523D01*
X34645295Y-73809523D02*
X34550057Y-73761904D01*
X34550057Y-73761904D02*
X34502438Y-73714285D01*
X34502438Y-73714285D02*
X34454819Y-73619047D01*
X34454819Y-73619047D02*
X34454819Y-73380952D01*
X34454819Y-73380952D02*
X34502438Y-73238095D01*
X34454819Y-72904761D02*
X35454819Y-72666666D01*
X35454819Y-72666666D02*
X34740533Y-72476190D01*
X34740533Y-72476190D02*
X35454819Y-72285714D01*
X35454819Y-72285714D02*
X34454819Y-72047619D01*
X35454819Y-71142857D02*
X35454819Y-71714285D01*
X35454819Y-71428571D02*
X34454819Y-71428571D01*
X34454819Y-71428571D02*
X34597676Y-71523809D01*
X34597676Y-71523809D02*
X34692914Y-71619047D01*
X34692914Y-71619047D02*
X34740533Y-71714285D01*
X34454819Y-70523809D02*
X34454819Y-70428571D01*
X34454819Y-70428571D02*
X34502438Y-70333333D01*
X34502438Y-70333333D02*
X34550057Y-70285714D01*
X34550057Y-70285714D02*
X34645295Y-70238095D01*
X34645295Y-70238095D02*
X34835771Y-70190476D01*
X34835771Y-70190476D02*
X35073866Y-70190476D01*
X35073866Y-70190476D02*
X35264342Y-70238095D01*
X35264342Y-70238095D02*
X35359580Y-70285714D01*
X35359580Y-70285714D02*
X35407200Y-70333333D01*
X35407200Y-70333333D02*
X35454819Y-70428571D01*
X35454819Y-70428571D02*
X35454819Y-70523809D01*
X35454819Y-70523809D02*
X35407200Y-70619047D01*
X35407200Y-70619047D02*
X35359580Y-70666666D01*
X35359580Y-70666666D02*
X35264342Y-70714285D01*
X35264342Y-70714285D02*
X35073866Y-70761904D01*
X35073866Y-70761904D02*
X34835771Y-70761904D01*
X34835771Y-70761904D02*
X34645295Y-70714285D01*
X34645295Y-70714285D02*
X34550057Y-70666666D01*
X34550057Y-70666666D02*
X34502438Y-70619047D01*
X34502438Y-70619047D02*
X34454819Y-70523809D01*
X55407200Y-73809523D02*
X55454819Y-73666666D01*
X55454819Y-73666666D02*
X55454819Y-73428571D01*
X55454819Y-73428571D02*
X55407200Y-73333333D01*
X55407200Y-73333333D02*
X55359580Y-73285714D01*
X55359580Y-73285714D02*
X55264342Y-73238095D01*
X55264342Y-73238095D02*
X55169104Y-73238095D01*
X55169104Y-73238095D02*
X55073866Y-73285714D01*
X55073866Y-73285714D02*
X55026247Y-73333333D01*
X55026247Y-73333333D02*
X54978628Y-73428571D01*
X54978628Y-73428571D02*
X54931009Y-73619047D01*
X54931009Y-73619047D02*
X54883390Y-73714285D01*
X54883390Y-73714285D02*
X54835771Y-73761904D01*
X54835771Y-73761904D02*
X54740533Y-73809523D01*
X54740533Y-73809523D02*
X54645295Y-73809523D01*
X54645295Y-73809523D02*
X54550057Y-73761904D01*
X54550057Y-73761904D02*
X54502438Y-73714285D01*
X54502438Y-73714285D02*
X54454819Y-73619047D01*
X54454819Y-73619047D02*
X54454819Y-73380952D01*
X54454819Y-73380952D02*
X54502438Y-73238095D01*
X54454819Y-72904761D02*
X55454819Y-72666666D01*
X55454819Y-72666666D02*
X54740533Y-72476190D01*
X54740533Y-72476190D02*
X55454819Y-72285714D01*
X55454819Y-72285714D02*
X54454819Y-72047619D01*
X55454819Y-71142857D02*
X55454819Y-71714285D01*
X55454819Y-71428571D02*
X54454819Y-71428571D01*
X54454819Y-71428571D02*
X54597676Y-71523809D01*
X54597676Y-71523809D02*
X54692914Y-71619047D01*
X54692914Y-71619047D02*
X54740533Y-71714285D01*
X54550057Y-70761904D02*
X54502438Y-70714285D01*
X54502438Y-70714285D02*
X54454819Y-70619047D01*
X54454819Y-70619047D02*
X54454819Y-70380952D01*
X54454819Y-70380952D02*
X54502438Y-70285714D01*
X54502438Y-70285714D02*
X54550057Y-70238095D01*
X54550057Y-70238095D02*
X54645295Y-70190476D01*
X54645295Y-70190476D02*
X54740533Y-70190476D01*
X54740533Y-70190476D02*
X54883390Y-70238095D01*
X54883390Y-70238095D02*
X55454819Y-70809523D01*
X55454819Y-70809523D02*
X55454819Y-70190476D01*
X83520833Y-32274819D02*
X83187500Y-31798628D01*
X82949405Y-32274819D02*
X82949405Y-31274819D01*
X82949405Y-31274819D02*
X83330357Y-31274819D01*
X83330357Y-31274819D02*
X83425595Y-31322438D01*
X83425595Y-31322438D02*
X83473214Y-31370057D01*
X83473214Y-31370057D02*
X83520833Y-31465295D01*
X83520833Y-31465295D02*
X83520833Y-31608152D01*
X83520833Y-31608152D02*
X83473214Y-31703390D01*
X83473214Y-31703390D02*
X83425595Y-31751009D01*
X83425595Y-31751009D02*
X83330357Y-31798628D01*
X83330357Y-31798628D02*
X82949405Y-31798628D01*
X84473214Y-32274819D02*
X83901786Y-32274819D01*
X84187500Y-32274819D02*
X84187500Y-31274819D01*
X84187500Y-31274819D02*
X84092262Y-31417676D01*
X84092262Y-31417676D02*
X83997024Y-31512914D01*
X83997024Y-31512914D02*
X83901786Y-31560533D01*
X87407200Y-73809523D02*
X87454819Y-73666666D01*
X87454819Y-73666666D02*
X87454819Y-73428571D01*
X87454819Y-73428571D02*
X87407200Y-73333333D01*
X87407200Y-73333333D02*
X87359580Y-73285714D01*
X87359580Y-73285714D02*
X87264342Y-73238095D01*
X87264342Y-73238095D02*
X87169104Y-73238095D01*
X87169104Y-73238095D02*
X87073866Y-73285714D01*
X87073866Y-73285714D02*
X87026247Y-73333333D01*
X87026247Y-73333333D02*
X86978628Y-73428571D01*
X86978628Y-73428571D02*
X86931009Y-73619047D01*
X86931009Y-73619047D02*
X86883390Y-73714285D01*
X86883390Y-73714285D02*
X86835771Y-73761904D01*
X86835771Y-73761904D02*
X86740533Y-73809523D01*
X86740533Y-73809523D02*
X86645295Y-73809523D01*
X86645295Y-73809523D02*
X86550057Y-73761904D01*
X86550057Y-73761904D02*
X86502438Y-73714285D01*
X86502438Y-73714285D02*
X86454819Y-73619047D01*
X86454819Y-73619047D02*
X86454819Y-73380952D01*
X86454819Y-73380952D02*
X86502438Y-73238095D01*
X86454819Y-72904761D02*
X87454819Y-72666666D01*
X87454819Y-72666666D02*
X86740533Y-72476190D01*
X86740533Y-72476190D02*
X87454819Y-72285714D01*
X87454819Y-72285714D02*
X86454819Y-72047619D01*
X87454819Y-71142857D02*
X87454819Y-71714285D01*
X87454819Y-71428571D02*
X86454819Y-71428571D01*
X86454819Y-71428571D02*
X86597676Y-71523809D01*
X86597676Y-71523809D02*
X86692914Y-71619047D01*
X86692914Y-71619047D02*
X86740533Y-71714285D01*
X86454819Y-70238095D02*
X86454819Y-70714285D01*
X86454819Y-70714285D02*
X86931009Y-70761904D01*
X86931009Y-70761904D02*
X86883390Y-70714285D01*
X86883390Y-70714285D02*
X86835771Y-70619047D01*
X86835771Y-70619047D02*
X86835771Y-70380952D01*
X86835771Y-70380952D02*
X86883390Y-70285714D01*
X86883390Y-70285714D02*
X86931009Y-70238095D01*
X86931009Y-70238095D02*
X87026247Y-70190476D01*
X87026247Y-70190476D02*
X87264342Y-70190476D01*
X87264342Y-70190476D02*
X87359580Y-70238095D01*
X87359580Y-70238095D02*
X87407200Y-70285714D01*
X87407200Y-70285714D02*
X87454819Y-70380952D01*
X87454819Y-70380952D02*
X87454819Y-70619047D01*
X87454819Y-70619047D02*
X87407200Y-70714285D01*
X87407200Y-70714285D02*
X87359580Y-70761904D01*
X55407200Y-63333332D02*
X55454819Y-63190475D01*
X55454819Y-63190475D02*
X55454819Y-62952380D01*
X55454819Y-62952380D02*
X55407200Y-62857142D01*
X55407200Y-62857142D02*
X55359580Y-62809523D01*
X55359580Y-62809523D02*
X55264342Y-62761904D01*
X55264342Y-62761904D02*
X55169104Y-62761904D01*
X55169104Y-62761904D02*
X55073866Y-62809523D01*
X55073866Y-62809523D02*
X55026247Y-62857142D01*
X55026247Y-62857142D02*
X54978628Y-62952380D01*
X54978628Y-62952380D02*
X54931009Y-63142856D01*
X54931009Y-63142856D02*
X54883390Y-63238094D01*
X54883390Y-63238094D02*
X54835771Y-63285713D01*
X54835771Y-63285713D02*
X54740533Y-63333332D01*
X54740533Y-63333332D02*
X54645295Y-63333332D01*
X54645295Y-63333332D02*
X54550057Y-63285713D01*
X54550057Y-63285713D02*
X54502438Y-63238094D01*
X54502438Y-63238094D02*
X54454819Y-63142856D01*
X54454819Y-63142856D02*
X54454819Y-62904761D01*
X54454819Y-62904761D02*
X54502438Y-62761904D01*
X54454819Y-62428570D02*
X55454819Y-62190475D01*
X55454819Y-62190475D02*
X54740533Y-61999999D01*
X54740533Y-61999999D02*
X55454819Y-61809523D01*
X55454819Y-61809523D02*
X54454819Y-61571428D01*
X54454819Y-60761904D02*
X54454819Y-60952380D01*
X54454819Y-60952380D02*
X54502438Y-61047618D01*
X54502438Y-61047618D02*
X54550057Y-61095237D01*
X54550057Y-61095237D02*
X54692914Y-61190475D01*
X54692914Y-61190475D02*
X54883390Y-61238094D01*
X54883390Y-61238094D02*
X55264342Y-61238094D01*
X55264342Y-61238094D02*
X55359580Y-61190475D01*
X55359580Y-61190475D02*
X55407200Y-61142856D01*
X55407200Y-61142856D02*
X55454819Y-61047618D01*
X55454819Y-61047618D02*
X55454819Y-60857142D01*
X55454819Y-60857142D02*
X55407200Y-60761904D01*
X55407200Y-60761904D02*
X55359580Y-60714285D01*
X55359580Y-60714285D02*
X55264342Y-60666666D01*
X55264342Y-60666666D02*
X55026247Y-60666666D01*
X55026247Y-60666666D02*
X54931009Y-60714285D01*
X54931009Y-60714285D02*
X54883390Y-60761904D01*
X54883390Y-60761904D02*
X54835771Y-60857142D01*
X54835771Y-60857142D02*
X54835771Y-61047618D01*
X54835771Y-61047618D02*
X54883390Y-61142856D01*
X54883390Y-61142856D02*
X54931009Y-61190475D01*
X54931009Y-61190475D02*
X55026247Y-61238094D01*
X22454666Y-84833719D02*
X22454666Y-85548004D01*
X22454666Y-85548004D02*
X22407047Y-85690861D01*
X22407047Y-85690861D02*
X22311809Y-85786100D01*
X22311809Y-85786100D02*
X22168952Y-85833719D01*
X22168952Y-85833719D02*
X22073714Y-85833719D01*
X22835619Y-84833719D02*
X23454666Y-84833719D01*
X23454666Y-84833719D02*
X23121333Y-85214671D01*
X23121333Y-85214671D02*
X23264190Y-85214671D01*
X23264190Y-85214671D02*
X23359428Y-85262290D01*
X23359428Y-85262290D02*
X23407047Y-85309909D01*
X23407047Y-85309909D02*
X23454666Y-85405147D01*
X23454666Y-85405147D02*
X23454666Y-85643242D01*
X23454666Y-85643242D02*
X23407047Y-85738480D01*
X23407047Y-85738480D02*
X23359428Y-85786100D01*
X23359428Y-85786100D02*
X23264190Y-85833719D01*
X23264190Y-85833719D02*
X22978476Y-85833719D01*
X22978476Y-85833719D02*
X22883238Y-85786100D01*
X22883238Y-85786100D02*
X22835619Y-85738480D01*
X54592800Y-80190476D02*
X54545180Y-80333333D01*
X54545180Y-80333333D02*
X54545180Y-80571428D01*
X54545180Y-80571428D02*
X54592800Y-80666666D01*
X54592800Y-80666666D02*
X54640419Y-80714285D01*
X54640419Y-80714285D02*
X54735657Y-80761904D01*
X54735657Y-80761904D02*
X54830895Y-80761904D01*
X54830895Y-80761904D02*
X54926133Y-80714285D01*
X54926133Y-80714285D02*
X54973752Y-80666666D01*
X54973752Y-80666666D02*
X55021371Y-80571428D01*
X55021371Y-80571428D02*
X55068990Y-80380952D01*
X55068990Y-80380952D02*
X55116609Y-80285714D01*
X55116609Y-80285714D02*
X55164228Y-80238095D01*
X55164228Y-80238095D02*
X55259466Y-80190476D01*
X55259466Y-80190476D02*
X55354704Y-80190476D01*
X55354704Y-80190476D02*
X55449942Y-80238095D01*
X55449942Y-80238095D02*
X55497561Y-80285714D01*
X55497561Y-80285714D02*
X55545180Y-80380952D01*
X55545180Y-80380952D02*
X55545180Y-80619047D01*
X55545180Y-80619047D02*
X55497561Y-80761904D01*
X55545180Y-81095238D02*
X54545180Y-81333333D01*
X54545180Y-81333333D02*
X55259466Y-81523809D01*
X55259466Y-81523809D02*
X54545180Y-81714285D01*
X54545180Y-81714285D02*
X55545180Y-81952381D01*
X54545180Y-82857142D02*
X54545180Y-82285714D01*
X54545180Y-82571428D02*
X55545180Y-82571428D01*
X55545180Y-82571428D02*
X55402323Y-82476190D01*
X55402323Y-82476190D02*
X55307085Y-82380952D01*
X55307085Y-82380952D02*
X55259466Y-82285714D01*
X55116609Y-83428571D02*
X55164228Y-83333333D01*
X55164228Y-83333333D02*
X55211847Y-83285714D01*
X55211847Y-83285714D02*
X55307085Y-83238095D01*
X55307085Y-83238095D02*
X55354704Y-83238095D01*
X55354704Y-83238095D02*
X55449942Y-83285714D01*
X55449942Y-83285714D02*
X55497561Y-83333333D01*
X55497561Y-83333333D02*
X55545180Y-83428571D01*
X55545180Y-83428571D02*
X55545180Y-83619047D01*
X55545180Y-83619047D02*
X55497561Y-83714285D01*
X55497561Y-83714285D02*
X55449942Y-83761904D01*
X55449942Y-83761904D02*
X55354704Y-83809523D01*
X55354704Y-83809523D02*
X55307085Y-83809523D01*
X55307085Y-83809523D02*
X55211847Y-83761904D01*
X55211847Y-83761904D02*
X55164228Y-83714285D01*
X55164228Y-83714285D02*
X55116609Y-83619047D01*
X55116609Y-83619047D02*
X55116609Y-83428571D01*
X55116609Y-83428571D02*
X55068990Y-83333333D01*
X55068990Y-83333333D02*
X55021371Y-83285714D01*
X55021371Y-83285714D02*
X54926133Y-83238095D01*
X54926133Y-83238095D02*
X54735657Y-83238095D01*
X54735657Y-83238095D02*
X54640419Y-83285714D01*
X54640419Y-83285714D02*
X54592800Y-83333333D01*
X54592800Y-83333333D02*
X54545180Y-83428571D01*
X54545180Y-83428571D02*
X54545180Y-83619047D01*
X54545180Y-83619047D02*
X54592800Y-83714285D01*
X54592800Y-83714285D02*
X54640419Y-83761904D01*
X54640419Y-83761904D02*
X54735657Y-83809523D01*
X54735657Y-83809523D02*
X54926133Y-83809523D01*
X54926133Y-83809523D02*
X55021371Y-83761904D01*
X55021371Y-83761904D02*
X55068990Y-83714285D01*
X55068990Y-83714285D02*
X55116609Y-83619047D01*
X27207200Y-42333332D02*
X27254819Y-42190475D01*
X27254819Y-42190475D02*
X27254819Y-41952380D01*
X27254819Y-41952380D02*
X27207200Y-41857142D01*
X27207200Y-41857142D02*
X27159580Y-41809523D01*
X27159580Y-41809523D02*
X27064342Y-41761904D01*
X27064342Y-41761904D02*
X26969104Y-41761904D01*
X26969104Y-41761904D02*
X26873866Y-41809523D01*
X26873866Y-41809523D02*
X26826247Y-41857142D01*
X26826247Y-41857142D02*
X26778628Y-41952380D01*
X26778628Y-41952380D02*
X26731009Y-42142856D01*
X26731009Y-42142856D02*
X26683390Y-42238094D01*
X26683390Y-42238094D02*
X26635771Y-42285713D01*
X26635771Y-42285713D02*
X26540533Y-42333332D01*
X26540533Y-42333332D02*
X26445295Y-42333332D01*
X26445295Y-42333332D02*
X26350057Y-42285713D01*
X26350057Y-42285713D02*
X26302438Y-42238094D01*
X26302438Y-42238094D02*
X26254819Y-42142856D01*
X26254819Y-42142856D02*
X26254819Y-41904761D01*
X26254819Y-41904761D02*
X26302438Y-41761904D01*
X26254819Y-41428570D02*
X27254819Y-41190475D01*
X27254819Y-41190475D02*
X26540533Y-40999999D01*
X26540533Y-40999999D02*
X27254819Y-40809523D01*
X27254819Y-40809523D02*
X26254819Y-40571428D01*
X26350057Y-40238094D02*
X26302438Y-40190475D01*
X26302438Y-40190475D02*
X26254819Y-40095237D01*
X26254819Y-40095237D02*
X26254819Y-39857142D01*
X26254819Y-39857142D02*
X26302438Y-39761904D01*
X26302438Y-39761904D02*
X26350057Y-39714285D01*
X26350057Y-39714285D02*
X26445295Y-39666666D01*
X26445295Y-39666666D02*
X26540533Y-39666666D01*
X26540533Y-39666666D02*
X26683390Y-39714285D01*
X26683390Y-39714285D02*
X27254819Y-40285713D01*
X27254819Y-40285713D02*
X27254819Y-39666666D01*
X59454819Y-73214285D02*
X58454819Y-73214285D01*
X58454819Y-73214285D02*
X58454819Y-72976190D01*
X58454819Y-72976190D02*
X58502438Y-72833333D01*
X58502438Y-72833333D02*
X58597676Y-72738095D01*
X58597676Y-72738095D02*
X58692914Y-72690476D01*
X58692914Y-72690476D02*
X58883390Y-72642857D01*
X58883390Y-72642857D02*
X59026247Y-72642857D01*
X59026247Y-72642857D02*
X59216723Y-72690476D01*
X59216723Y-72690476D02*
X59311961Y-72738095D01*
X59311961Y-72738095D02*
X59407200Y-72833333D01*
X59407200Y-72833333D02*
X59454819Y-72976190D01*
X59454819Y-72976190D02*
X59454819Y-73214285D01*
X59454819Y-71690476D02*
X59454819Y-72261904D01*
X59454819Y-71976190D02*
X58454819Y-71976190D01*
X58454819Y-71976190D02*
X58597676Y-72071428D01*
X58597676Y-72071428D02*
X58692914Y-72166666D01*
X58692914Y-72166666D02*
X58740533Y-72261904D01*
X58550057Y-71309523D02*
X58502438Y-71261904D01*
X58502438Y-71261904D02*
X58454819Y-71166666D01*
X58454819Y-71166666D02*
X58454819Y-70928571D01*
X58454819Y-70928571D02*
X58502438Y-70833333D01*
X58502438Y-70833333D02*
X58550057Y-70785714D01*
X58550057Y-70785714D02*
X58645295Y-70738095D01*
X58645295Y-70738095D02*
X58740533Y-70738095D01*
X58740533Y-70738095D02*
X58883390Y-70785714D01*
X58883390Y-70785714D02*
X59454819Y-71357142D01*
X59454819Y-71357142D02*
X59454819Y-70738095D01*
X79454819Y-73214285D02*
X78454819Y-73214285D01*
X78454819Y-73214285D02*
X78454819Y-72976190D01*
X78454819Y-72976190D02*
X78502438Y-72833333D01*
X78502438Y-72833333D02*
X78597676Y-72738095D01*
X78597676Y-72738095D02*
X78692914Y-72690476D01*
X78692914Y-72690476D02*
X78883390Y-72642857D01*
X78883390Y-72642857D02*
X79026247Y-72642857D01*
X79026247Y-72642857D02*
X79216723Y-72690476D01*
X79216723Y-72690476D02*
X79311961Y-72738095D01*
X79311961Y-72738095D02*
X79407200Y-72833333D01*
X79407200Y-72833333D02*
X79454819Y-72976190D01*
X79454819Y-72976190D02*
X79454819Y-73214285D01*
X79454819Y-71690476D02*
X79454819Y-72261904D01*
X79454819Y-71976190D02*
X78454819Y-71976190D01*
X78454819Y-71976190D02*
X78597676Y-72071428D01*
X78597676Y-72071428D02*
X78692914Y-72166666D01*
X78692914Y-72166666D02*
X78740533Y-72261904D01*
X78788152Y-70833333D02*
X79454819Y-70833333D01*
X78407200Y-71071428D02*
X79121485Y-71309523D01*
X79121485Y-71309523D02*
X79121485Y-70690476D01*
X87407200Y-63333332D02*
X87454819Y-63190475D01*
X87454819Y-63190475D02*
X87454819Y-62952380D01*
X87454819Y-62952380D02*
X87407200Y-62857142D01*
X87407200Y-62857142D02*
X87359580Y-62809523D01*
X87359580Y-62809523D02*
X87264342Y-62761904D01*
X87264342Y-62761904D02*
X87169104Y-62761904D01*
X87169104Y-62761904D02*
X87073866Y-62809523D01*
X87073866Y-62809523D02*
X87026247Y-62857142D01*
X87026247Y-62857142D02*
X86978628Y-62952380D01*
X86978628Y-62952380D02*
X86931009Y-63142856D01*
X86931009Y-63142856D02*
X86883390Y-63238094D01*
X86883390Y-63238094D02*
X86835771Y-63285713D01*
X86835771Y-63285713D02*
X86740533Y-63333332D01*
X86740533Y-63333332D02*
X86645295Y-63333332D01*
X86645295Y-63333332D02*
X86550057Y-63285713D01*
X86550057Y-63285713D02*
X86502438Y-63238094D01*
X86502438Y-63238094D02*
X86454819Y-63142856D01*
X86454819Y-63142856D02*
X86454819Y-62904761D01*
X86454819Y-62904761D02*
X86502438Y-62761904D01*
X86454819Y-62428570D02*
X87454819Y-62190475D01*
X87454819Y-62190475D02*
X86740533Y-61999999D01*
X86740533Y-61999999D02*
X87454819Y-61809523D01*
X87454819Y-61809523D02*
X86454819Y-61571428D01*
X86883390Y-61047618D02*
X86835771Y-61142856D01*
X86835771Y-61142856D02*
X86788152Y-61190475D01*
X86788152Y-61190475D02*
X86692914Y-61238094D01*
X86692914Y-61238094D02*
X86645295Y-61238094D01*
X86645295Y-61238094D02*
X86550057Y-61190475D01*
X86550057Y-61190475D02*
X86502438Y-61142856D01*
X86502438Y-61142856D02*
X86454819Y-61047618D01*
X86454819Y-61047618D02*
X86454819Y-60857142D01*
X86454819Y-60857142D02*
X86502438Y-60761904D01*
X86502438Y-60761904D02*
X86550057Y-60714285D01*
X86550057Y-60714285D02*
X86645295Y-60666666D01*
X86645295Y-60666666D02*
X86692914Y-60666666D01*
X86692914Y-60666666D02*
X86788152Y-60714285D01*
X86788152Y-60714285D02*
X86835771Y-60761904D01*
X86835771Y-60761904D02*
X86883390Y-60857142D01*
X86883390Y-60857142D02*
X86883390Y-61047618D01*
X86883390Y-61047618D02*
X86931009Y-61142856D01*
X86931009Y-61142856D02*
X86978628Y-61190475D01*
X86978628Y-61190475D02*
X87073866Y-61238094D01*
X87073866Y-61238094D02*
X87264342Y-61238094D01*
X87264342Y-61238094D02*
X87359580Y-61190475D01*
X87359580Y-61190475D02*
X87407200Y-61142856D01*
X87407200Y-61142856D02*
X87454819Y-61047618D01*
X87454819Y-61047618D02*
X87454819Y-60857142D01*
X87454819Y-60857142D02*
X87407200Y-60761904D01*
X87407200Y-60761904D02*
X87359580Y-60714285D01*
X87359580Y-60714285D02*
X87264342Y-60666666D01*
X87264342Y-60666666D02*
X87073866Y-60666666D01*
X87073866Y-60666666D02*
X86978628Y-60714285D01*
X86978628Y-60714285D02*
X86931009Y-60761904D01*
X86931009Y-60761904D02*
X86883390Y-60857142D01*
X32545180Y-32761905D02*
X31735657Y-32761905D01*
X31735657Y-32761905D02*
X31640419Y-32809524D01*
X31640419Y-32809524D02*
X31592800Y-32857143D01*
X31592800Y-32857143D02*
X31545180Y-32952381D01*
X31545180Y-32952381D02*
X31545180Y-33142857D01*
X31545180Y-33142857D02*
X31592800Y-33238095D01*
X31592800Y-33238095D02*
X31640419Y-33285714D01*
X31640419Y-33285714D02*
X31735657Y-33333333D01*
X31735657Y-33333333D02*
X32545180Y-33333333D01*
X31545180Y-34333333D02*
X31545180Y-33761905D01*
X31545180Y-34047619D02*
X32545180Y-34047619D01*
X32545180Y-34047619D02*
X32402323Y-33952381D01*
X32402323Y-33952381D02*
X32307085Y-33857143D01*
X32307085Y-33857143D02*
X32259466Y-33761905D01*
X31545180Y-35285714D02*
X31545180Y-34714286D01*
X31545180Y-35000000D02*
X32545180Y-35000000D01*
X32545180Y-35000000D02*
X32402323Y-34904762D01*
X32402323Y-34904762D02*
X32307085Y-34809524D01*
X32307085Y-34809524D02*
X32259466Y-34714286D01*
X70044642Y-36572319D02*
X69711309Y-36096128D01*
X69473214Y-36572319D02*
X69473214Y-35572319D01*
X69473214Y-35572319D02*
X69854166Y-35572319D01*
X69854166Y-35572319D02*
X69949404Y-35619938D01*
X69949404Y-35619938D02*
X69997023Y-35667557D01*
X69997023Y-35667557D02*
X70044642Y-35762795D01*
X70044642Y-35762795D02*
X70044642Y-35905652D01*
X70044642Y-35905652D02*
X69997023Y-36000890D01*
X69997023Y-36000890D02*
X69949404Y-36048509D01*
X69949404Y-36048509D02*
X69854166Y-36096128D01*
X69854166Y-36096128D02*
X69473214Y-36096128D01*
X70997023Y-36572319D02*
X70425595Y-36572319D01*
X70711309Y-36572319D02*
X70711309Y-35572319D01*
X70711309Y-35572319D02*
X70616071Y-35715176D01*
X70616071Y-35715176D02*
X70520833Y-35810414D01*
X70520833Y-35810414D02*
X70425595Y-35858033D01*
X71330357Y-35572319D02*
X71949404Y-35572319D01*
X71949404Y-35572319D02*
X71616071Y-35953271D01*
X71616071Y-35953271D02*
X71758928Y-35953271D01*
X71758928Y-35953271D02*
X71854166Y-36000890D01*
X71854166Y-36000890D02*
X71901785Y-36048509D01*
X71901785Y-36048509D02*
X71949404Y-36143747D01*
X71949404Y-36143747D02*
X71949404Y-36381842D01*
X71949404Y-36381842D02*
X71901785Y-36477080D01*
X71901785Y-36477080D02*
X71854166Y-36524700D01*
X71854166Y-36524700D02*
X71758928Y-36572319D01*
X71758928Y-36572319D02*
X71473214Y-36572319D01*
X71473214Y-36572319D02*
X71377976Y-36524700D01*
X71377976Y-36524700D02*
X71330357Y-36477080D01*
X84607680Y-52136905D02*
X83798157Y-52136905D01*
X83798157Y-52136905D02*
X83702919Y-52184524D01*
X83702919Y-52184524D02*
X83655300Y-52232143D01*
X83655300Y-52232143D02*
X83607680Y-52327381D01*
X83607680Y-52327381D02*
X83607680Y-52517857D01*
X83607680Y-52517857D02*
X83655300Y-52613095D01*
X83655300Y-52613095D02*
X83702919Y-52660714D01*
X83702919Y-52660714D02*
X83798157Y-52708333D01*
X83798157Y-52708333D02*
X84607680Y-52708333D01*
X83607680Y-53708333D02*
X83607680Y-53136905D01*
X83607680Y-53422619D02*
X84607680Y-53422619D01*
X84607680Y-53422619D02*
X84464823Y-53327381D01*
X84464823Y-53327381D02*
X84369585Y-53232143D01*
X84369585Y-53232143D02*
X84321966Y-53136905D01*
X84607680Y-54327381D02*
X84607680Y-54422619D01*
X84607680Y-54422619D02*
X84560061Y-54517857D01*
X84560061Y-54517857D02*
X84512442Y-54565476D01*
X84512442Y-54565476D02*
X84417204Y-54613095D01*
X84417204Y-54613095D02*
X84226728Y-54660714D01*
X84226728Y-54660714D02*
X83988633Y-54660714D01*
X83988633Y-54660714D02*
X83798157Y-54613095D01*
X83798157Y-54613095D02*
X83702919Y-54565476D01*
X83702919Y-54565476D02*
X83655300Y-54517857D01*
X83655300Y-54517857D02*
X83607680Y-54422619D01*
X83607680Y-54422619D02*
X83607680Y-54327381D01*
X83607680Y-54327381D02*
X83655300Y-54232143D01*
X83655300Y-54232143D02*
X83702919Y-54184524D01*
X83702919Y-54184524D02*
X83798157Y-54136905D01*
X83798157Y-54136905D02*
X83988633Y-54089286D01*
X83988633Y-54089286D02*
X84226728Y-54089286D01*
X84226728Y-54089286D02*
X84417204Y-54136905D01*
X84417204Y-54136905D02*
X84512442Y-54184524D01*
X84512442Y-54184524D02*
X84560061Y-54232143D01*
X84560061Y-54232143D02*
X84607680Y-54327381D01*
X66274819Y-26166666D02*
X65798628Y-26499999D01*
X66274819Y-26738094D02*
X65274819Y-26738094D01*
X65274819Y-26738094D02*
X65274819Y-26357142D01*
X65274819Y-26357142D02*
X65322438Y-26261904D01*
X65322438Y-26261904D02*
X65370057Y-26214285D01*
X65370057Y-26214285D02*
X65465295Y-26166666D01*
X65465295Y-26166666D02*
X65608152Y-26166666D01*
X65608152Y-26166666D02*
X65703390Y-26214285D01*
X65703390Y-26214285D02*
X65751009Y-26261904D01*
X65751009Y-26261904D02*
X65798628Y-26357142D01*
X65798628Y-26357142D02*
X65798628Y-26738094D01*
X65274819Y-25261904D02*
X65274819Y-25738094D01*
X65274819Y-25738094D02*
X65751009Y-25785713D01*
X65751009Y-25785713D02*
X65703390Y-25738094D01*
X65703390Y-25738094D02*
X65655771Y-25642856D01*
X65655771Y-25642856D02*
X65655771Y-25404761D01*
X65655771Y-25404761D02*
X65703390Y-25309523D01*
X65703390Y-25309523D02*
X65751009Y-25261904D01*
X65751009Y-25261904D02*
X65846247Y-25214285D01*
X65846247Y-25214285D02*
X66084342Y-25214285D01*
X66084342Y-25214285D02*
X66179580Y-25261904D01*
X66179580Y-25261904D02*
X66227200Y-25309523D01*
X66227200Y-25309523D02*
X66274819Y-25404761D01*
X66274819Y-25404761D02*
X66274819Y-25642856D01*
X66274819Y-25642856D02*
X66227200Y-25738094D01*
X66227200Y-25738094D02*
X66179580Y-25785713D01*
X58545180Y-80785714D02*
X59545180Y-80785714D01*
X59545180Y-80785714D02*
X59545180Y-81023809D01*
X59545180Y-81023809D02*
X59497561Y-81166666D01*
X59497561Y-81166666D02*
X59402323Y-81261904D01*
X59402323Y-81261904D02*
X59307085Y-81309523D01*
X59307085Y-81309523D02*
X59116609Y-81357142D01*
X59116609Y-81357142D02*
X58973752Y-81357142D01*
X58973752Y-81357142D02*
X58783276Y-81309523D01*
X58783276Y-81309523D02*
X58688038Y-81261904D01*
X58688038Y-81261904D02*
X58592800Y-81166666D01*
X58592800Y-81166666D02*
X58545180Y-81023809D01*
X58545180Y-81023809D02*
X58545180Y-80785714D01*
X58545180Y-82309523D02*
X58545180Y-81738095D01*
X58545180Y-82023809D02*
X59545180Y-82023809D01*
X59545180Y-82023809D02*
X59402323Y-81928571D01*
X59402323Y-81928571D02*
X59307085Y-81833333D01*
X59307085Y-81833333D02*
X59259466Y-81738095D01*
X59116609Y-82880952D02*
X59164228Y-82785714D01*
X59164228Y-82785714D02*
X59211847Y-82738095D01*
X59211847Y-82738095D02*
X59307085Y-82690476D01*
X59307085Y-82690476D02*
X59354704Y-82690476D01*
X59354704Y-82690476D02*
X59449942Y-82738095D01*
X59449942Y-82738095D02*
X59497561Y-82785714D01*
X59497561Y-82785714D02*
X59545180Y-82880952D01*
X59545180Y-82880952D02*
X59545180Y-83071428D01*
X59545180Y-83071428D02*
X59497561Y-83166666D01*
X59497561Y-83166666D02*
X59449942Y-83214285D01*
X59449942Y-83214285D02*
X59354704Y-83261904D01*
X59354704Y-83261904D02*
X59307085Y-83261904D01*
X59307085Y-83261904D02*
X59211847Y-83214285D01*
X59211847Y-83214285D02*
X59164228Y-83166666D01*
X59164228Y-83166666D02*
X59116609Y-83071428D01*
X59116609Y-83071428D02*
X59116609Y-82880952D01*
X59116609Y-82880952D02*
X59068990Y-82785714D01*
X59068990Y-82785714D02*
X59021371Y-82738095D01*
X59021371Y-82738095D02*
X58926133Y-82690476D01*
X58926133Y-82690476D02*
X58735657Y-82690476D01*
X58735657Y-82690476D02*
X58640419Y-82738095D01*
X58640419Y-82738095D02*
X58592800Y-82785714D01*
X58592800Y-82785714D02*
X58545180Y-82880952D01*
X58545180Y-82880952D02*
X58545180Y-83071428D01*
X58545180Y-83071428D02*
X58592800Y-83166666D01*
X58592800Y-83166666D02*
X58640419Y-83214285D01*
X58640419Y-83214285D02*
X58735657Y-83261904D01*
X58735657Y-83261904D02*
X58926133Y-83261904D01*
X58926133Y-83261904D02*
X59021371Y-83214285D01*
X59021371Y-83214285D02*
X59068990Y-83166666D01*
X59068990Y-83166666D02*
X59116609Y-83071428D01*
X45407200Y-73809523D02*
X45454819Y-73666666D01*
X45454819Y-73666666D02*
X45454819Y-73428571D01*
X45454819Y-73428571D02*
X45407200Y-73333333D01*
X45407200Y-73333333D02*
X45359580Y-73285714D01*
X45359580Y-73285714D02*
X45264342Y-73238095D01*
X45264342Y-73238095D02*
X45169104Y-73238095D01*
X45169104Y-73238095D02*
X45073866Y-73285714D01*
X45073866Y-73285714D02*
X45026247Y-73333333D01*
X45026247Y-73333333D02*
X44978628Y-73428571D01*
X44978628Y-73428571D02*
X44931009Y-73619047D01*
X44931009Y-73619047D02*
X44883390Y-73714285D01*
X44883390Y-73714285D02*
X44835771Y-73761904D01*
X44835771Y-73761904D02*
X44740533Y-73809523D01*
X44740533Y-73809523D02*
X44645295Y-73809523D01*
X44645295Y-73809523D02*
X44550057Y-73761904D01*
X44550057Y-73761904D02*
X44502438Y-73714285D01*
X44502438Y-73714285D02*
X44454819Y-73619047D01*
X44454819Y-73619047D02*
X44454819Y-73380952D01*
X44454819Y-73380952D02*
X44502438Y-73238095D01*
X44454819Y-72904761D02*
X45454819Y-72666666D01*
X45454819Y-72666666D02*
X44740533Y-72476190D01*
X44740533Y-72476190D02*
X45454819Y-72285714D01*
X45454819Y-72285714D02*
X44454819Y-72047619D01*
X45454819Y-71142857D02*
X45454819Y-71714285D01*
X45454819Y-71428571D02*
X44454819Y-71428571D01*
X44454819Y-71428571D02*
X44597676Y-71523809D01*
X44597676Y-71523809D02*
X44692914Y-71619047D01*
X44692914Y-71619047D02*
X44740533Y-71714285D01*
X45454819Y-70190476D02*
X45454819Y-70761904D01*
X45454819Y-70476190D02*
X44454819Y-70476190D01*
X44454819Y-70476190D02*
X44597676Y-70571428D01*
X44597676Y-70571428D02*
X44692914Y-70666666D01*
X44692914Y-70666666D02*
X44740533Y-70761904D01*
X27454819Y-72738094D02*
X26454819Y-72738094D01*
X26454819Y-72738094D02*
X26454819Y-72499999D01*
X26454819Y-72499999D02*
X26502438Y-72357142D01*
X26502438Y-72357142D02*
X26597676Y-72261904D01*
X26597676Y-72261904D02*
X26692914Y-72214285D01*
X26692914Y-72214285D02*
X26883390Y-72166666D01*
X26883390Y-72166666D02*
X27026247Y-72166666D01*
X27026247Y-72166666D02*
X27216723Y-72214285D01*
X27216723Y-72214285D02*
X27311961Y-72261904D01*
X27311961Y-72261904D02*
X27407200Y-72357142D01*
X27407200Y-72357142D02*
X27454819Y-72499999D01*
X27454819Y-72499999D02*
X27454819Y-72738094D01*
X27454819Y-71690475D02*
X27454819Y-71499999D01*
X27454819Y-71499999D02*
X27407200Y-71404761D01*
X27407200Y-71404761D02*
X27359580Y-71357142D01*
X27359580Y-71357142D02*
X27216723Y-71261904D01*
X27216723Y-71261904D02*
X27026247Y-71214285D01*
X27026247Y-71214285D02*
X26645295Y-71214285D01*
X26645295Y-71214285D02*
X26550057Y-71261904D01*
X26550057Y-71261904D02*
X26502438Y-71309523D01*
X26502438Y-71309523D02*
X26454819Y-71404761D01*
X26454819Y-71404761D02*
X26454819Y-71595237D01*
X26454819Y-71595237D02*
X26502438Y-71690475D01*
X26502438Y-71690475D02*
X26550057Y-71738094D01*
X26550057Y-71738094D02*
X26645295Y-71785713D01*
X26645295Y-71785713D02*
X26883390Y-71785713D01*
X26883390Y-71785713D02*
X26978628Y-71738094D01*
X26978628Y-71738094D02*
X27026247Y-71690475D01*
X27026247Y-71690475D02*
X27073866Y-71595237D01*
X27073866Y-71595237D02*
X27073866Y-71404761D01*
X27073866Y-71404761D02*
X27026247Y-71309523D01*
X27026247Y-71309523D02*
X26978628Y-71261904D01*
X26978628Y-71261904D02*
X26883390Y-71214285D01*
X22592800Y-80190476D02*
X22545180Y-80333333D01*
X22545180Y-80333333D02*
X22545180Y-80571428D01*
X22545180Y-80571428D02*
X22592800Y-80666666D01*
X22592800Y-80666666D02*
X22640419Y-80714285D01*
X22640419Y-80714285D02*
X22735657Y-80761904D01*
X22735657Y-80761904D02*
X22830895Y-80761904D01*
X22830895Y-80761904D02*
X22926133Y-80714285D01*
X22926133Y-80714285D02*
X22973752Y-80666666D01*
X22973752Y-80666666D02*
X23021371Y-80571428D01*
X23021371Y-80571428D02*
X23068990Y-80380952D01*
X23068990Y-80380952D02*
X23116609Y-80285714D01*
X23116609Y-80285714D02*
X23164228Y-80238095D01*
X23164228Y-80238095D02*
X23259466Y-80190476D01*
X23259466Y-80190476D02*
X23354704Y-80190476D01*
X23354704Y-80190476D02*
X23449942Y-80238095D01*
X23449942Y-80238095D02*
X23497561Y-80285714D01*
X23497561Y-80285714D02*
X23545180Y-80380952D01*
X23545180Y-80380952D02*
X23545180Y-80619047D01*
X23545180Y-80619047D02*
X23497561Y-80761904D01*
X23545180Y-81095238D02*
X22545180Y-81333333D01*
X22545180Y-81333333D02*
X23259466Y-81523809D01*
X23259466Y-81523809D02*
X22545180Y-81714285D01*
X22545180Y-81714285D02*
X23545180Y-81952381D01*
X22545180Y-82857142D02*
X22545180Y-82285714D01*
X22545180Y-82571428D02*
X23545180Y-82571428D01*
X23545180Y-82571428D02*
X23402323Y-82476190D01*
X23402323Y-82476190D02*
X23307085Y-82380952D01*
X23307085Y-82380952D02*
X23259466Y-82285714D01*
X23545180Y-83714285D02*
X23545180Y-83523809D01*
X23545180Y-83523809D02*
X23497561Y-83428571D01*
X23497561Y-83428571D02*
X23449942Y-83380952D01*
X23449942Y-83380952D02*
X23307085Y-83285714D01*
X23307085Y-83285714D02*
X23116609Y-83238095D01*
X23116609Y-83238095D02*
X22735657Y-83238095D01*
X22735657Y-83238095D02*
X22640419Y-83285714D01*
X22640419Y-83285714D02*
X22592800Y-83333333D01*
X22592800Y-83333333D02*
X22545180Y-83428571D01*
X22545180Y-83428571D02*
X22545180Y-83619047D01*
X22545180Y-83619047D02*
X22592800Y-83714285D01*
X22592800Y-83714285D02*
X22640419Y-83761904D01*
X22640419Y-83761904D02*
X22735657Y-83809523D01*
X22735657Y-83809523D02*
X22973752Y-83809523D01*
X22973752Y-83809523D02*
X23068990Y-83761904D01*
X23068990Y-83761904D02*
X23116609Y-83714285D01*
X23116609Y-83714285D02*
X23164228Y-83619047D01*
X23164228Y-83619047D02*
X23164228Y-83428571D01*
X23164228Y-83428571D02*
X23116609Y-83333333D01*
X23116609Y-83333333D02*
X23068990Y-83285714D01*
X23068990Y-83285714D02*
X22973752Y-83238095D01*
X39454819Y-73214285D02*
X38454819Y-73214285D01*
X38454819Y-73214285D02*
X38454819Y-72976190D01*
X38454819Y-72976190D02*
X38502438Y-72833333D01*
X38502438Y-72833333D02*
X38597676Y-72738095D01*
X38597676Y-72738095D02*
X38692914Y-72690476D01*
X38692914Y-72690476D02*
X38883390Y-72642857D01*
X38883390Y-72642857D02*
X39026247Y-72642857D01*
X39026247Y-72642857D02*
X39216723Y-72690476D01*
X39216723Y-72690476D02*
X39311961Y-72738095D01*
X39311961Y-72738095D02*
X39407200Y-72833333D01*
X39407200Y-72833333D02*
X39454819Y-72976190D01*
X39454819Y-72976190D02*
X39454819Y-73214285D01*
X39454819Y-71690476D02*
X39454819Y-72261904D01*
X39454819Y-71976190D02*
X38454819Y-71976190D01*
X38454819Y-71976190D02*
X38597676Y-72071428D01*
X38597676Y-72071428D02*
X38692914Y-72166666D01*
X38692914Y-72166666D02*
X38740533Y-72261904D01*
X38454819Y-71071428D02*
X38454819Y-70976190D01*
X38454819Y-70976190D02*
X38502438Y-70880952D01*
X38502438Y-70880952D02*
X38550057Y-70833333D01*
X38550057Y-70833333D02*
X38645295Y-70785714D01*
X38645295Y-70785714D02*
X38835771Y-70738095D01*
X38835771Y-70738095D02*
X39073866Y-70738095D01*
X39073866Y-70738095D02*
X39264342Y-70785714D01*
X39264342Y-70785714D02*
X39359580Y-70833333D01*
X39359580Y-70833333D02*
X39407200Y-70880952D01*
X39407200Y-70880952D02*
X39454819Y-70976190D01*
X39454819Y-70976190D02*
X39454819Y-71071428D01*
X39454819Y-71071428D02*
X39407200Y-71166666D01*
X39407200Y-71166666D02*
X39359580Y-71214285D01*
X39359580Y-71214285D02*
X39264342Y-71261904D01*
X39264342Y-71261904D02*
X39073866Y-71309523D01*
X39073866Y-71309523D02*
X38835771Y-71309523D01*
X38835771Y-71309523D02*
X38645295Y-71261904D01*
X38645295Y-71261904D02*
X38550057Y-71214285D01*
X38550057Y-71214285D02*
X38502438Y-71166666D01*
X38502438Y-71166666D02*
X38454819Y-71071428D01*
X69454819Y-73214285D02*
X68454819Y-73214285D01*
X68454819Y-73214285D02*
X68454819Y-72976190D01*
X68454819Y-72976190D02*
X68502438Y-72833333D01*
X68502438Y-72833333D02*
X68597676Y-72738095D01*
X68597676Y-72738095D02*
X68692914Y-72690476D01*
X68692914Y-72690476D02*
X68883390Y-72642857D01*
X68883390Y-72642857D02*
X69026247Y-72642857D01*
X69026247Y-72642857D02*
X69216723Y-72690476D01*
X69216723Y-72690476D02*
X69311961Y-72738095D01*
X69311961Y-72738095D02*
X69407200Y-72833333D01*
X69407200Y-72833333D02*
X69454819Y-72976190D01*
X69454819Y-72976190D02*
X69454819Y-73214285D01*
X69454819Y-71690476D02*
X69454819Y-72261904D01*
X69454819Y-71976190D02*
X68454819Y-71976190D01*
X68454819Y-71976190D02*
X68597676Y-72071428D01*
X68597676Y-72071428D02*
X68692914Y-72166666D01*
X68692914Y-72166666D02*
X68740533Y-72261904D01*
X68454819Y-71357142D02*
X68454819Y-70738095D01*
X68454819Y-70738095D02*
X68835771Y-71071428D01*
X68835771Y-71071428D02*
X68835771Y-70928571D01*
X68835771Y-70928571D02*
X68883390Y-70833333D01*
X68883390Y-70833333D02*
X68931009Y-70785714D01*
X68931009Y-70785714D02*
X69026247Y-70738095D01*
X69026247Y-70738095D02*
X69264342Y-70738095D01*
X69264342Y-70738095D02*
X69359580Y-70785714D01*
X69359580Y-70785714D02*
X69407200Y-70833333D01*
X69407200Y-70833333D02*
X69454819Y-70928571D01*
X69454819Y-70928571D02*
X69454819Y-71214285D01*
X69454819Y-71214285D02*
X69407200Y-71309523D01*
X69407200Y-71309523D02*
X69359580Y-71357142D01*
X73462319Y-35017857D02*
X72986128Y-35351190D01*
X73462319Y-35589285D02*
X72462319Y-35589285D01*
X72462319Y-35589285D02*
X72462319Y-35208333D01*
X72462319Y-35208333D02*
X72509938Y-35113095D01*
X72509938Y-35113095D02*
X72557557Y-35065476D01*
X72557557Y-35065476D02*
X72652795Y-35017857D01*
X72652795Y-35017857D02*
X72795652Y-35017857D01*
X72795652Y-35017857D02*
X72890890Y-35065476D01*
X72890890Y-35065476D02*
X72938509Y-35113095D01*
X72938509Y-35113095D02*
X72986128Y-35208333D01*
X72986128Y-35208333D02*
X72986128Y-35589285D01*
X73462319Y-34065476D02*
X73462319Y-34636904D01*
X73462319Y-34351190D02*
X72462319Y-34351190D01*
X72462319Y-34351190D02*
X72605176Y-34446428D01*
X72605176Y-34446428D02*
X72700414Y-34541666D01*
X72700414Y-34541666D02*
X72748033Y-34636904D01*
X72462319Y-33160714D02*
X72462319Y-33636904D01*
X72462319Y-33636904D02*
X72938509Y-33684523D01*
X72938509Y-33684523D02*
X72890890Y-33636904D01*
X72890890Y-33636904D02*
X72843271Y-33541666D01*
X72843271Y-33541666D02*
X72843271Y-33303571D01*
X72843271Y-33303571D02*
X72890890Y-33208333D01*
X72890890Y-33208333D02*
X72938509Y-33160714D01*
X72938509Y-33160714D02*
X73033747Y-33113095D01*
X73033747Y-33113095D02*
X73271842Y-33113095D01*
X73271842Y-33113095D02*
X73367080Y-33160714D01*
X73367080Y-33160714D02*
X73414700Y-33208333D01*
X73414700Y-33208333D02*
X73462319Y-33303571D01*
X73462319Y-33303571D02*
X73462319Y-33541666D01*
X73462319Y-33541666D02*
X73414700Y-33636904D01*
X73414700Y-33636904D02*
X73367080Y-33684523D01*
X84454819Y-36761904D02*
X85264342Y-36761904D01*
X85264342Y-36761904D02*
X85359580Y-36714285D01*
X85359580Y-36714285D02*
X85407200Y-36666666D01*
X85407200Y-36666666D02*
X85454819Y-36571428D01*
X85454819Y-36571428D02*
X85454819Y-36380952D01*
X85454819Y-36380952D02*
X85407200Y-36285714D01*
X85407200Y-36285714D02*
X85359580Y-36238095D01*
X85359580Y-36238095D02*
X85264342Y-36190476D01*
X85264342Y-36190476D02*
X84454819Y-36190476D01*
X84550057Y-35761904D02*
X84502438Y-35714285D01*
X84502438Y-35714285D02*
X84454819Y-35619047D01*
X84454819Y-35619047D02*
X84454819Y-35380952D01*
X84454819Y-35380952D02*
X84502438Y-35285714D01*
X84502438Y-35285714D02*
X84550057Y-35238095D01*
X84550057Y-35238095D02*
X84645295Y-35190476D01*
X84645295Y-35190476D02*
X84740533Y-35190476D01*
X84740533Y-35190476D02*
X84883390Y-35238095D01*
X84883390Y-35238095D02*
X85454819Y-35809523D01*
X85454819Y-35809523D02*
X85454819Y-35190476D01*
X82610019Y-42170085D02*
X81610019Y-42170085D01*
X81610019Y-42170085D02*
X81610019Y-41931990D01*
X81610019Y-41931990D02*
X81657638Y-41789133D01*
X81657638Y-41789133D02*
X81752876Y-41693895D01*
X81752876Y-41693895D02*
X81848114Y-41646276D01*
X81848114Y-41646276D02*
X82038590Y-41598657D01*
X82038590Y-41598657D02*
X82181447Y-41598657D01*
X82181447Y-41598657D02*
X82371923Y-41646276D01*
X82371923Y-41646276D02*
X82467161Y-41693895D01*
X82467161Y-41693895D02*
X82562400Y-41789133D01*
X82562400Y-41789133D02*
X82610019Y-41931990D01*
X82610019Y-41931990D02*
X82610019Y-42170085D01*
X82562400Y-40789133D02*
X82610019Y-40884371D01*
X82610019Y-40884371D02*
X82610019Y-41074847D01*
X82610019Y-41074847D02*
X82562400Y-41170085D01*
X82562400Y-41170085D02*
X82467161Y-41217704D01*
X82467161Y-41217704D02*
X82086209Y-41217704D01*
X82086209Y-41217704D02*
X81990971Y-41170085D01*
X81990971Y-41170085D02*
X81943352Y-41074847D01*
X81943352Y-41074847D02*
X81943352Y-40884371D01*
X81943352Y-40884371D02*
X81990971Y-40789133D01*
X81990971Y-40789133D02*
X82086209Y-40741514D01*
X82086209Y-40741514D02*
X82181447Y-40741514D01*
X82181447Y-40741514D02*
X82276685Y-41217704D01*
X82562400Y-40360561D02*
X82610019Y-40265323D01*
X82610019Y-40265323D02*
X82610019Y-40074847D01*
X82610019Y-40074847D02*
X82562400Y-39979609D01*
X82562400Y-39979609D02*
X82467161Y-39931990D01*
X82467161Y-39931990D02*
X82419542Y-39931990D01*
X82419542Y-39931990D02*
X82324304Y-39979609D01*
X82324304Y-39979609D02*
X82276685Y-40074847D01*
X82276685Y-40074847D02*
X82276685Y-40217704D01*
X82276685Y-40217704D02*
X82229066Y-40312942D01*
X82229066Y-40312942D02*
X82133828Y-40360561D01*
X82133828Y-40360561D02*
X82086209Y-40360561D01*
X82086209Y-40360561D02*
X81990971Y-40312942D01*
X81990971Y-40312942D02*
X81943352Y-40217704D01*
X81943352Y-40217704D02*
X81943352Y-40074847D01*
X81943352Y-40074847D02*
X81990971Y-39979609D01*
X82610019Y-39503418D02*
X81943352Y-39503418D01*
X81610019Y-39503418D02*
X81657638Y-39551037D01*
X81657638Y-39551037D02*
X81705257Y-39503418D01*
X81705257Y-39503418D02*
X81657638Y-39455799D01*
X81657638Y-39455799D02*
X81610019Y-39503418D01*
X81610019Y-39503418D02*
X81705257Y-39503418D01*
X81943352Y-38598657D02*
X82752876Y-38598657D01*
X82752876Y-38598657D02*
X82848114Y-38646276D01*
X82848114Y-38646276D02*
X82895733Y-38693895D01*
X82895733Y-38693895D02*
X82943352Y-38789133D01*
X82943352Y-38789133D02*
X82943352Y-38931990D01*
X82943352Y-38931990D02*
X82895733Y-39027228D01*
X82562400Y-38598657D02*
X82610019Y-38693895D01*
X82610019Y-38693895D02*
X82610019Y-38884371D01*
X82610019Y-38884371D02*
X82562400Y-38979609D01*
X82562400Y-38979609D02*
X82514780Y-39027228D01*
X82514780Y-39027228D02*
X82419542Y-39074847D01*
X82419542Y-39074847D02*
X82133828Y-39074847D01*
X82133828Y-39074847D02*
X82038590Y-39027228D01*
X82038590Y-39027228D02*
X81990971Y-38979609D01*
X81990971Y-38979609D02*
X81943352Y-38884371D01*
X81943352Y-38884371D02*
X81943352Y-38693895D01*
X81943352Y-38693895D02*
X81990971Y-38598657D01*
X81943352Y-38122466D02*
X82610019Y-38122466D01*
X82038590Y-38122466D02*
X81990971Y-38074847D01*
X81990971Y-38074847D02*
X81943352Y-37979609D01*
X81943352Y-37979609D02*
X81943352Y-37836752D01*
X81943352Y-37836752D02*
X81990971Y-37741514D01*
X81990971Y-37741514D02*
X82086209Y-37693895D01*
X82086209Y-37693895D02*
X82610019Y-37693895D01*
X82610019Y-36789133D02*
X82086209Y-36789133D01*
X82086209Y-36789133D02*
X81990971Y-36836752D01*
X81990971Y-36836752D02*
X81943352Y-36931990D01*
X81943352Y-36931990D02*
X81943352Y-37122466D01*
X81943352Y-37122466D02*
X81990971Y-37217704D01*
X82562400Y-36789133D02*
X82610019Y-36884371D01*
X82610019Y-36884371D02*
X82610019Y-37122466D01*
X82610019Y-37122466D02*
X82562400Y-37217704D01*
X82562400Y-37217704D02*
X82467161Y-37265323D01*
X82467161Y-37265323D02*
X82371923Y-37265323D01*
X82371923Y-37265323D02*
X82276685Y-37217704D01*
X82276685Y-37217704D02*
X82229066Y-37122466D01*
X82229066Y-37122466D02*
X82229066Y-36884371D01*
X82229066Y-36884371D02*
X82181447Y-36789133D01*
X81943352Y-36455799D02*
X81943352Y-36074847D01*
X81610019Y-36312942D02*
X82467161Y-36312942D01*
X82467161Y-36312942D02*
X82562400Y-36265323D01*
X82562400Y-36265323D02*
X82610019Y-36170085D01*
X82610019Y-36170085D02*
X82610019Y-36074847D01*
X82610019Y-35598656D02*
X82562400Y-35693894D01*
X82562400Y-35693894D02*
X82514780Y-35741513D01*
X82514780Y-35741513D02*
X82419542Y-35789132D01*
X82419542Y-35789132D02*
X82133828Y-35789132D01*
X82133828Y-35789132D02*
X82038590Y-35741513D01*
X82038590Y-35741513D02*
X81990971Y-35693894D01*
X81990971Y-35693894D02*
X81943352Y-35598656D01*
X81943352Y-35598656D02*
X81943352Y-35455799D01*
X81943352Y-35455799D02*
X81990971Y-35360561D01*
X81990971Y-35360561D02*
X82038590Y-35312942D01*
X82038590Y-35312942D02*
X82133828Y-35265323D01*
X82133828Y-35265323D02*
X82419542Y-35265323D01*
X82419542Y-35265323D02*
X82514780Y-35312942D01*
X82514780Y-35312942D02*
X82562400Y-35360561D01*
X82562400Y-35360561D02*
X82610019Y-35455799D01*
X82610019Y-35455799D02*
X82610019Y-35598656D01*
X82610019Y-34836751D02*
X81943352Y-34836751D01*
X82133828Y-34836751D02*
X82038590Y-34789132D01*
X82038590Y-34789132D02*
X81990971Y-34741513D01*
X81990971Y-34741513D02*
X81943352Y-34646275D01*
X81943352Y-34646275D02*
X81943352Y-34551037D01*
X82610019Y-34170084D02*
X82610019Y-33979608D01*
X82610019Y-33979608D02*
X82562400Y-33884370D01*
X82562400Y-33884370D02*
X82514780Y-33836751D01*
X82514780Y-33836751D02*
X82371923Y-33741513D01*
X82371923Y-33741513D02*
X82181447Y-33693894D01*
X82181447Y-33693894D02*
X81800495Y-33693894D01*
X81800495Y-33693894D02*
X81705257Y-33741513D01*
X81705257Y-33741513D02*
X81657638Y-33789132D01*
X81657638Y-33789132D02*
X81610019Y-33884370D01*
X81610019Y-33884370D02*
X81610019Y-34074846D01*
X81610019Y-34074846D02*
X81657638Y-34170084D01*
X81657638Y-34170084D02*
X81705257Y-34217703D01*
X81705257Y-34217703D02*
X81800495Y-34265322D01*
X81800495Y-34265322D02*
X82038590Y-34265322D01*
X82038590Y-34265322D02*
X82133828Y-34217703D01*
X82133828Y-34217703D02*
X82181447Y-34170084D01*
X82181447Y-34170084D02*
X82229066Y-34074846D01*
X82229066Y-34074846D02*
X82229066Y-33884370D01*
X82229066Y-33884370D02*
X82181447Y-33789132D01*
X82181447Y-33789132D02*
X82133828Y-33741513D01*
X82133828Y-33741513D02*
X82038590Y-33693894D01*
X73545180Y-80785714D02*
X74545180Y-80785714D01*
X74545180Y-80785714D02*
X74545180Y-81023809D01*
X74545180Y-81023809D02*
X74497561Y-81166666D01*
X74497561Y-81166666D02*
X74402323Y-81261904D01*
X74402323Y-81261904D02*
X74307085Y-81309523D01*
X74307085Y-81309523D02*
X74116609Y-81357142D01*
X74116609Y-81357142D02*
X73973752Y-81357142D01*
X73973752Y-81357142D02*
X73783276Y-81309523D01*
X73783276Y-81309523D02*
X73688038Y-81261904D01*
X73688038Y-81261904D02*
X73592800Y-81166666D01*
X73592800Y-81166666D02*
X73545180Y-81023809D01*
X73545180Y-81023809D02*
X73545180Y-80785714D01*
X73545180Y-82309523D02*
X73545180Y-81738095D01*
X73545180Y-82023809D02*
X74545180Y-82023809D01*
X74545180Y-82023809D02*
X74402323Y-81928571D01*
X74402323Y-81928571D02*
X74307085Y-81833333D01*
X74307085Y-81833333D02*
X74259466Y-81738095D01*
X73545180Y-82785714D02*
X73545180Y-82976190D01*
X73545180Y-82976190D02*
X73592800Y-83071428D01*
X73592800Y-83071428D02*
X73640419Y-83119047D01*
X73640419Y-83119047D02*
X73783276Y-83214285D01*
X73783276Y-83214285D02*
X73973752Y-83261904D01*
X73973752Y-83261904D02*
X74354704Y-83261904D01*
X74354704Y-83261904D02*
X74449942Y-83214285D01*
X74449942Y-83214285D02*
X74497561Y-83166666D01*
X74497561Y-83166666D02*
X74545180Y-83071428D01*
X74545180Y-83071428D02*
X74545180Y-82880952D01*
X74545180Y-82880952D02*
X74497561Y-82785714D01*
X74497561Y-82785714D02*
X74449942Y-82738095D01*
X74449942Y-82738095D02*
X74354704Y-82690476D01*
X74354704Y-82690476D02*
X74116609Y-82690476D01*
X74116609Y-82690476D02*
X74021371Y-82738095D01*
X74021371Y-82738095D02*
X73973752Y-82785714D01*
X73973752Y-82785714D02*
X73926133Y-82880952D01*
X73926133Y-82880952D02*
X73926133Y-83071428D01*
X73926133Y-83071428D02*
X73973752Y-83166666D01*
X73973752Y-83166666D02*
X74021371Y-83214285D01*
X74021371Y-83214285D02*
X74116609Y-83261904D01*
X51238095Y-29416069D02*
X51238095Y-30225592D01*
X51238095Y-30225592D02*
X51285714Y-30320830D01*
X51285714Y-30320830D02*
X51333333Y-30368450D01*
X51333333Y-30368450D02*
X51428571Y-30416069D01*
X51428571Y-30416069D02*
X51619047Y-30416069D01*
X51619047Y-30416069D02*
X51714285Y-30368450D01*
X51714285Y-30368450D02*
X51761904Y-30320830D01*
X51761904Y-30320830D02*
X51809523Y-30225592D01*
X51809523Y-30225592D02*
X51809523Y-29416069D01*
X52809523Y-30416069D02*
X52238095Y-30416069D01*
X52523809Y-30416069D02*
X52523809Y-29416069D01*
X52523809Y-29416069D02*
X52428571Y-29558926D01*
X52428571Y-29558926D02*
X52333333Y-29654164D01*
X52333333Y-29654164D02*
X52238095Y-29701783D01*
X50238095Y-24454819D02*
X50238095Y-25264342D01*
X50238095Y-25264342D02*
X50285714Y-25359580D01*
X50285714Y-25359580D02*
X50333333Y-25407200D01*
X50333333Y-25407200D02*
X50428571Y-25454819D01*
X50428571Y-25454819D02*
X50619047Y-25454819D01*
X50619047Y-25454819D02*
X50714285Y-25407200D01*
X50714285Y-25407200D02*
X50761904Y-25359580D01*
X50761904Y-25359580D02*
X50809523Y-25264342D01*
X50809523Y-25264342D02*
X50809523Y-24454819D01*
X51714285Y-24454819D02*
X51523809Y-24454819D01*
X51523809Y-24454819D02*
X51428571Y-24502438D01*
X51428571Y-24502438D02*
X51380952Y-24550057D01*
X51380952Y-24550057D02*
X51285714Y-24692914D01*
X51285714Y-24692914D02*
X51238095Y-24883390D01*
X51238095Y-24883390D02*
X51238095Y-25264342D01*
X51238095Y-25264342D02*
X51285714Y-25359580D01*
X51285714Y-25359580D02*
X51333333Y-25407200D01*
X51333333Y-25407200D02*
X51428571Y-25454819D01*
X51428571Y-25454819D02*
X51619047Y-25454819D01*
X51619047Y-25454819D02*
X51714285Y-25407200D01*
X51714285Y-25407200D02*
X51761904Y-25359580D01*
X51761904Y-25359580D02*
X51809523Y-25264342D01*
X51809523Y-25264342D02*
X51809523Y-25026247D01*
X51809523Y-25026247D02*
X51761904Y-24931009D01*
X51761904Y-24931009D02*
X51714285Y-24883390D01*
X51714285Y-24883390D02*
X51619047Y-24835771D01*
X51619047Y-24835771D02*
X51428571Y-24835771D01*
X51428571Y-24835771D02*
X51333333Y-24883390D01*
X51333333Y-24883390D02*
X51285714Y-24931009D01*
X51285714Y-24931009D02*
X51238095Y-25026247D01*
X47101100Y-20873419D02*
X47101100Y-21111514D01*
X46863005Y-21016276D02*
X47101100Y-21111514D01*
X47101100Y-21111514D02*
X47339195Y-21016276D01*
X46958243Y-21301990D02*
X47101100Y-21111514D01*
X47101100Y-21111514D02*
X47243957Y-21301990D01*
X47101100Y-20873419D02*
X47101100Y-21111514D01*
X46863005Y-21016276D02*
X47101100Y-21111514D01*
X47101100Y-21111514D02*
X47339195Y-21016276D01*
X46958243Y-21301990D02*
X47101100Y-21111514D01*
X47101100Y-21111514D02*
X47243957Y-21301990D01*
X86592800Y-80190476D02*
X86545180Y-80333333D01*
X86545180Y-80333333D02*
X86545180Y-80571428D01*
X86545180Y-80571428D02*
X86592800Y-80666666D01*
X86592800Y-80666666D02*
X86640419Y-80714285D01*
X86640419Y-80714285D02*
X86735657Y-80761904D01*
X86735657Y-80761904D02*
X86830895Y-80761904D01*
X86830895Y-80761904D02*
X86926133Y-80714285D01*
X86926133Y-80714285D02*
X86973752Y-80666666D01*
X86973752Y-80666666D02*
X87021371Y-80571428D01*
X87021371Y-80571428D02*
X87068990Y-80380952D01*
X87068990Y-80380952D02*
X87116609Y-80285714D01*
X87116609Y-80285714D02*
X87164228Y-80238095D01*
X87164228Y-80238095D02*
X87259466Y-80190476D01*
X87259466Y-80190476D02*
X87354704Y-80190476D01*
X87354704Y-80190476D02*
X87449942Y-80238095D01*
X87449942Y-80238095D02*
X87497561Y-80285714D01*
X87497561Y-80285714D02*
X87545180Y-80380952D01*
X87545180Y-80380952D02*
X87545180Y-80619047D01*
X87545180Y-80619047D02*
X87497561Y-80761904D01*
X87545180Y-81095238D02*
X86545180Y-81333333D01*
X86545180Y-81333333D02*
X87259466Y-81523809D01*
X87259466Y-81523809D02*
X86545180Y-81714285D01*
X86545180Y-81714285D02*
X87545180Y-81952381D01*
X87449942Y-82285714D02*
X87497561Y-82333333D01*
X87497561Y-82333333D02*
X87545180Y-82428571D01*
X87545180Y-82428571D02*
X87545180Y-82666666D01*
X87545180Y-82666666D02*
X87497561Y-82761904D01*
X87497561Y-82761904D02*
X87449942Y-82809523D01*
X87449942Y-82809523D02*
X87354704Y-82857142D01*
X87354704Y-82857142D02*
X87259466Y-82857142D01*
X87259466Y-82857142D02*
X87116609Y-82809523D01*
X87116609Y-82809523D02*
X86545180Y-82238095D01*
X86545180Y-82238095D02*
X86545180Y-82857142D01*
X87545180Y-83476190D02*
X87545180Y-83571428D01*
X87545180Y-83571428D02*
X87497561Y-83666666D01*
X87497561Y-83666666D02*
X87449942Y-83714285D01*
X87449942Y-83714285D02*
X87354704Y-83761904D01*
X87354704Y-83761904D02*
X87164228Y-83809523D01*
X87164228Y-83809523D02*
X86926133Y-83809523D01*
X86926133Y-83809523D02*
X86735657Y-83761904D01*
X86735657Y-83761904D02*
X86640419Y-83714285D01*
X86640419Y-83714285D02*
X86592800Y-83666666D01*
X86592800Y-83666666D02*
X86545180Y-83571428D01*
X86545180Y-83571428D02*
X86545180Y-83476190D01*
X86545180Y-83476190D02*
X86592800Y-83380952D01*
X86592800Y-83380952D02*
X86640419Y-83333333D01*
X86640419Y-83333333D02*
X86735657Y-83285714D01*
X86735657Y-83285714D02*
X86926133Y-83238095D01*
X86926133Y-83238095D02*
X87164228Y-83238095D01*
X87164228Y-83238095D02*
X87354704Y-83285714D01*
X87354704Y-83285714D02*
X87449942Y-83333333D01*
X87449942Y-83333333D02*
X87497561Y-83380952D01*
X87497561Y-83380952D02*
X87545180Y-83476190D01*
X44454819Y-62842994D02*
X43454819Y-62842994D01*
X43454819Y-62842994D02*
X43454819Y-62604899D01*
X43454819Y-62604899D02*
X43502438Y-62462042D01*
X43502438Y-62462042D02*
X43597676Y-62366804D01*
X43597676Y-62366804D02*
X43692914Y-62319185D01*
X43692914Y-62319185D02*
X43883390Y-62271566D01*
X43883390Y-62271566D02*
X44026247Y-62271566D01*
X44026247Y-62271566D02*
X44216723Y-62319185D01*
X44216723Y-62319185D02*
X44311961Y-62366804D01*
X44311961Y-62366804D02*
X44407200Y-62462042D01*
X44407200Y-62462042D02*
X44454819Y-62604899D01*
X44454819Y-62604899D02*
X44454819Y-62842994D01*
X43454819Y-61366804D02*
X43454819Y-61842994D01*
X43454819Y-61842994D02*
X43931009Y-61890613D01*
X43931009Y-61890613D02*
X43883390Y-61842994D01*
X43883390Y-61842994D02*
X43835771Y-61747756D01*
X43835771Y-61747756D02*
X43835771Y-61509661D01*
X43835771Y-61509661D02*
X43883390Y-61414423D01*
X43883390Y-61414423D02*
X43931009Y-61366804D01*
X43931009Y-61366804D02*
X44026247Y-61319185D01*
X44026247Y-61319185D02*
X44264342Y-61319185D01*
X44264342Y-61319185D02*
X44359580Y-61366804D01*
X44359580Y-61366804D02*
X44407200Y-61414423D01*
X44407200Y-61414423D02*
X44454819Y-61509661D01*
X44454819Y-61509661D02*
X44454819Y-61747756D01*
X44454819Y-61747756D02*
X44407200Y-61842994D01*
X44407200Y-61842994D02*
X44359580Y-61890613D01*
X72238095Y-25354820D02*
X72238095Y-26164343D01*
X72238095Y-26164343D02*
X72285714Y-26259581D01*
X72285714Y-26259581D02*
X72333333Y-26307201D01*
X72333333Y-26307201D02*
X72428571Y-26354820D01*
X72428571Y-26354820D02*
X72619047Y-26354820D01*
X72619047Y-26354820D02*
X72714285Y-26307201D01*
X72714285Y-26307201D02*
X72761904Y-26259581D01*
X72761904Y-26259581D02*
X72809523Y-26164343D01*
X72809523Y-26164343D02*
X72809523Y-25354820D01*
X73761904Y-25354820D02*
X73285714Y-25354820D01*
X73285714Y-25354820D02*
X73238095Y-25831010D01*
X73238095Y-25831010D02*
X73285714Y-25783391D01*
X73285714Y-25783391D02*
X73380952Y-25735772D01*
X73380952Y-25735772D02*
X73619047Y-25735772D01*
X73619047Y-25735772D02*
X73714285Y-25783391D01*
X73714285Y-25783391D02*
X73761904Y-25831010D01*
X73761904Y-25831010D02*
X73809523Y-25926248D01*
X73809523Y-25926248D02*
X73809523Y-26164343D01*
X73809523Y-26164343D02*
X73761904Y-26259581D01*
X73761904Y-26259581D02*
X73714285Y-26307201D01*
X73714285Y-26307201D02*
X73619047Y-26354820D01*
X73619047Y-26354820D02*
X73380952Y-26354820D01*
X73380952Y-26354820D02*
X73285714Y-26307201D01*
X73285714Y-26307201D02*
X73238095Y-26259581D01*
X66058600Y-21354320D02*
X66058600Y-21592415D01*
X65820505Y-21497177D02*
X66058600Y-21592415D01*
X66058600Y-21592415D02*
X66296695Y-21497177D01*
X65915743Y-21782891D02*
X66058600Y-21592415D01*
X66058600Y-21592415D02*
X66201457Y-21782891D01*
X66058600Y-21354320D02*
X66058600Y-21592415D01*
X65820505Y-21497177D02*
X66058600Y-21592415D01*
X66058600Y-21592415D02*
X66296695Y-21497177D01*
X65915743Y-21782891D02*
X66058600Y-21592415D01*
X66058600Y-21592415D02*
X66201457Y-21782891D01*
X83300595Y-49829819D02*
X83300595Y-50639342D01*
X83300595Y-50639342D02*
X83348214Y-50734580D01*
X83348214Y-50734580D02*
X83395833Y-50782200D01*
X83395833Y-50782200D02*
X83491071Y-50829819D01*
X83491071Y-50829819D02*
X83681547Y-50829819D01*
X83681547Y-50829819D02*
X83776785Y-50782200D01*
X83776785Y-50782200D02*
X83824404Y-50734580D01*
X83824404Y-50734580D02*
X83872023Y-50639342D01*
X83872023Y-50639342D02*
X83872023Y-49829819D01*
X84491071Y-50258390D02*
X84395833Y-50210771D01*
X84395833Y-50210771D02*
X84348214Y-50163152D01*
X84348214Y-50163152D02*
X84300595Y-50067914D01*
X84300595Y-50067914D02*
X84300595Y-50020295D01*
X84300595Y-50020295D02*
X84348214Y-49925057D01*
X84348214Y-49925057D02*
X84395833Y-49877438D01*
X84395833Y-49877438D02*
X84491071Y-49829819D01*
X84491071Y-49829819D02*
X84681547Y-49829819D01*
X84681547Y-49829819D02*
X84776785Y-49877438D01*
X84776785Y-49877438D02*
X84824404Y-49925057D01*
X84824404Y-49925057D02*
X84872023Y-50020295D01*
X84872023Y-50020295D02*
X84872023Y-50067914D01*
X84872023Y-50067914D02*
X84824404Y-50163152D01*
X84824404Y-50163152D02*
X84776785Y-50210771D01*
X84776785Y-50210771D02*
X84681547Y-50258390D01*
X84681547Y-50258390D02*
X84491071Y-50258390D01*
X84491071Y-50258390D02*
X84395833Y-50306009D01*
X84395833Y-50306009D02*
X84348214Y-50353628D01*
X84348214Y-50353628D02*
X84300595Y-50448866D01*
X84300595Y-50448866D02*
X84300595Y-50639342D01*
X84300595Y-50639342D02*
X84348214Y-50734580D01*
X84348214Y-50734580D02*
X84395833Y-50782200D01*
X84395833Y-50782200D02*
X84491071Y-50829819D01*
X84491071Y-50829819D02*
X84681547Y-50829819D01*
X84681547Y-50829819D02*
X84776785Y-50782200D01*
X84776785Y-50782200D02*
X84824404Y-50734580D01*
X84824404Y-50734580D02*
X84872023Y-50639342D01*
X84872023Y-50639342D02*
X84872023Y-50448866D01*
X84872023Y-50448866D02*
X84824404Y-50353628D01*
X84824404Y-50353628D02*
X84776785Y-50306009D01*
X84776785Y-50306009D02*
X84681547Y-50258390D01*
X90899819Y-37666666D02*
X90423628Y-37999999D01*
X90899819Y-38238094D02*
X89899819Y-38238094D01*
X89899819Y-38238094D02*
X89899819Y-37857142D01*
X89899819Y-37857142D02*
X89947438Y-37761904D01*
X89947438Y-37761904D02*
X89995057Y-37714285D01*
X89995057Y-37714285D02*
X90090295Y-37666666D01*
X90090295Y-37666666D02*
X90233152Y-37666666D01*
X90233152Y-37666666D02*
X90328390Y-37714285D01*
X90328390Y-37714285D02*
X90376009Y-37761904D01*
X90376009Y-37761904D02*
X90423628Y-37857142D01*
X90423628Y-37857142D02*
X90423628Y-38238094D01*
X89995057Y-37285713D02*
X89947438Y-37238094D01*
X89947438Y-37238094D02*
X89899819Y-37142856D01*
X89899819Y-37142856D02*
X89899819Y-36904761D01*
X89899819Y-36904761D02*
X89947438Y-36809523D01*
X89947438Y-36809523D02*
X89995057Y-36761904D01*
X89995057Y-36761904D02*
X90090295Y-36714285D01*
X90090295Y-36714285D02*
X90185533Y-36714285D01*
X90185533Y-36714285D02*
X90328390Y-36761904D01*
X90328390Y-36761904D02*
X90899819Y-37333332D01*
X90899819Y-37333332D02*
X90899819Y-36714285D01*
X59454819Y-62738094D02*
X58454819Y-62738094D01*
X58454819Y-62738094D02*
X58454819Y-62499999D01*
X58454819Y-62499999D02*
X58502438Y-62357142D01*
X58502438Y-62357142D02*
X58597676Y-62261904D01*
X58597676Y-62261904D02*
X58692914Y-62214285D01*
X58692914Y-62214285D02*
X58883390Y-62166666D01*
X58883390Y-62166666D02*
X59026247Y-62166666D01*
X59026247Y-62166666D02*
X59216723Y-62214285D01*
X59216723Y-62214285D02*
X59311961Y-62261904D01*
X59311961Y-62261904D02*
X59407200Y-62357142D01*
X59407200Y-62357142D02*
X59454819Y-62499999D01*
X59454819Y-62499999D02*
X59454819Y-62738094D01*
X58454819Y-61309523D02*
X58454819Y-61499999D01*
X58454819Y-61499999D02*
X58502438Y-61595237D01*
X58502438Y-61595237D02*
X58550057Y-61642856D01*
X58550057Y-61642856D02*
X58692914Y-61738094D01*
X58692914Y-61738094D02*
X58883390Y-61785713D01*
X58883390Y-61785713D02*
X59264342Y-61785713D01*
X59264342Y-61785713D02*
X59359580Y-61738094D01*
X59359580Y-61738094D02*
X59407200Y-61690475D01*
X59407200Y-61690475D02*
X59454819Y-61595237D01*
X59454819Y-61595237D02*
X59454819Y-61404761D01*
X59454819Y-61404761D02*
X59407200Y-61309523D01*
X59407200Y-61309523D02*
X59359580Y-61261904D01*
X59359580Y-61261904D02*
X59264342Y-61214285D01*
X59264342Y-61214285D02*
X59026247Y-61214285D01*
X59026247Y-61214285D02*
X58931009Y-61261904D01*
X58931009Y-61261904D02*
X58883390Y-61309523D01*
X58883390Y-61309523D02*
X58835771Y-61404761D01*
X58835771Y-61404761D02*
X58835771Y-61595237D01*
X58835771Y-61595237D02*
X58883390Y-61690475D01*
X58883390Y-61690475D02*
X58931009Y-61738094D01*
X58931009Y-61738094D02*
X59026247Y-61785713D01*
X65407200Y-73809523D02*
X65454819Y-73666666D01*
X65454819Y-73666666D02*
X65454819Y-73428571D01*
X65454819Y-73428571D02*
X65407200Y-73333333D01*
X65407200Y-73333333D02*
X65359580Y-73285714D01*
X65359580Y-73285714D02*
X65264342Y-73238095D01*
X65264342Y-73238095D02*
X65169104Y-73238095D01*
X65169104Y-73238095D02*
X65073866Y-73285714D01*
X65073866Y-73285714D02*
X65026247Y-73333333D01*
X65026247Y-73333333D02*
X64978628Y-73428571D01*
X64978628Y-73428571D02*
X64931009Y-73619047D01*
X64931009Y-73619047D02*
X64883390Y-73714285D01*
X64883390Y-73714285D02*
X64835771Y-73761904D01*
X64835771Y-73761904D02*
X64740533Y-73809523D01*
X64740533Y-73809523D02*
X64645295Y-73809523D01*
X64645295Y-73809523D02*
X64550057Y-73761904D01*
X64550057Y-73761904D02*
X64502438Y-73714285D01*
X64502438Y-73714285D02*
X64454819Y-73619047D01*
X64454819Y-73619047D02*
X64454819Y-73380952D01*
X64454819Y-73380952D02*
X64502438Y-73238095D01*
X64454819Y-72904761D02*
X65454819Y-72666666D01*
X65454819Y-72666666D02*
X64740533Y-72476190D01*
X64740533Y-72476190D02*
X65454819Y-72285714D01*
X65454819Y-72285714D02*
X64454819Y-72047619D01*
X65454819Y-71142857D02*
X65454819Y-71714285D01*
X65454819Y-71428571D02*
X64454819Y-71428571D01*
X64454819Y-71428571D02*
X64597676Y-71523809D01*
X64597676Y-71523809D02*
X64692914Y-71619047D01*
X64692914Y-71619047D02*
X64740533Y-71714285D01*
X64454819Y-70809523D02*
X64454819Y-70190476D01*
X64454819Y-70190476D02*
X64835771Y-70523809D01*
X64835771Y-70523809D02*
X64835771Y-70380952D01*
X64835771Y-70380952D02*
X64883390Y-70285714D01*
X64883390Y-70285714D02*
X64931009Y-70238095D01*
X64931009Y-70238095D02*
X65026247Y-70190476D01*
X65026247Y-70190476D02*
X65264342Y-70190476D01*
X65264342Y-70190476D02*
X65359580Y-70238095D01*
X65359580Y-70238095D02*
X65407200Y-70285714D01*
X65407200Y-70285714D02*
X65454819Y-70380952D01*
X65454819Y-70380952D02*
X65454819Y-70666666D01*
X65454819Y-70666666D02*
X65407200Y-70761904D01*
X65407200Y-70761904D02*
X65359580Y-70809523D01*
X69592800Y-80190476D02*
X69545180Y-80333333D01*
X69545180Y-80333333D02*
X69545180Y-80571428D01*
X69545180Y-80571428D02*
X69592800Y-80666666D01*
X69592800Y-80666666D02*
X69640419Y-80714285D01*
X69640419Y-80714285D02*
X69735657Y-80761904D01*
X69735657Y-80761904D02*
X69830895Y-80761904D01*
X69830895Y-80761904D02*
X69926133Y-80714285D01*
X69926133Y-80714285D02*
X69973752Y-80666666D01*
X69973752Y-80666666D02*
X70021371Y-80571428D01*
X70021371Y-80571428D02*
X70068990Y-80380952D01*
X70068990Y-80380952D02*
X70116609Y-80285714D01*
X70116609Y-80285714D02*
X70164228Y-80238095D01*
X70164228Y-80238095D02*
X70259466Y-80190476D01*
X70259466Y-80190476D02*
X70354704Y-80190476D01*
X70354704Y-80190476D02*
X70449942Y-80238095D01*
X70449942Y-80238095D02*
X70497561Y-80285714D01*
X70497561Y-80285714D02*
X70545180Y-80380952D01*
X70545180Y-80380952D02*
X70545180Y-80619047D01*
X70545180Y-80619047D02*
X70497561Y-80761904D01*
X70545180Y-81095238D02*
X69545180Y-81333333D01*
X69545180Y-81333333D02*
X70259466Y-81523809D01*
X70259466Y-81523809D02*
X69545180Y-81714285D01*
X69545180Y-81714285D02*
X70545180Y-81952381D01*
X69545180Y-82857142D02*
X69545180Y-82285714D01*
X69545180Y-82571428D02*
X70545180Y-82571428D01*
X70545180Y-82571428D02*
X70402323Y-82476190D01*
X70402323Y-82476190D02*
X70307085Y-82380952D01*
X70307085Y-82380952D02*
X70259466Y-82285714D01*
X69545180Y-83333333D02*
X69545180Y-83523809D01*
X69545180Y-83523809D02*
X69592800Y-83619047D01*
X69592800Y-83619047D02*
X69640419Y-83666666D01*
X69640419Y-83666666D02*
X69783276Y-83761904D01*
X69783276Y-83761904D02*
X69973752Y-83809523D01*
X69973752Y-83809523D02*
X70354704Y-83809523D01*
X70354704Y-83809523D02*
X70449942Y-83761904D01*
X70449942Y-83761904D02*
X70497561Y-83714285D01*
X70497561Y-83714285D02*
X70545180Y-83619047D01*
X70545180Y-83619047D02*
X70545180Y-83428571D01*
X70545180Y-83428571D02*
X70497561Y-83333333D01*
X70497561Y-83333333D02*
X70449942Y-83285714D01*
X70449942Y-83285714D02*
X70354704Y-83238095D01*
X70354704Y-83238095D02*
X70116609Y-83238095D01*
X70116609Y-83238095D02*
X70021371Y-83285714D01*
X70021371Y-83285714D02*
X69973752Y-83333333D01*
X69973752Y-83333333D02*
X69926133Y-83428571D01*
X69926133Y-83428571D02*
X69926133Y-83619047D01*
X69926133Y-83619047D02*
X69973752Y-83714285D01*
X69973752Y-83714285D02*
X70021371Y-83761904D01*
X70021371Y-83761904D02*
X70116609Y-83809523D01*
X31357142Y-33274819D02*
X31023809Y-32798628D01*
X30785714Y-33274819D02*
X30785714Y-32274819D01*
X30785714Y-32274819D02*
X31166666Y-32274819D01*
X31166666Y-32274819D02*
X31261904Y-32322438D01*
X31261904Y-32322438D02*
X31309523Y-32370057D01*
X31309523Y-32370057D02*
X31357142Y-32465295D01*
X31357142Y-32465295D02*
X31357142Y-32608152D01*
X31357142Y-32608152D02*
X31309523Y-32703390D01*
X31309523Y-32703390D02*
X31261904Y-32751009D01*
X31261904Y-32751009D02*
X31166666Y-32798628D01*
X31166666Y-32798628D02*
X30785714Y-32798628D01*
X32309523Y-33274819D02*
X31738095Y-33274819D01*
X32023809Y-33274819D02*
X32023809Y-32274819D01*
X32023809Y-32274819D02*
X31928571Y-32417676D01*
X31928571Y-32417676D02*
X31833333Y-32512914D01*
X31833333Y-32512914D02*
X31738095Y-32560533D01*
X33261904Y-33274819D02*
X32690476Y-33274819D01*
X32976190Y-33274819D02*
X32976190Y-32274819D01*
X32976190Y-32274819D02*
X32880952Y-32417676D01*
X32880952Y-32417676D02*
X32785714Y-32512914D01*
X32785714Y-32512914D02*
X32690476Y-32560533D01*
X74454819Y-62738094D02*
X73454819Y-62738094D01*
X73454819Y-62738094D02*
X73454819Y-62499999D01*
X73454819Y-62499999D02*
X73502438Y-62357142D01*
X73502438Y-62357142D02*
X73597676Y-62261904D01*
X73597676Y-62261904D02*
X73692914Y-62214285D01*
X73692914Y-62214285D02*
X73883390Y-62166666D01*
X73883390Y-62166666D02*
X74026247Y-62166666D01*
X74026247Y-62166666D02*
X74216723Y-62214285D01*
X74216723Y-62214285D02*
X74311961Y-62261904D01*
X74311961Y-62261904D02*
X74407200Y-62357142D01*
X74407200Y-62357142D02*
X74454819Y-62499999D01*
X74454819Y-62499999D02*
X74454819Y-62738094D01*
X73454819Y-61833332D02*
X73454819Y-61166666D01*
X73454819Y-61166666D02*
X74454819Y-61595237D01*
X74607142Y-40212319D02*
X74273809Y-39736128D01*
X74035714Y-40212319D02*
X74035714Y-39212319D01*
X74035714Y-39212319D02*
X74416666Y-39212319D01*
X74416666Y-39212319D02*
X74511904Y-39259938D01*
X74511904Y-39259938D02*
X74559523Y-39307557D01*
X74559523Y-39307557D02*
X74607142Y-39402795D01*
X74607142Y-39402795D02*
X74607142Y-39545652D01*
X74607142Y-39545652D02*
X74559523Y-39640890D01*
X74559523Y-39640890D02*
X74511904Y-39688509D01*
X74511904Y-39688509D02*
X74416666Y-39736128D01*
X74416666Y-39736128D02*
X74035714Y-39736128D01*
X75559523Y-40212319D02*
X74988095Y-40212319D01*
X75273809Y-40212319D02*
X75273809Y-39212319D01*
X75273809Y-39212319D02*
X75178571Y-39355176D01*
X75178571Y-39355176D02*
X75083333Y-39450414D01*
X75083333Y-39450414D02*
X74988095Y-39498033D01*
X75940476Y-39307557D02*
X75988095Y-39259938D01*
X75988095Y-39259938D02*
X76083333Y-39212319D01*
X76083333Y-39212319D02*
X76321428Y-39212319D01*
X76321428Y-39212319D02*
X76416666Y-39259938D01*
X76416666Y-39259938D02*
X76464285Y-39307557D01*
X76464285Y-39307557D02*
X76511904Y-39402795D01*
X76511904Y-39402795D02*
X76511904Y-39498033D01*
X76511904Y-39498033D02*
X76464285Y-39640890D01*
X76464285Y-39640890D02*
X75892857Y-40212319D01*
X75892857Y-40212319D02*
X76511904Y-40212319D01*
X31232142Y-38962319D02*
X30898809Y-38486128D01*
X30660714Y-38962319D02*
X30660714Y-37962319D01*
X30660714Y-37962319D02*
X31041666Y-37962319D01*
X31041666Y-37962319D02*
X31136904Y-38009938D01*
X31136904Y-38009938D02*
X31184523Y-38057557D01*
X31184523Y-38057557D02*
X31232142Y-38152795D01*
X31232142Y-38152795D02*
X31232142Y-38295652D01*
X31232142Y-38295652D02*
X31184523Y-38390890D01*
X31184523Y-38390890D02*
X31136904Y-38438509D01*
X31136904Y-38438509D02*
X31041666Y-38486128D01*
X31041666Y-38486128D02*
X30660714Y-38486128D01*
X32184523Y-38962319D02*
X31613095Y-38962319D01*
X31898809Y-38962319D02*
X31898809Y-37962319D01*
X31898809Y-37962319D02*
X31803571Y-38105176D01*
X31803571Y-38105176D02*
X31708333Y-38200414D01*
X31708333Y-38200414D02*
X31613095Y-38248033D01*
X33041666Y-37962319D02*
X32851190Y-37962319D01*
X32851190Y-37962319D02*
X32755952Y-38009938D01*
X32755952Y-38009938D02*
X32708333Y-38057557D01*
X32708333Y-38057557D02*
X32613095Y-38200414D01*
X32613095Y-38200414D02*
X32565476Y-38390890D01*
X32565476Y-38390890D02*
X32565476Y-38771842D01*
X32565476Y-38771842D02*
X32613095Y-38867080D01*
X32613095Y-38867080D02*
X32660714Y-38914700D01*
X32660714Y-38914700D02*
X32755952Y-38962319D01*
X32755952Y-38962319D02*
X32946428Y-38962319D01*
X32946428Y-38962319D02*
X33041666Y-38914700D01*
X33041666Y-38914700D02*
X33089285Y-38867080D01*
X33089285Y-38867080D02*
X33136904Y-38771842D01*
X33136904Y-38771842D02*
X33136904Y-38533747D01*
X33136904Y-38533747D02*
X33089285Y-38438509D01*
X33089285Y-38438509D02*
X33041666Y-38390890D01*
X33041666Y-38390890D02*
X32946428Y-38343271D01*
X32946428Y-38343271D02*
X32755952Y-38343271D01*
X32755952Y-38343271D02*
X32660714Y-38390890D01*
X32660714Y-38390890D02*
X32613095Y-38438509D01*
X32613095Y-38438509D02*
X32565476Y-38533747D01*
X44764819Y-28858333D02*
X45479104Y-28858333D01*
X45479104Y-28858333D02*
X45621961Y-28905952D01*
X45621961Y-28905952D02*
X45717200Y-29001190D01*
X45717200Y-29001190D02*
X45764819Y-29144047D01*
X45764819Y-29144047D02*
X45764819Y-29239285D01*
X45764819Y-27858333D02*
X45764819Y-28429761D01*
X45764819Y-28144047D02*
X44764819Y-28144047D01*
X44764819Y-28144047D02*
X44907676Y-28239285D01*
X44907676Y-28239285D02*
X45002914Y-28334523D01*
X45002914Y-28334523D02*
X45050533Y-28429761D01*
X27454819Y-62738094D02*
X26454819Y-62738094D01*
X26454819Y-62738094D02*
X26454819Y-62499999D01*
X26454819Y-62499999D02*
X26502438Y-62357142D01*
X26502438Y-62357142D02*
X26597676Y-62261904D01*
X26597676Y-62261904D02*
X26692914Y-62214285D01*
X26692914Y-62214285D02*
X26883390Y-62166666D01*
X26883390Y-62166666D02*
X27026247Y-62166666D01*
X27026247Y-62166666D02*
X27216723Y-62214285D01*
X27216723Y-62214285D02*
X27311961Y-62261904D01*
X27311961Y-62261904D02*
X27407200Y-62357142D01*
X27407200Y-62357142D02*
X27454819Y-62499999D01*
X27454819Y-62499999D02*
X27454819Y-62738094D01*
X26788152Y-61309523D02*
X27454819Y-61309523D01*
X26407200Y-61547618D02*
X27121485Y-61785713D01*
X27121485Y-61785713D02*
X27121485Y-61166666D01*
X52513809Y-36184878D02*
X52513809Y-36661069D01*
X52180476Y-35661069D02*
X52513809Y-36184878D01*
X52513809Y-36184878D02*
X52847142Y-35661069D01*
X53704285Y-36661069D02*
X53132857Y-36661069D01*
X53418571Y-36661069D02*
X53418571Y-35661069D01*
X53418571Y-35661069D02*
X53323333Y-35803926D01*
X53323333Y-35803926D02*
X53228095Y-35899164D01*
X53228095Y-35899164D02*
X53132857Y-35946783D01*
X49454819Y-73214285D02*
X48454819Y-73214285D01*
X48454819Y-73214285D02*
X48454819Y-72976190D01*
X48454819Y-72976190D02*
X48502438Y-72833333D01*
X48502438Y-72833333D02*
X48597676Y-72738095D01*
X48597676Y-72738095D02*
X48692914Y-72690476D01*
X48692914Y-72690476D02*
X48883390Y-72642857D01*
X48883390Y-72642857D02*
X49026247Y-72642857D01*
X49026247Y-72642857D02*
X49216723Y-72690476D01*
X49216723Y-72690476D02*
X49311961Y-72738095D01*
X49311961Y-72738095D02*
X49407200Y-72833333D01*
X49407200Y-72833333D02*
X49454819Y-72976190D01*
X49454819Y-72976190D02*
X49454819Y-73214285D01*
X49454819Y-71690476D02*
X49454819Y-72261904D01*
X49454819Y-71976190D02*
X48454819Y-71976190D01*
X48454819Y-71976190D02*
X48597676Y-72071428D01*
X48597676Y-72071428D02*
X48692914Y-72166666D01*
X48692914Y-72166666D02*
X48740533Y-72261904D01*
X49454819Y-70738095D02*
X49454819Y-71309523D01*
X49454819Y-71023809D02*
X48454819Y-71023809D01*
X48454819Y-71023809D02*
X48597676Y-71119047D01*
X48597676Y-71119047D02*
X48692914Y-71214285D01*
X48692914Y-71214285D02*
X48740533Y-71309523D01*
X69712319Y-34830357D02*
X69236128Y-35163690D01*
X69712319Y-35401785D02*
X68712319Y-35401785D01*
X68712319Y-35401785D02*
X68712319Y-35020833D01*
X68712319Y-35020833D02*
X68759938Y-34925595D01*
X68759938Y-34925595D02*
X68807557Y-34877976D01*
X68807557Y-34877976D02*
X68902795Y-34830357D01*
X68902795Y-34830357D02*
X69045652Y-34830357D01*
X69045652Y-34830357D02*
X69140890Y-34877976D01*
X69140890Y-34877976D02*
X69188509Y-34925595D01*
X69188509Y-34925595D02*
X69236128Y-35020833D01*
X69236128Y-35020833D02*
X69236128Y-35401785D01*
X69712319Y-33877976D02*
X69712319Y-34449404D01*
X69712319Y-34163690D02*
X68712319Y-34163690D01*
X68712319Y-34163690D02*
X68855176Y-34258928D01*
X68855176Y-34258928D02*
X68950414Y-34354166D01*
X68950414Y-34354166D02*
X68998033Y-34449404D01*
X69045652Y-33020833D02*
X69712319Y-33020833D01*
X68664700Y-33258928D02*
X69378985Y-33497023D01*
X69378985Y-33497023D02*
X69378985Y-32877976D01*
X43833333Y-25087319D02*
X43500000Y-24611128D01*
X43261905Y-25087319D02*
X43261905Y-24087319D01*
X43261905Y-24087319D02*
X43642857Y-24087319D01*
X43642857Y-24087319D02*
X43738095Y-24134938D01*
X43738095Y-24134938D02*
X43785714Y-24182557D01*
X43785714Y-24182557D02*
X43833333Y-24277795D01*
X43833333Y-24277795D02*
X43833333Y-24420652D01*
X43833333Y-24420652D02*
X43785714Y-24515890D01*
X43785714Y-24515890D02*
X43738095Y-24563509D01*
X43738095Y-24563509D02*
X43642857Y-24611128D01*
X43642857Y-24611128D02*
X43261905Y-24611128D01*
X44166667Y-24087319D02*
X44833333Y-24087319D01*
X44833333Y-24087319D02*
X44404762Y-25087319D01*
X83454819Y-73214285D02*
X82454819Y-73214285D01*
X82454819Y-73214285D02*
X82454819Y-72976190D01*
X82454819Y-72976190D02*
X82502438Y-72833333D01*
X82502438Y-72833333D02*
X82597676Y-72738095D01*
X82597676Y-72738095D02*
X82692914Y-72690476D01*
X82692914Y-72690476D02*
X82883390Y-72642857D01*
X82883390Y-72642857D02*
X83026247Y-72642857D01*
X83026247Y-72642857D02*
X83216723Y-72690476D01*
X83216723Y-72690476D02*
X83311961Y-72738095D01*
X83311961Y-72738095D02*
X83407200Y-72833333D01*
X83407200Y-72833333D02*
X83454819Y-72976190D01*
X83454819Y-72976190D02*
X83454819Y-73214285D01*
X83454819Y-71690476D02*
X83454819Y-72261904D01*
X83454819Y-71976190D02*
X82454819Y-71976190D01*
X82454819Y-71976190D02*
X82597676Y-72071428D01*
X82597676Y-72071428D02*
X82692914Y-72166666D01*
X82692914Y-72166666D02*
X82740533Y-72261904D01*
X82454819Y-70785714D02*
X82454819Y-71261904D01*
X82454819Y-71261904D02*
X82931009Y-71309523D01*
X82931009Y-71309523D02*
X82883390Y-71261904D01*
X82883390Y-71261904D02*
X82835771Y-71166666D01*
X82835771Y-71166666D02*
X82835771Y-70928571D01*
X82835771Y-70928571D02*
X82883390Y-70833333D01*
X82883390Y-70833333D02*
X82931009Y-70785714D01*
X82931009Y-70785714D02*
X83026247Y-70738095D01*
X83026247Y-70738095D02*
X83264342Y-70738095D01*
X83264342Y-70738095D02*
X83359580Y-70785714D01*
X83359580Y-70785714D02*
X83407200Y-70833333D01*
X83407200Y-70833333D02*
X83454819Y-70928571D01*
X83454819Y-70928571D02*
X83454819Y-71166666D01*
X83454819Y-71166666D02*
X83407200Y-71261904D01*
X83407200Y-71261904D02*
X83359580Y-71309523D01*
X82545180Y-80680814D02*
X83545180Y-80680814D01*
X83545180Y-80680814D02*
X83545180Y-80918909D01*
X83545180Y-80918909D02*
X83497561Y-81061766D01*
X83497561Y-81061766D02*
X83402323Y-81157004D01*
X83402323Y-81157004D02*
X83307085Y-81204623D01*
X83307085Y-81204623D02*
X83116609Y-81252242D01*
X83116609Y-81252242D02*
X82973752Y-81252242D01*
X82973752Y-81252242D02*
X82783276Y-81204623D01*
X82783276Y-81204623D02*
X82688038Y-81157004D01*
X82688038Y-81157004D02*
X82592800Y-81061766D01*
X82592800Y-81061766D02*
X82545180Y-80918909D01*
X82545180Y-80918909D02*
X82545180Y-80680814D01*
X83449942Y-81633195D02*
X83497561Y-81680814D01*
X83497561Y-81680814D02*
X83545180Y-81776052D01*
X83545180Y-81776052D02*
X83545180Y-82014147D01*
X83545180Y-82014147D02*
X83497561Y-82109385D01*
X83497561Y-82109385D02*
X83449942Y-82157004D01*
X83449942Y-82157004D02*
X83354704Y-82204623D01*
X83354704Y-82204623D02*
X83259466Y-82204623D01*
X83259466Y-82204623D02*
X83116609Y-82157004D01*
X83116609Y-82157004D02*
X82545180Y-81585576D01*
X82545180Y-81585576D02*
X82545180Y-82204623D01*
X83545180Y-82823671D02*
X83545180Y-82918909D01*
X83545180Y-82918909D02*
X83497561Y-83014147D01*
X83497561Y-83014147D02*
X83449942Y-83061766D01*
X83449942Y-83061766D02*
X83354704Y-83109385D01*
X83354704Y-83109385D02*
X83164228Y-83157004D01*
X83164228Y-83157004D02*
X82926133Y-83157004D01*
X82926133Y-83157004D02*
X82735657Y-83109385D01*
X82735657Y-83109385D02*
X82640419Y-83061766D01*
X82640419Y-83061766D02*
X82592800Y-83014147D01*
X82592800Y-83014147D02*
X82545180Y-82918909D01*
X82545180Y-82918909D02*
X82545180Y-82823671D01*
X82545180Y-82823671D02*
X82592800Y-82728433D01*
X82592800Y-82728433D02*
X82640419Y-82680814D01*
X82640419Y-82680814D02*
X82735657Y-82633195D01*
X82735657Y-82633195D02*
X82926133Y-82585576D01*
X82926133Y-82585576D02*
X83164228Y-82585576D01*
X83164228Y-82585576D02*
X83354704Y-82633195D01*
X83354704Y-82633195D02*
X83449942Y-82680814D01*
X83449942Y-82680814D02*
X83497561Y-82728433D01*
X83497561Y-82728433D02*
X83545180Y-82823671D01*
X31357142Y-20634819D02*
X31023809Y-20158628D01*
X30785714Y-20634819D02*
X30785714Y-19634819D01*
X30785714Y-19634819D02*
X31166666Y-19634819D01*
X31166666Y-19634819D02*
X31261904Y-19682438D01*
X31261904Y-19682438D02*
X31309523Y-19730057D01*
X31309523Y-19730057D02*
X31357142Y-19825295D01*
X31357142Y-19825295D02*
X31357142Y-19968152D01*
X31357142Y-19968152D02*
X31309523Y-20063390D01*
X31309523Y-20063390D02*
X31261904Y-20111009D01*
X31261904Y-20111009D02*
X31166666Y-20158628D01*
X31166666Y-20158628D02*
X30785714Y-20158628D01*
X32309523Y-20634819D02*
X31738095Y-20634819D01*
X32023809Y-20634819D02*
X32023809Y-19634819D01*
X32023809Y-19634819D02*
X31928571Y-19777676D01*
X31928571Y-19777676D02*
X31833333Y-19872914D01*
X31833333Y-19872914D02*
X31738095Y-19920533D01*
X32928571Y-19634819D02*
X33023809Y-19634819D01*
X33023809Y-19634819D02*
X33119047Y-19682438D01*
X33119047Y-19682438D02*
X33166666Y-19730057D01*
X33166666Y-19730057D02*
X33214285Y-19825295D01*
X33214285Y-19825295D02*
X33261904Y-20015771D01*
X33261904Y-20015771D02*
X33261904Y-20253866D01*
X33261904Y-20253866D02*
X33214285Y-20444342D01*
X33214285Y-20444342D02*
X33166666Y-20539580D01*
X33166666Y-20539580D02*
X33119047Y-20587200D01*
X33119047Y-20587200D02*
X33023809Y-20634819D01*
X33023809Y-20634819D02*
X32928571Y-20634819D01*
X32928571Y-20634819D02*
X32833333Y-20587200D01*
X32833333Y-20587200D02*
X32785714Y-20539580D01*
X32785714Y-20539580D02*
X32738095Y-20444342D01*
X32738095Y-20444342D02*
X32690476Y-20253866D01*
X32690476Y-20253866D02*
X32690476Y-20015771D01*
X32690476Y-20015771D02*
X32738095Y-19825295D01*
X32738095Y-19825295D02*
X32785714Y-19730057D01*
X32785714Y-19730057D02*
X32833333Y-19682438D01*
X32833333Y-19682438D02*
X32928571Y-19634819D01*
X83454819Y-62738094D02*
X82454819Y-62738094D01*
X82454819Y-62738094D02*
X82454819Y-62499999D01*
X82454819Y-62499999D02*
X82502438Y-62357142D01*
X82502438Y-62357142D02*
X82597676Y-62261904D01*
X82597676Y-62261904D02*
X82692914Y-62214285D01*
X82692914Y-62214285D02*
X82883390Y-62166666D01*
X82883390Y-62166666D02*
X83026247Y-62166666D01*
X83026247Y-62166666D02*
X83216723Y-62214285D01*
X83216723Y-62214285D02*
X83311961Y-62261904D01*
X83311961Y-62261904D02*
X83407200Y-62357142D01*
X83407200Y-62357142D02*
X83454819Y-62499999D01*
X83454819Y-62499999D02*
X83454819Y-62738094D01*
X82883390Y-61595237D02*
X82835771Y-61690475D01*
X82835771Y-61690475D02*
X82788152Y-61738094D01*
X82788152Y-61738094D02*
X82692914Y-61785713D01*
X82692914Y-61785713D02*
X82645295Y-61785713D01*
X82645295Y-61785713D02*
X82550057Y-61738094D01*
X82550057Y-61738094D02*
X82502438Y-61690475D01*
X82502438Y-61690475D02*
X82454819Y-61595237D01*
X82454819Y-61595237D02*
X82454819Y-61404761D01*
X82454819Y-61404761D02*
X82502438Y-61309523D01*
X82502438Y-61309523D02*
X82550057Y-61261904D01*
X82550057Y-61261904D02*
X82645295Y-61214285D01*
X82645295Y-61214285D02*
X82692914Y-61214285D01*
X82692914Y-61214285D02*
X82788152Y-61261904D01*
X82788152Y-61261904D02*
X82835771Y-61309523D01*
X82835771Y-61309523D02*
X82883390Y-61404761D01*
X82883390Y-61404761D02*
X82883390Y-61595237D01*
X82883390Y-61595237D02*
X82931009Y-61690475D01*
X82931009Y-61690475D02*
X82978628Y-61738094D01*
X82978628Y-61738094D02*
X83073866Y-61785713D01*
X83073866Y-61785713D02*
X83264342Y-61785713D01*
X83264342Y-61785713D02*
X83359580Y-61738094D01*
X83359580Y-61738094D02*
X83407200Y-61690475D01*
X83407200Y-61690475D02*
X83454819Y-61595237D01*
X83454819Y-61595237D02*
X83454819Y-61404761D01*
X83454819Y-61404761D02*
X83407200Y-61309523D01*
X83407200Y-61309523D02*
X83359580Y-61261904D01*
X83359580Y-61261904D02*
X83264342Y-61214285D01*
X83264342Y-61214285D02*
X83073866Y-61214285D01*
X83073866Y-61214285D02*
X82978628Y-61261904D01*
X82978628Y-61261904D02*
X82931009Y-61309523D01*
X82931009Y-61309523D02*
X82883390Y-61404761D01*
X39592800Y-80190476D02*
X39545180Y-80333333D01*
X39545180Y-80333333D02*
X39545180Y-80571428D01*
X39545180Y-80571428D02*
X39592800Y-80666666D01*
X39592800Y-80666666D02*
X39640419Y-80714285D01*
X39640419Y-80714285D02*
X39735657Y-80761904D01*
X39735657Y-80761904D02*
X39830895Y-80761904D01*
X39830895Y-80761904D02*
X39926133Y-80714285D01*
X39926133Y-80714285D02*
X39973752Y-80666666D01*
X39973752Y-80666666D02*
X40021371Y-80571428D01*
X40021371Y-80571428D02*
X40068990Y-80380952D01*
X40068990Y-80380952D02*
X40116609Y-80285714D01*
X40116609Y-80285714D02*
X40164228Y-80238095D01*
X40164228Y-80238095D02*
X40259466Y-80190476D01*
X40259466Y-80190476D02*
X40354704Y-80190476D01*
X40354704Y-80190476D02*
X40449942Y-80238095D01*
X40449942Y-80238095D02*
X40497561Y-80285714D01*
X40497561Y-80285714D02*
X40545180Y-80380952D01*
X40545180Y-80380952D02*
X40545180Y-80619047D01*
X40545180Y-80619047D02*
X40497561Y-80761904D01*
X40545180Y-81095238D02*
X39545180Y-81333333D01*
X39545180Y-81333333D02*
X40259466Y-81523809D01*
X40259466Y-81523809D02*
X39545180Y-81714285D01*
X39545180Y-81714285D02*
X40545180Y-81952381D01*
X39545180Y-82857142D02*
X39545180Y-82285714D01*
X39545180Y-82571428D02*
X40545180Y-82571428D01*
X40545180Y-82571428D02*
X40402323Y-82476190D01*
X40402323Y-82476190D02*
X40307085Y-82380952D01*
X40307085Y-82380952D02*
X40259466Y-82285714D01*
X40545180Y-83190476D02*
X40545180Y-83857142D01*
X40545180Y-83857142D02*
X39545180Y-83428571D01*
X23407200Y-73333332D02*
X23454819Y-73190475D01*
X23454819Y-73190475D02*
X23454819Y-72952380D01*
X23454819Y-72952380D02*
X23407200Y-72857142D01*
X23407200Y-72857142D02*
X23359580Y-72809523D01*
X23359580Y-72809523D02*
X23264342Y-72761904D01*
X23264342Y-72761904D02*
X23169104Y-72761904D01*
X23169104Y-72761904D02*
X23073866Y-72809523D01*
X23073866Y-72809523D02*
X23026247Y-72857142D01*
X23026247Y-72857142D02*
X22978628Y-72952380D01*
X22978628Y-72952380D02*
X22931009Y-73142856D01*
X22931009Y-73142856D02*
X22883390Y-73238094D01*
X22883390Y-73238094D02*
X22835771Y-73285713D01*
X22835771Y-73285713D02*
X22740533Y-73333332D01*
X22740533Y-73333332D02*
X22645295Y-73333332D01*
X22645295Y-73333332D02*
X22550057Y-73285713D01*
X22550057Y-73285713D02*
X22502438Y-73238094D01*
X22502438Y-73238094D02*
X22454819Y-73142856D01*
X22454819Y-73142856D02*
X22454819Y-72904761D01*
X22454819Y-72904761D02*
X22502438Y-72761904D01*
X22454819Y-72428570D02*
X23454819Y-72190475D01*
X23454819Y-72190475D02*
X22740533Y-71999999D01*
X22740533Y-71999999D02*
X23454819Y-71809523D01*
X23454819Y-71809523D02*
X22454819Y-71571428D01*
X23454819Y-71142856D02*
X23454819Y-70952380D01*
X23454819Y-70952380D02*
X23407200Y-70857142D01*
X23407200Y-70857142D02*
X23359580Y-70809523D01*
X23359580Y-70809523D02*
X23216723Y-70714285D01*
X23216723Y-70714285D02*
X23026247Y-70666666D01*
X23026247Y-70666666D02*
X22645295Y-70666666D01*
X22645295Y-70666666D02*
X22550057Y-70714285D01*
X22550057Y-70714285D02*
X22502438Y-70761904D01*
X22502438Y-70761904D02*
X22454819Y-70857142D01*
X22454819Y-70857142D02*
X22454819Y-71047618D01*
X22454819Y-71047618D02*
X22502438Y-71142856D01*
X22502438Y-71142856D02*
X22550057Y-71190475D01*
X22550057Y-71190475D02*
X22645295Y-71238094D01*
X22645295Y-71238094D02*
X22883390Y-71238094D01*
X22883390Y-71238094D02*
X22978628Y-71190475D01*
X22978628Y-71190475D02*
X23026247Y-71142856D01*
X23026247Y-71142856D02*
X23073866Y-71047618D01*
X23073866Y-71047618D02*
X23073866Y-70857142D01*
X23073866Y-70857142D02*
X23026247Y-70761904D01*
X23026247Y-70761904D02*
X22978628Y-70714285D01*
X22978628Y-70714285D02*
X22883390Y-70666666D01*
X40407200Y-63333332D02*
X40454819Y-63190475D01*
X40454819Y-63190475D02*
X40454819Y-62952380D01*
X40454819Y-62952380D02*
X40407200Y-62857142D01*
X40407200Y-62857142D02*
X40359580Y-62809523D01*
X40359580Y-62809523D02*
X40264342Y-62761904D01*
X40264342Y-62761904D02*
X40169104Y-62761904D01*
X40169104Y-62761904D02*
X40073866Y-62809523D01*
X40073866Y-62809523D02*
X40026247Y-62857142D01*
X40026247Y-62857142D02*
X39978628Y-62952380D01*
X39978628Y-62952380D02*
X39931009Y-63142856D01*
X39931009Y-63142856D02*
X39883390Y-63238094D01*
X39883390Y-63238094D02*
X39835771Y-63285713D01*
X39835771Y-63285713D02*
X39740533Y-63333332D01*
X39740533Y-63333332D02*
X39645295Y-63333332D01*
X39645295Y-63333332D02*
X39550057Y-63285713D01*
X39550057Y-63285713D02*
X39502438Y-63238094D01*
X39502438Y-63238094D02*
X39454819Y-63142856D01*
X39454819Y-63142856D02*
X39454819Y-62904761D01*
X39454819Y-62904761D02*
X39502438Y-62761904D01*
X39454819Y-62428570D02*
X40454819Y-62190475D01*
X40454819Y-62190475D02*
X39740533Y-61999999D01*
X39740533Y-61999999D02*
X40454819Y-61809523D01*
X40454819Y-61809523D02*
X39454819Y-61571428D01*
X39454819Y-60714285D02*
X39454819Y-61190475D01*
X39454819Y-61190475D02*
X39931009Y-61238094D01*
X39931009Y-61238094D02*
X39883390Y-61190475D01*
X39883390Y-61190475D02*
X39835771Y-61095237D01*
X39835771Y-61095237D02*
X39835771Y-60857142D01*
X39835771Y-60857142D02*
X39883390Y-60761904D01*
X39883390Y-60761904D02*
X39931009Y-60714285D01*
X39931009Y-60714285D02*
X40026247Y-60666666D01*
X40026247Y-60666666D02*
X40264342Y-60666666D01*
X40264342Y-60666666D02*
X40359580Y-60714285D01*
X40359580Y-60714285D02*
X40407200Y-60761904D01*
X40407200Y-60761904D02*
X40454819Y-60857142D01*
X40454819Y-60857142D02*
X40454819Y-61095237D01*
X40454819Y-61095237D02*
X40407200Y-61190475D01*
X40407200Y-61190475D02*
X40359580Y-61238094D01*
X61454819Y-27166666D02*
X60978628Y-27499999D01*
X61454819Y-27738094D02*
X60454819Y-27738094D01*
X60454819Y-27738094D02*
X60454819Y-27357142D01*
X60454819Y-27357142D02*
X60502438Y-27261904D01*
X60502438Y-27261904D02*
X60550057Y-27214285D01*
X60550057Y-27214285D02*
X60645295Y-27166666D01*
X60645295Y-27166666D02*
X60788152Y-27166666D01*
X60788152Y-27166666D02*
X60883390Y-27214285D01*
X60883390Y-27214285D02*
X60931009Y-27261904D01*
X60931009Y-27261904D02*
X60978628Y-27357142D01*
X60978628Y-27357142D02*
X60978628Y-27738094D01*
X61454819Y-26690475D02*
X61454819Y-26499999D01*
X61454819Y-26499999D02*
X61407200Y-26404761D01*
X61407200Y-26404761D02*
X61359580Y-26357142D01*
X61359580Y-26357142D02*
X61216723Y-26261904D01*
X61216723Y-26261904D02*
X61026247Y-26214285D01*
X61026247Y-26214285D02*
X60645295Y-26214285D01*
X60645295Y-26214285D02*
X60550057Y-26261904D01*
X60550057Y-26261904D02*
X60502438Y-26309523D01*
X60502438Y-26309523D02*
X60454819Y-26404761D01*
X60454819Y-26404761D02*
X60454819Y-26595237D01*
X60454819Y-26595237D02*
X60502438Y-26690475D01*
X60502438Y-26690475D02*
X60550057Y-26738094D01*
X60550057Y-26738094D02*
X60645295Y-26785713D01*
X60645295Y-26785713D02*
X60883390Y-26785713D01*
X60883390Y-26785713D02*
X60978628Y-26738094D01*
X60978628Y-26738094D02*
X61026247Y-26690475D01*
X61026247Y-26690475D02*
X61073866Y-26595237D01*
X61073866Y-26595237D02*
X61073866Y-26404761D01*
X61073866Y-26404761D02*
X61026247Y-26309523D01*
X61026247Y-26309523D02*
X60978628Y-26261904D01*
X60978628Y-26261904D02*
X60883390Y-26214285D01*
X43545180Y-80785714D02*
X44545180Y-80785714D01*
X44545180Y-80785714D02*
X44545180Y-81023809D01*
X44545180Y-81023809D02*
X44497561Y-81166666D01*
X44497561Y-81166666D02*
X44402323Y-81261904D01*
X44402323Y-81261904D02*
X44307085Y-81309523D01*
X44307085Y-81309523D02*
X44116609Y-81357142D01*
X44116609Y-81357142D02*
X43973752Y-81357142D01*
X43973752Y-81357142D02*
X43783276Y-81309523D01*
X43783276Y-81309523D02*
X43688038Y-81261904D01*
X43688038Y-81261904D02*
X43592800Y-81166666D01*
X43592800Y-81166666D02*
X43545180Y-81023809D01*
X43545180Y-81023809D02*
X43545180Y-80785714D01*
X43545180Y-82309523D02*
X43545180Y-81738095D01*
X43545180Y-82023809D02*
X44545180Y-82023809D01*
X44545180Y-82023809D02*
X44402323Y-81928571D01*
X44402323Y-81928571D02*
X44307085Y-81833333D01*
X44307085Y-81833333D02*
X44259466Y-81738095D01*
X44545180Y-82642857D02*
X44545180Y-83309523D01*
X44545180Y-83309523D02*
X43545180Y-82880952D01*
X30045180Y-25666666D02*
X29330895Y-25666666D01*
X29330895Y-25666666D02*
X29188038Y-25619047D01*
X29188038Y-25619047D02*
X29092800Y-25523809D01*
X29092800Y-25523809D02*
X29045180Y-25380952D01*
X29045180Y-25380952D02*
X29045180Y-25285714D01*
X29711847Y-26571428D02*
X29045180Y-26571428D01*
X30092800Y-26333333D02*
X29378514Y-26095238D01*
X29378514Y-26095238D02*
X29378514Y-26714285D01*
X75407200Y-73809523D02*
X75454819Y-73666666D01*
X75454819Y-73666666D02*
X75454819Y-73428571D01*
X75454819Y-73428571D02*
X75407200Y-73333333D01*
X75407200Y-73333333D02*
X75359580Y-73285714D01*
X75359580Y-73285714D02*
X75264342Y-73238095D01*
X75264342Y-73238095D02*
X75169104Y-73238095D01*
X75169104Y-73238095D02*
X75073866Y-73285714D01*
X75073866Y-73285714D02*
X75026247Y-73333333D01*
X75026247Y-73333333D02*
X74978628Y-73428571D01*
X74978628Y-73428571D02*
X74931009Y-73619047D01*
X74931009Y-73619047D02*
X74883390Y-73714285D01*
X74883390Y-73714285D02*
X74835771Y-73761904D01*
X74835771Y-73761904D02*
X74740533Y-73809523D01*
X74740533Y-73809523D02*
X74645295Y-73809523D01*
X74645295Y-73809523D02*
X74550057Y-73761904D01*
X74550057Y-73761904D02*
X74502438Y-73714285D01*
X74502438Y-73714285D02*
X74454819Y-73619047D01*
X74454819Y-73619047D02*
X74454819Y-73380952D01*
X74454819Y-73380952D02*
X74502438Y-73238095D01*
X74454819Y-72904761D02*
X75454819Y-72666666D01*
X75454819Y-72666666D02*
X74740533Y-72476190D01*
X74740533Y-72476190D02*
X75454819Y-72285714D01*
X75454819Y-72285714D02*
X74454819Y-72047619D01*
X75454819Y-71142857D02*
X75454819Y-71714285D01*
X75454819Y-71428571D02*
X74454819Y-71428571D01*
X74454819Y-71428571D02*
X74597676Y-71523809D01*
X74597676Y-71523809D02*
X74692914Y-71619047D01*
X74692914Y-71619047D02*
X74740533Y-71714285D01*
X74788152Y-70285714D02*
X75454819Y-70285714D01*
X74407200Y-70523809D02*
X75121485Y-70761904D01*
X75121485Y-70761904D02*
X75121485Y-70142857D01*
D11*
X27635000Y-77643900D02*
X26365000Y-77643900D01*
X27000000Y-77643900D02*
X27635000Y-78405900D01*
X27000000Y-77643900D02*
X27508000Y-78405900D01*
X27000000Y-77643900D02*
X27381000Y-78405900D01*
X27000000Y-77643900D02*
X27254000Y-78405900D01*
X27000000Y-77643900D02*
X27127000Y-78405900D01*
X27000000Y-77643900D02*
X26873000Y-78405900D01*
X27000000Y-77643900D02*
X26746000Y-78405900D01*
X27000000Y-77643900D02*
X26619000Y-78405900D01*
X27000000Y-77643900D02*
X26492000Y-78405900D01*
X27000000Y-77643900D02*
X26365000Y-78405900D01*
X27635000Y-78405900D02*
X26365000Y-78405900D01*
X27000000Y-78659900D02*
X27000000Y-77389900D01*
X28549400Y-79040900D02*
X28183640Y-79040900D01*
X25816360Y-79040900D02*
X25450600Y-79040900D01*
X25450600Y-79040900D02*
X25450600Y-84959100D01*
X28549400Y-84959100D02*
X28549400Y-79040900D01*
X28183640Y-84959100D02*
X28549400Y-84959100D01*
X25450600Y-84959100D02*
X25816360Y-84959100D01*
D12*
X68000000Y-65200000D02*
X69200000Y-65200000D01*
X70800000Y-65200000D02*
X72000000Y-65200000D01*
X72000000Y-65200000D02*
X72000000Y-58800000D01*
X68000000Y-58800000D02*
X68000000Y-65200000D01*
X69200000Y-58800000D02*
X68000000Y-58800000D01*
X72000000Y-58800000D02*
X70800000Y-58800000D01*
D13*
X85549999Y-45374999D02*
X85549999Y-47349999D01*
X82450001Y-46600001D02*
X82450001Y-47375003D01*
D12*
X29852064Y-41910000D02*
X28397936Y-41910000D01*
X29852064Y-40090000D02*
X28397936Y-40090000D01*
X81972500Y-48772936D02*
X81972500Y-50227064D01*
X80152500Y-48772936D02*
X80152500Y-50227064D01*
X21000000Y-65200000D02*
X22200000Y-65200000D01*
X23800000Y-65200000D02*
X25000000Y-65200000D01*
X25000000Y-65200000D02*
X25000000Y-58800000D01*
X21000000Y-58800000D02*
X21000000Y-65200000D01*
X22200000Y-58800000D02*
X21000000Y-58800000D01*
X25000000Y-58800000D02*
X23800000Y-58800000D01*
X33000000Y-75200000D02*
X34200000Y-75200000D01*
X35800000Y-75200000D02*
X37000000Y-75200000D01*
X37000000Y-75200000D02*
X37000000Y-68800000D01*
X33000000Y-68800000D02*
X33000000Y-75200000D01*
X34200000Y-68800000D02*
X33000000Y-68800000D01*
X37000000Y-68800000D02*
X35800000Y-68800000D01*
X53000000Y-75200000D02*
X54200000Y-75200000D01*
X55800000Y-75200000D02*
X57000000Y-75200000D01*
X57000000Y-75200000D02*
X57000000Y-68800000D01*
X53000000Y-68800000D02*
X53000000Y-75200000D01*
X54200000Y-68800000D02*
X53000000Y-68800000D01*
X57000000Y-68800000D02*
X55800000Y-68800000D01*
X84414564Y-30910000D02*
X82960436Y-30910000D01*
X84414564Y-29090000D02*
X82960436Y-29090000D01*
X85000000Y-75200000D02*
X86200000Y-75200000D01*
X87800000Y-75200000D02*
X89000000Y-75200000D01*
X89000000Y-75200000D02*
X89000000Y-68800000D01*
X85000000Y-68800000D02*
X85000000Y-75200000D01*
X86200000Y-68800000D02*
X85000000Y-68800000D01*
X89000000Y-68800000D02*
X87800000Y-68800000D01*
X53000000Y-65200000D02*
X54200000Y-65200000D01*
X55800000Y-65200000D02*
X57000000Y-65200000D01*
X57000000Y-65200000D02*
X57000000Y-58800000D01*
X53000000Y-58800000D02*
X53000000Y-65200000D01*
X54200000Y-58800000D02*
X53000000Y-58800000D01*
X57000000Y-58800000D02*
X55800000Y-58800000D01*
D14*
X19863000Y-87263900D02*
X89967000Y-87263900D01*
X19863000Y-96611100D02*
X19863000Y-87263900D01*
X89967000Y-87263900D02*
X89967000Y-96611100D01*
X89967000Y-96611100D02*
X19863000Y-96611100D01*
D13*
X19213000Y-94363200D02*
G75*
G03*
X19013000Y-94363200I-100000J0D01*
G01*
X19013000Y-94363200D02*
G75*
G03*
X19213000Y-94363200I100000J0D01*
G01*
D12*
X57000000Y-78800000D02*
X55800000Y-78800000D01*
X54200000Y-78800000D02*
X53000000Y-78800000D01*
X53000000Y-78800000D02*
X53000000Y-85200000D01*
X57000000Y-85200000D02*
X57000000Y-78800000D01*
X55800000Y-85200000D02*
X57000000Y-85200000D01*
X53000000Y-85200000D02*
X54200000Y-85200000D01*
X20100000Y-45600000D02*
X20100000Y-43900000D01*
X23900000Y-45600000D02*
X20100000Y-45600000D01*
X23900000Y-44200000D02*
X23900000Y-45600000D01*
X19800000Y-43900000D02*
X19800000Y-43100000D01*
X20100000Y-43900000D02*
X19800000Y-43900000D01*
X19800000Y-43100000D02*
X20100000Y-43100000D01*
X20100000Y-43100000D02*
X20100000Y-41400000D01*
X18200000Y-43000000D02*
X18700000Y-43000000D01*
X18200000Y-43000000D02*
X18200000Y-42500000D01*
X18700000Y-43000000D02*
X18700000Y-43000000D01*
X19000000Y-43000000D02*
X19500000Y-43000000D01*
X19500000Y-43000000D02*
X19500000Y-43000000D01*
X23900000Y-42800000D02*
X23900000Y-41700000D01*
X18200000Y-42500000D02*
X18200000Y-42500000D01*
X18200000Y-42200000D02*
X18200000Y-41700000D01*
X18200000Y-41700000D02*
X18200000Y-41700000D01*
X23900000Y-41700000D02*
X23900000Y-41700000D01*
X18200000Y-41400000D02*
X18200000Y-40600000D01*
X19800000Y-41400000D02*
X19800000Y-40600000D01*
X20100000Y-41400000D02*
X19800000Y-41400000D01*
X18200000Y-40600000D02*
X18200000Y-40600000D01*
X19800000Y-40600000D02*
X20100000Y-40600000D01*
X20100000Y-40600000D02*
X20100000Y-38900000D01*
X18200000Y-40300000D02*
X18200000Y-40300000D01*
X23900000Y-40300000D02*
X23900000Y-39200000D01*
X18200000Y-39800000D02*
X18200000Y-40300000D01*
X18200000Y-39500000D02*
X18200000Y-39500000D01*
X23900000Y-39200000D02*
X23900000Y-39200000D01*
X18200000Y-39000000D02*
X18200000Y-39500000D01*
X18200000Y-39000000D02*
X18700000Y-39000000D01*
X18700000Y-39000000D02*
X18700000Y-39000000D01*
X19000000Y-39000000D02*
X19500000Y-39000000D01*
X19500000Y-39000000D02*
X19500000Y-39000000D01*
X19800000Y-38900000D02*
X19800000Y-38100000D01*
X20100000Y-38900000D02*
X19800000Y-38900000D01*
X19800000Y-38100000D02*
X20100000Y-38100000D01*
X20100000Y-38100000D02*
X20100000Y-36400000D01*
X20100000Y-36400000D02*
X20100000Y-36400000D01*
X20100000Y-36400000D02*
X23900000Y-36400000D01*
X23900000Y-36400000D02*
X23900000Y-37800000D01*
D11*
X58365000Y-76356100D02*
X59635000Y-76356100D01*
X59000000Y-76356100D02*
X58365000Y-75594100D01*
X59000000Y-76356100D02*
X58492000Y-75594100D01*
X59000000Y-76356100D02*
X58619000Y-75594100D01*
X59000000Y-76356100D02*
X58746000Y-75594100D01*
X59000000Y-76356100D02*
X58873000Y-75594100D01*
X59000000Y-76356100D02*
X59127000Y-75594100D01*
X59000000Y-76356100D02*
X59254000Y-75594100D01*
X59000000Y-76356100D02*
X59381000Y-75594100D01*
X59000000Y-76356100D02*
X59508000Y-75594100D01*
X59000000Y-76356100D02*
X59635000Y-75594100D01*
X58365000Y-75594100D02*
X59635000Y-75594100D01*
X59000000Y-75340100D02*
X59000000Y-76610100D01*
X57450600Y-74959100D02*
X57816360Y-74959100D01*
X60183640Y-74959100D02*
X60549400Y-74959100D01*
X60549400Y-74959100D02*
X60549400Y-69040900D01*
X57450600Y-69040900D02*
X57450600Y-74959100D01*
X57816360Y-69040900D02*
X57450600Y-69040900D01*
X60549400Y-69040900D02*
X60183640Y-69040900D01*
X78365000Y-76356100D02*
X79635000Y-76356100D01*
X79000000Y-76356100D02*
X78365000Y-75594100D01*
X79000000Y-76356100D02*
X78492000Y-75594100D01*
X79000000Y-76356100D02*
X78619000Y-75594100D01*
X79000000Y-76356100D02*
X78746000Y-75594100D01*
X79000000Y-76356100D02*
X78873000Y-75594100D01*
X79000000Y-76356100D02*
X79127000Y-75594100D01*
X79000000Y-76356100D02*
X79254000Y-75594100D01*
X79000000Y-76356100D02*
X79381000Y-75594100D01*
X79000000Y-76356100D02*
X79508000Y-75594100D01*
X79000000Y-76356100D02*
X79635000Y-75594100D01*
X78365000Y-75594100D02*
X79635000Y-75594100D01*
X79000000Y-75340100D02*
X79000000Y-76610100D01*
X77450600Y-74959100D02*
X77816360Y-74959100D01*
X80183640Y-74959100D02*
X80549400Y-74959100D01*
X80549400Y-74959100D02*
X80549400Y-69040900D01*
X77450600Y-69040900D02*
X77450600Y-74959100D01*
X77816360Y-69040900D02*
X77450600Y-69040900D01*
X80549400Y-69040900D02*
X80183640Y-69040900D01*
D12*
X85000000Y-65200000D02*
X86200000Y-65200000D01*
X87800000Y-65200000D02*
X89000000Y-65200000D01*
X89000000Y-65200000D02*
X89000000Y-58800000D01*
X85000000Y-58800000D02*
X85000000Y-65200000D01*
X86200000Y-58800000D02*
X85000000Y-58800000D01*
X89000000Y-58800000D02*
X87800000Y-58800000D01*
D13*
X33092200Y-32501400D02*
X33092200Y-34381000D01*
X30907800Y-33492000D02*
X30907800Y-34508000D01*
D12*
X69960436Y-37027500D02*
X71414564Y-37027500D01*
X69960436Y-38847500D02*
X71414564Y-38847500D01*
D11*
X84888000Y-51724000D02*
X83237000Y-51724000D01*
X84888000Y-52762860D02*
X84888000Y-51724000D01*
X83237000Y-53037139D02*
X83237000Y-53712861D01*
X84888000Y-55026000D02*
X84888000Y-53987140D01*
X83237000Y-55026000D02*
X84888000Y-55026000D01*
X82868700Y-50581000D02*
G75*
G03*
X82614700Y-50581000I-127000J0D01*
G01*
X82614700Y-50581000D02*
G75*
G03*
X82868700Y-50581000I127000J0D01*
G01*
D12*
X64910000Y-25272936D02*
X64910000Y-26727064D01*
X63090000Y-25272936D02*
X63090000Y-26727064D01*
D11*
X59635000Y-77643900D02*
X58365000Y-77643900D01*
X59000000Y-77643900D02*
X59635000Y-78405900D01*
X59000000Y-77643900D02*
X59508000Y-78405900D01*
X59000000Y-77643900D02*
X59381000Y-78405900D01*
X59000000Y-77643900D02*
X59254000Y-78405900D01*
X59000000Y-77643900D02*
X59127000Y-78405900D01*
X59000000Y-77643900D02*
X58873000Y-78405900D01*
X59000000Y-77643900D02*
X58746000Y-78405900D01*
X59000000Y-77643900D02*
X58619000Y-78405900D01*
X59000000Y-77643900D02*
X58492000Y-78405900D01*
X59000000Y-77643900D02*
X58365000Y-78405900D01*
X59635000Y-78405900D02*
X58365000Y-78405900D01*
X59000000Y-78659900D02*
X59000000Y-77389900D01*
X60549400Y-79040900D02*
X60183640Y-79040900D01*
X57816360Y-79040900D02*
X57450600Y-79040900D01*
X57450600Y-79040900D02*
X57450600Y-84959100D01*
X60549400Y-84959100D02*
X60549400Y-79040900D01*
X60183640Y-84959100D02*
X60549400Y-84959100D01*
X57450600Y-84959100D02*
X57816360Y-84959100D01*
D12*
X43000000Y-75200000D02*
X44200000Y-75200000D01*
X45800000Y-75200000D02*
X47000000Y-75200000D01*
X47000000Y-75200000D02*
X47000000Y-68800000D01*
X43000000Y-68800000D02*
X43000000Y-75200000D01*
X44200000Y-68800000D02*
X43000000Y-68800000D01*
X47000000Y-68800000D02*
X45800000Y-68800000D01*
D11*
X26365000Y-76356100D02*
X27635000Y-76356100D01*
X27000000Y-76356100D02*
X26365000Y-75594100D01*
X27000000Y-76356100D02*
X26492000Y-75594100D01*
X27000000Y-76356100D02*
X26619000Y-75594100D01*
X27000000Y-76356100D02*
X26746000Y-75594100D01*
X27000000Y-76356100D02*
X26873000Y-75594100D01*
X27000000Y-76356100D02*
X27127000Y-75594100D01*
X27000000Y-76356100D02*
X27254000Y-75594100D01*
X27000000Y-76356100D02*
X27381000Y-75594100D01*
X27000000Y-76356100D02*
X27508000Y-75594100D01*
X27000000Y-76356100D02*
X27635000Y-75594100D01*
X26365000Y-75594100D02*
X27635000Y-75594100D01*
X27000000Y-75340100D02*
X27000000Y-76610100D01*
X25450600Y-74959100D02*
X25816360Y-74959100D01*
X28183640Y-74959100D02*
X28549400Y-74959100D01*
X28549400Y-74959100D02*
X28549400Y-69040900D01*
X25450600Y-69040900D02*
X25450600Y-74959100D01*
X25816360Y-69040900D02*
X25450600Y-69040900D01*
X28549400Y-69040900D02*
X28183640Y-69040900D01*
D12*
X25000000Y-78800000D02*
X23800000Y-78800000D01*
X22200000Y-78800000D02*
X21000000Y-78800000D01*
X21000000Y-78800000D02*
X21000000Y-85200000D01*
X25000000Y-85200000D02*
X25000000Y-78800000D01*
X23800000Y-85200000D02*
X25000000Y-85200000D01*
X21000000Y-85200000D02*
X22200000Y-85200000D01*
D11*
X38365000Y-76356100D02*
X39635000Y-76356100D01*
X39000000Y-76356100D02*
X38365000Y-75594100D01*
X39000000Y-76356100D02*
X38492000Y-75594100D01*
X39000000Y-76356100D02*
X38619000Y-75594100D01*
X39000000Y-76356100D02*
X38746000Y-75594100D01*
X39000000Y-76356100D02*
X38873000Y-75594100D01*
X39000000Y-76356100D02*
X39127000Y-75594100D01*
X39000000Y-76356100D02*
X39254000Y-75594100D01*
X39000000Y-76356100D02*
X39381000Y-75594100D01*
X39000000Y-76356100D02*
X39508000Y-75594100D01*
X39000000Y-76356100D02*
X39635000Y-75594100D01*
X38365000Y-75594100D02*
X39635000Y-75594100D01*
X39000000Y-75340100D02*
X39000000Y-76610100D01*
X37450600Y-74959100D02*
X37816360Y-74959100D01*
X40183640Y-74959100D02*
X40549400Y-74959100D01*
X40549400Y-74959100D02*
X40549400Y-69040900D01*
X37450600Y-69040900D02*
X37450600Y-74959100D01*
X37816360Y-69040900D02*
X37450600Y-69040900D01*
X40549400Y-69040900D02*
X40183640Y-69040900D01*
X68365000Y-76356100D02*
X69635000Y-76356100D01*
X69000000Y-76356100D02*
X68365000Y-75594100D01*
X69000000Y-76356100D02*
X68492000Y-75594100D01*
X69000000Y-76356100D02*
X68619000Y-75594100D01*
X69000000Y-76356100D02*
X68746000Y-75594100D01*
X69000000Y-76356100D02*
X68873000Y-75594100D01*
X69000000Y-76356100D02*
X69127000Y-75594100D01*
X69000000Y-76356100D02*
X69254000Y-75594100D01*
X69000000Y-76356100D02*
X69381000Y-75594100D01*
X69000000Y-76356100D02*
X69508000Y-75594100D01*
X69000000Y-76356100D02*
X69635000Y-75594100D01*
X68365000Y-75594100D02*
X69635000Y-75594100D01*
X69000000Y-75340100D02*
X69000000Y-76610100D01*
X67450600Y-74959100D02*
X67816360Y-74959100D01*
X70183640Y-74959100D02*
X70549400Y-74959100D01*
X70549400Y-74959100D02*
X70549400Y-69040900D01*
X67450600Y-69040900D02*
X67450600Y-74959100D01*
X67816360Y-69040900D02*
X67450600Y-69040900D01*
X70549400Y-69040900D02*
X70183640Y-69040900D01*
D12*
X72097500Y-33647936D02*
X72097500Y-35102064D01*
X70277500Y-33647936D02*
X70277500Y-35102064D01*
D13*
X83450001Y-37675000D02*
X83450001Y-35500001D01*
X86549999Y-36475000D02*
X86549999Y-35500001D01*
D11*
X74635000Y-77643900D02*
X73365000Y-77643900D01*
X74000000Y-77643900D02*
X74635000Y-78405900D01*
X74000000Y-77643900D02*
X74508000Y-78405900D01*
X74000000Y-77643900D02*
X74381000Y-78405900D01*
X74000000Y-77643900D02*
X74254000Y-78405900D01*
X74000000Y-77643900D02*
X74127000Y-78405900D01*
X74000000Y-77643900D02*
X73873000Y-78405900D01*
X74000000Y-77643900D02*
X73746000Y-78405900D01*
X74000000Y-77643900D02*
X73619000Y-78405900D01*
X74000000Y-77643900D02*
X73492000Y-78405900D01*
X74000000Y-77643900D02*
X73365000Y-78405900D01*
X74635000Y-78405900D02*
X73365000Y-78405900D01*
X74000000Y-78659900D02*
X74000000Y-77389900D01*
X75549400Y-79040900D02*
X75183640Y-79040900D01*
X72816360Y-79040900D02*
X72450600Y-79040900D01*
X72450600Y-79040900D02*
X72450600Y-84959100D01*
X75549400Y-84959100D02*
X75549400Y-79040900D01*
X75183640Y-84959100D02*
X75549400Y-84959100D01*
X72450600Y-84959100D02*
X72816360Y-84959100D01*
D12*
X55610000Y-38391250D02*
X55610000Y-37741250D01*
X55610000Y-31171250D02*
X55610000Y-31821250D01*
X54960000Y-38391250D02*
X55610000Y-38391250D01*
X54960000Y-31171250D02*
X55610000Y-31171250D01*
X49040000Y-38391250D02*
X48390000Y-38391250D01*
X49040000Y-31171250D02*
X48390000Y-31171250D01*
X48390000Y-38391250D02*
X48390000Y-37741250D01*
D11*
X48231400Y-22231400D02*
X48231400Y-22515808D01*
X48231400Y-27484192D02*
X48231400Y-27768600D01*
X48231400Y-27768600D02*
X53768600Y-27768600D01*
X53768600Y-22231400D02*
X48231400Y-22231400D01*
X53768600Y-22515808D02*
X53768600Y-22231400D01*
X53768600Y-27768600D02*
X53768600Y-27484192D01*
D12*
X89000000Y-78800000D02*
X87800000Y-78800000D01*
X86200000Y-78800000D02*
X85000000Y-78800000D01*
X85000000Y-78800000D02*
X85000000Y-85200000D01*
X89000000Y-85200000D02*
X89000000Y-78800000D01*
X87800000Y-85200000D02*
X89000000Y-85200000D01*
X85000000Y-85200000D02*
X86200000Y-85200000D01*
D11*
X43365000Y-66461000D02*
X44635000Y-66461000D01*
X44000000Y-66461000D02*
X43365000Y-65699000D01*
X44000000Y-66461000D02*
X43492000Y-65699000D01*
X44000000Y-66461000D02*
X43619000Y-65699000D01*
X44000000Y-66461000D02*
X43746000Y-65699000D01*
X44000000Y-66461000D02*
X43873000Y-65699000D01*
X44000000Y-66461000D02*
X44127000Y-65699000D01*
X44000000Y-66461000D02*
X44254000Y-65699000D01*
X44000000Y-66461000D02*
X44381000Y-65699000D01*
X44000000Y-66461000D02*
X44508000Y-65699000D01*
X44000000Y-66461000D02*
X44635000Y-65699000D01*
X43365000Y-65699000D02*
X44635000Y-65699000D01*
X44000000Y-65445000D02*
X44000000Y-66715000D01*
X42450600Y-65064000D02*
X42816360Y-65064000D01*
X45183640Y-65064000D02*
X45549400Y-65064000D01*
X45549400Y-65064000D02*
X45549400Y-59145800D01*
X42450600Y-59145800D02*
X42450600Y-65064000D01*
X42816360Y-59145800D02*
X42450600Y-59145800D01*
X45549400Y-59145800D02*
X45183640Y-59145800D01*
X66167400Y-14689228D02*
X66167400Y-31732628D01*
X66167400Y-31732628D02*
X79832600Y-31732628D01*
X79832600Y-14689228D02*
X66167400Y-14689228D01*
X79832600Y-31732628D02*
X79832600Y-14689228D01*
D13*
X82563900Y-49282800D02*
X84443500Y-49282800D01*
X83554500Y-51467200D02*
X84570500Y-51467200D01*
D12*
X89535000Y-36772936D02*
X89535000Y-38227064D01*
X87715000Y-36772936D02*
X87715000Y-38227064D01*
D11*
X58365000Y-66356100D02*
X59635000Y-66356100D01*
X59000000Y-66356100D02*
X58365000Y-65594100D01*
X59000000Y-66356100D02*
X58492000Y-65594100D01*
X59000000Y-66356100D02*
X58619000Y-65594100D01*
X59000000Y-66356100D02*
X58746000Y-65594100D01*
X59000000Y-66356100D02*
X58873000Y-65594100D01*
X59000000Y-66356100D02*
X59127000Y-65594100D01*
X59000000Y-66356100D02*
X59254000Y-65594100D01*
X59000000Y-66356100D02*
X59381000Y-65594100D01*
X59000000Y-66356100D02*
X59508000Y-65594100D01*
X59000000Y-66356100D02*
X59635000Y-65594100D01*
X58365000Y-65594100D02*
X59635000Y-65594100D01*
X59000000Y-65340100D02*
X59000000Y-66610100D01*
X57450600Y-64959100D02*
X57816360Y-64959100D01*
X60183640Y-64959100D02*
X60549400Y-64959100D01*
X60549400Y-64959100D02*
X60549400Y-59040900D01*
X57450600Y-59040900D02*
X57450600Y-64959100D01*
X57816360Y-59040900D02*
X57450600Y-59040900D01*
X60549400Y-59040900D02*
X60183640Y-59040900D01*
D12*
X63000000Y-75200000D02*
X64200000Y-75200000D01*
X65800000Y-75200000D02*
X67000000Y-75200000D01*
X67000000Y-75200000D02*
X67000000Y-68800000D01*
X63000000Y-68800000D02*
X63000000Y-75200000D01*
X64200000Y-68800000D02*
X63000000Y-68800000D01*
X67000000Y-68800000D02*
X65800000Y-68800000D01*
X72000000Y-78800000D02*
X70800000Y-78800000D01*
X69200000Y-78800000D02*
X68000000Y-78800000D01*
X68000000Y-78800000D02*
X68000000Y-85200000D01*
X72000000Y-85200000D02*
X72000000Y-78800000D01*
X70800000Y-85200000D02*
X72000000Y-85200000D01*
X68000000Y-85200000D02*
X69200000Y-85200000D01*
X32727064Y-31910000D02*
X31272936Y-31910000D01*
X32727064Y-30090000D02*
X31272936Y-30090000D01*
D11*
X73365000Y-66356100D02*
X74635000Y-66356100D01*
X74000000Y-66356100D02*
X73365000Y-65594100D01*
X74000000Y-66356100D02*
X73492000Y-65594100D01*
X74000000Y-66356100D02*
X73619000Y-65594100D01*
X74000000Y-66356100D02*
X73746000Y-65594100D01*
X74000000Y-66356100D02*
X73873000Y-65594100D01*
X74000000Y-66356100D02*
X74127000Y-65594100D01*
X74000000Y-66356100D02*
X74254000Y-65594100D01*
X74000000Y-66356100D02*
X74381000Y-65594100D01*
X74000000Y-66356100D02*
X74508000Y-65594100D01*
X74000000Y-66356100D02*
X74635000Y-65594100D01*
X73365000Y-65594100D02*
X74635000Y-65594100D01*
X74000000Y-65340100D02*
X74000000Y-66610100D01*
X72450600Y-64959100D02*
X72816360Y-64959100D01*
X75183640Y-64959100D02*
X75549400Y-64959100D01*
X75549400Y-64959100D02*
X75549400Y-59040900D01*
X72450600Y-59040900D02*
X72450600Y-64959100D01*
X72816360Y-59040900D02*
X72450600Y-59040900D01*
X75549400Y-59040900D02*
X75183640Y-59040900D01*
D12*
X75977064Y-38847500D02*
X74522936Y-38847500D01*
X75977064Y-37027500D02*
X74522936Y-37027500D01*
X32602064Y-37597500D02*
X31147936Y-37597500D01*
X32602064Y-35777500D02*
X31147936Y-35777500D01*
D13*
X39200000Y-25150000D02*
X37800000Y-25150000D01*
X37800000Y-25150000D02*
X37800000Y-50850000D01*
X39200000Y-50850000D02*
X37800000Y-50850000D01*
X44375000Y-28175000D02*
G75*
G03*
X44175000Y-28175000I-100000J0D01*
G01*
X44175000Y-28175000D02*
G75*
G03*
X44375000Y-28175000I100000J0D01*
G01*
D11*
X26365000Y-66356100D02*
X27635000Y-66356100D01*
X27000000Y-66356100D02*
X26365000Y-65594100D01*
X27000000Y-66356100D02*
X26492000Y-65594100D01*
X27000000Y-66356100D02*
X26619000Y-65594100D01*
X27000000Y-66356100D02*
X26746000Y-65594100D01*
X27000000Y-66356100D02*
X26873000Y-65594100D01*
X27000000Y-66356100D02*
X27127000Y-65594100D01*
X27000000Y-66356100D02*
X27254000Y-65594100D01*
X27000000Y-66356100D02*
X27381000Y-65594100D01*
X27000000Y-66356100D02*
X27508000Y-65594100D01*
X27000000Y-66356100D02*
X27635000Y-65594100D01*
X26365000Y-65594100D02*
X27635000Y-65594100D01*
X27000000Y-65340100D02*
X27000000Y-66610100D01*
X25450600Y-64959100D02*
X25816360Y-64959100D01*
X28183640Y-64959100D02*
X28549400Y-64959100D01*
X28549400Y-64959100D02*
X28549400Y-59040900D01*
X25450600Y-59040900D02*
X25450600Y-64959100D01*
X25816360Y-59040900D02*
X25450600Y-59040900D01*
X28549400Y-59040900D02*
X28183640Y-59040900D01*
D12*
X46790000Y-39225000D02*
X53190000Y-39225000D01*
X46790000Y-44275000D02*
X53190000Y-44275000D01*
X46790000Y-39225000D02*
G75*
G03*
X46790000Y-44275000I0J-2525000D01*
G01*
X53190000Y-44275000D02*
G75*
G03*
X53190000Y-39225000I0J2525000D01*
G01*
D11*
X48365000Y-76356100D02*
X49635000Y-76356100D01*
X49000000Y-76356100D02*
X48365000Y-75594100D01*
X49000000Y-76356100D02*
X48492000Y-75594100D01*
X49000000Y-76356100D02*
X48619000Y-75594100D01*
X49000000Y-76356100D02*
X48746000Y-75594100D01*
X49000000Y-76356100D02*
X48873000Y-75594100D01*
X49000000Y-76356100D02*
X49127000Y-75594100D01*
X49000000Y-76356100D02*
X49254000Y-75594100D01*
X49000000Y-76356100D02*
X49381000Y-75594100D01*
X49000000Y-76356100D02*
X49508000Y-75594100D01*
X49000000Y-76356100D02*
X49635000Y-75594100D01*
X48365000Y-75594100D02*
X49635000Y-75594100D01*
X49000000Y-75340100D02*
X49000000Y-76610100D01*
X47450600Y-74959100D02*
X47816360Y-74959100D01*
X50183640Y-74959100D02*
X50549400Y-74959100D01*
X50549400Y-74959100D02*
X50549400Y-69040900D01*
X47450600Y-69040900D02*
X47450600Y-74959100D01*
X47816360Y-69040900D02*
X47450600Y-69040900D01*
X50549400Y-69040900D02*
X50183640Y-69040900D01*
D12*
X68347500Y-33460436D02*
X68347500Y-34914564D01*
X66527500Y-33460436D02*
X66527500Y-34914564D01*
X44727064Y-23722500D02*
X43272936Y-23722500D01*
X44727064Y-21902500D02*
X43272936Y-21902500D01*
D11*
X82365000Y-76356100D02*
X83635000Y-76356100D01*
X83000000Y-76356100D02*
X82365000Y-75594100D01*
X83000000Y-76356100D02*
X82492000Y-75594100D01*
X83000000Y-76356100D02*
X82619000Y-75594100D01*
X83000000Y-76356100D02*
X82746000Y-75594100D01*
X83000000Y-76356100D02*
X82873000Y-75594100D01*
X83000000Y-76356100D02*
X83127000Y-75594100D01*
X83000000Y-76356100D02*
X83254000Y-75594100D01*
X83000000Y-76356100D02*
X83381000Y-75594100D01*
X83000000Y-76356100D02*
X83508000Y-75594100D01*
X83000000Y-76356100D02*
X83635000Y-75594100D01*
X82365000Y-75594100D02*
X83635000Y-75594100D01*
X83000000Y-75340100D02*
X83000000Y-76610100D01*
X81450600Y-74959100D02*
X81816360Y-74959100D01*
X84183640Y-74959100D02*
X84549400Y-74959100D01*
X84549400Y-74959100D02*
X84549400Y-69040900D01*
X81450600Y-69040900D02*
X81450600Y-74959100D01*
X81816360Y-69040900D02*
X81450600Y-69040900D01*
X84549400Y-69040900D02*
X84183640Y-69040900D01*
X83635000Y-77539000D02*
X82365000Y-77539000D01*
X83000000Y-77539000D02*
X83635000Y-78301000D01*
X83000000Y-77539000D02*
X83508000Y-78301000D01*
X83000000Y-77539000D02*
X83381000Y-78301000D01*
X83000000Y-77539000D02*
X83254000Y-78301000D01*
X83000000Y-77539000D02*
X83127000Y-78301000D01*
X83000000Y-77539000D02*
X82873000Y-78301000D01*
X83000000Y-77539000D02*
X82746000Y-78301000D01*
X83000000Y-77539000D02*
X82619000Y-78301000D01*
X83000000Y-77539000D02*
X82492000Y-78301000D01*
X83000000Y-77539000D02*
X82365000Y-78301000D01*
X83635000Y-78301000D02*
X82365000Y-78301000D01*
X83000000Y-78555000D02*
X83000000Y-77285000D01*
X84549400Y-78936000D02*
X84183640Y-78936000D01*
X81816360Y-78936000D02*
X81450600Y-78936000D01*
X81450600Y-78936000D02*
X81450600Y-84854200D01*
X84549400Y-84854200D02*
X84549400Y-78936000D01*
X84183640Y-84854200D02*
X84549400Y-84854200D01*
X81450600Y-84854200D02*
X81816360Y-84854200D01*
D12*
X31272936Y-21090000D02*
X32727064Y-21090000D01*
X31272936Y-22910000D02*
X32727064Y-22910000D01*
D11*
X82365000Y-66356100D02*
X83635000Y-66356100D01*
X83000000Y-66356100D02*
X82365000Y-65594100D01*
X83000000Y-66356100D02*
X82492000Y-65594100D01*
X83000000Y-66356100D02*
X82619000Y-65594100D01*
X83000000Y-66356100D02*
X82746000Y-65594100D01*
X83000000Y-66356100D02*
X82873000Y-65594100D01*
X83000000Y-66356100D02*
X83127000Y-65594100D01*
X83000000Y-66356100D02*
X83254000Y-65594100D01*
X83000000Y-66356100D02*
X83381000Y-65594100D01*
X83000000Y-66356100D02*
X83508000Y-65594100D01*
X83000000Y-66356100D02*
X83635000Y-65594100D01*
X82365000Y-65594100D02*
X83635000Y-65594100D01*
X83000000Y-65340100D02*
X83000000Y-66610100D01*
X81450600Y-64959100D02*
X81816360Y-64959100D01*
X84183640Y-64959100D02*
X84549400Y-64959100D01*
X84549400Y-64959100D02*
X84549400Y-59040900D01*
X81450600Y-59040900D02*
X81450600Y-64959100D01*
X81816360Y-59040900D02*
X81450600Y-59040900D01*
X84549400Y-59040900D02*
X84183640Y-59040900D01*
D12*
X42000000Y-78800000D02*
X40800000Y-78800000D01*
X39200000Y-78800000D02*
X38000000Y-78800000D01*
X38000000Y-78800000D02*
X38000000Y-85200000D01*
X42000000Y-85200000D02*
X42000000Y-78800000D01*
X40800000Y-85200000D02*
X42000000Y-85200000D01*
X38000000Y-85200000D02*
X39200000Y-85200000D01*
X21000000Y-75200000D02*
X22200000Y-75200000D01*
X23800000Y-75200000D02*
X25000000Y-75200000D01*
X25000000Y-75200000D02*
X25000000Y-68800000D01*
X21000000Y-68800000D02*
X21000000Y-75200000D01*
X22200000Y-68800000D02*
X21000000Y-68800000D01*
X25000000Y-68800000D02*
X23800000Y-68800000D01*
X38000000Y-65200000D02*
X39200000Y-65200000D01*
X40800000Y-65200000D02*
X42000000Y-65200000D01*
X42000000Y-65200000D02*
X42000000Y-58800000D01*
X38000000Y-58800000D02*
X38000000Y-65200000D01*
X39200000Y-58800000D02*
X38000000Y-58800000D01*
X42000000Y-58800000D02*
X40800000Y-58800000D01*
X61910000Y-26272936D02*
X61910000Y-27727064D01*
X60090000Y-26272936D02*
X60090000Y-27727064D01*
D11*
X44635000Y-77643900D02*
X43365000Y-77643900D01*
X44000000Y-77643900D02*
X44635000Y-78405900D01*
X44000000Y-77643900D02*
X44508000Y-78405900D01*
X44000000Y-77643900D02*
X44381000Y-78405900D01*
X44000000Y-77643900D02*
X44254000Y-78405900D01*
X44000000Y-77643900D02*
X44127000Y-78405900D01*
X44000000Y-77643900D02*
X43873000Y-78405900D01*
X44000000Y-77643900D02*
X43746000Y-78405900D01*
X44000000Y-77643900D02*
X43619000Y-78405900D01*
X44000000Y-77643900D02*
X43492000Y-78405900D01*
X44000000Y-77643900D02*
X43365000Y-78405900D01*
X44635000Y-78405900D02*
X43365000Y-78405900D01*
X44000000Y-78659900D02*
X44000000Y-77389900D01*
X45549400Y-79040900D02*
X45183640Y-79040900D01*
X42816360Y-79040900D02*
X42450600Y-79040900D01*
X42450600Y-79040900D02*
X42450600Y-84959100D01*
X45549400Y-84959100D02*
X45549400Y-79040900D01*
X45183640Y-84959100D02*
X45549400Y-84959100D01*
X42450600Y-84959100D02*
X42816360Y-84959100D01*
D12*
X24100000Y-30670000D02*
X25800000Y-30670000D01*
X24100000Y-21330000D02*
X25800000Y-21330000D01*
X73000000Y-75200000D02*
X74200000Y-75200000D01*
X75800000Y-75200000D02*
X77000000Y-75200000D01*
X77000000Y-75200000D02*
X77000000Y-68800000D01*
X73000000Y-68800000D02*
X73000000Y-75200000D01*
X74200000Y-68800000D02*
X73000000Y-68800000D01*
X77000000Y-68800000D02*
X75800000Y-68800000D01*
M02*
