G04 #@! TF.GenerationSoftware,KiCad,Pcbnew,7.0.10*
G04 #@! TF.CreationDate,2024-02-13T11:50:04-05:00*
G04 #@! TF.ProjectId,prototype,70726f74-6f74-4797-9065-2e6b69636164,rev?*
G04 #@! TF.SameCoordinates,Original*
G04 #@! TF.FileFunction,Copper,L1,Top*
G04 #@! TF.FilePolarity,Positive*
%FSLAX46Y46*%
G04 Gerber Fmt 4.6, Leading zero omitted, Abs format (unit mm)*
G04 Created by KiCad (PCBNEW 7.0.10) date 2024-02-13 11:50:04*
%MOMM*%
%LPD*%
G01*
G04 APERTURE LIST*
G04 Aperture macros list*
%AMRoundRect*
0 Rectangle with rounded corners*
0 $1 Rounding radius*
0 $2 $3 $4 $5 $6 $7 $8 $9 X,Y pos of 4 corners*
0 Add a 4 corners polygon primitive as box body*
4,1,4,$2,$3,$4,$5,$6,$7,$8,$9,$2,$3,0*
0 Add four circle primitives for the rounded corners*
1,1,$1+$1,$2,$3*
1,1,$1+$1,$4,$5*
1,1,$1+$1,$6,$7*
1,1,$1+$1,$8,$9*
0 Add four rect primitives between the rounded corners*
20,1,$1+$1,$2,$3,$4,$5,0*
20,1,$1+$1,$4,$5,$6,$7,0*
20,1,$1+$1,$6,$7,$8,$9,0*
20,1,$1+$1,$8,$9,$2,$3,0*%
G04 Aperture macros list end*
G04 #@! TA.AperFunction,ComponentPad*
%ADD10R,1.800000X1.800000*%
G04 #@! TD*
G04 #@! TA.AperFunction,ComponentPad*
%ADD11C,1.800000*%
G04 #@! TD*
G04 #@! TA.AperFunction,SMDPad,CuDef*
%ADD12R,1.701800X2.173999*%
G04 #@! TD*
G04 #@! TA.AperFunction,SMDPad,CuDef*
%ADD13R,1.000000X1.250000*%
G04 #@! TD*
G04 #@! TA.AperFunction,SMDPad,CuDef*
%ADD14R,0.599999X1.000000*%
G04 #@! TD*
G04 #@! TA.AperFunction,SMDPad,CuDef*
%ADD15RoundRect,0.250000X0.312500X0.625000X-0.312500X0.625000X-0.312500X-0.625000X0.312500X-0.625000X0*%
G04 #@! TD*
G04 #@! TA.AperFunction,SMDPad,CuDef*
%ADD16RoundRect,0.250000X-0.625000X0.312500X-0.625000X-0.312500X0.625000X-0.312500X0.625000X0.312500X0*%
G04 #@! TD*
G04 #@! TA.AperFunction,ComponentPad*
%ADD17R,1.638300X3.000000*%
G04 #@! TD*
G04 #@! TA.AperFunction,SMDPad,CuDef*
%ADD18R,1.638300X3.000000*%
G04 #@! TD*
G04 #@! TA.AperFunction,SMDPad,CuDef*
%ADD19R,2.500000X1.250000*%
G04 #@! TD*
G04 #@! TA.AperFunction,SMDPad,CuDef*
%ADD20R,0.399999X0.850001*%
G04 #@! TD*
G04 #@! TA.AperFunction,SMDPad,CuDef*
%ADD21RoundRect,0.250000X-0.312500X-0.625000X0.312500X-0.625000X0.312500X0.625000X-0.312500X0.625000X0*%
G04 #@! TD*
G04 #@! TA.AperFunction,SMDPad,CuDef*
%ADD22R,1.117600X0.558800*%
G04 #@! TD*
G04 #@! TA.AperFunction,SMDPad,CuDef*
%ADD23R,3.200000X3.200000*%
G04 #@! TD*
G04 #@! TA.AperFunction,SMDPad,CuDef*
%ADD24RoundRect,0.050000X-0.050000X-0.387500X0.050000X-0.387500X0.050000X0.387500X-0.050000X0.387500X0*%
G04 #@! TD*
G04 #@! TA.AperFunction,SMDPad,CuDef*
%ADD25RoundRect,0.050000X-0.387500X-0.050000X0.387500X-0.050000X0.387500X0.050000X-0.387500X0.050000X0*%
G04 #@! TD*
G04 #@! TA.AperFunction,SMDPad,CuDef*
%ADD26R,1.524000X0.533400*%
G04 #@! TD*
G04 #@! TA.AperFunction,SMDPad,CuDef*
%ADD27R,0.812800X0.406400*%
G04 #@! TD*
G04 #@! TA.AperFunction,SMDPad,CuDef*
%ADD28R,0.406400X0.812800*%
G04 #@! TD*
G04 #@! TA.AperFunction,SMDPad,CuDef*
%ADD29R,5.410200X5.410200*%
G04 #@! TD*
G04 #@! TA.AperFunction,SMDPad,CuDef*
%ADD30R,0.711200X0.711200*%
G04 #@! TD*
G04 #@! TA.AperFunction,SMDPad,CuDef*
%ADD31R,0.850001X0.399999*%
G04 #@! TD*
G04 #@! TA.AperFunction,SMDPad,CuDef*
%ADD32R,1.450000X0.300000*%
G04 #@! TD*
G04 #@! TA.AperFunction,SMDPad,CuDef*
%ADD33R,2.500000X1.800000*%
G04 #@! TD*
G04 #@! TA.AperFunction,ComponentPad*
%ADD34C,1.500000*%
G04 #@! TD*
G04 #@! TA.AperFunction,ComponentPad*
%ADD35O,1.800000X1.000000*%
G04 #@! TD*
G04 #@! TA.AperFunction,ComponentPad*
%ADD36O,2.100000X1.000000*%
G04 #@! TD*
G04 #@! TA.AperFunction,SMDPad,CuDef*
%ADD37RoundRect,0.075000X-0.500000X0.075000X-0.500000X-0.075000X0.500000X-0.075000X0.500000X0.075000X0*%
G04 #@! TD*
G04 #@! TA.AperFunction,SMDPad,CuDef*
%ADD38RoundRect,0.150000X-0.425000X0.150000X-0.425000X-0.150000X0.425000X-0.150000X0.425000X0.150000X0*%
G04 #@! TD*
G04 #@! TA.AperFunction,ComponentPad*
%ADD39C,1.750000*%
G04 #@! TD*
G04 #@! TA.AperFunction,ViaPad*
%ADD40C,0.500000*%
G04 #@! TD*
G04 #@! TA.AperFunction,ViaPad*
%ADD41C,0.800000*%
G04 #@! TD*
G04 #@! TA.AperFunction,Conductor*
%ADD42C,0.125000*%
G04 #@! TD*
G04 APERTURE END LIST*
D10*
X88625000Y-30897500D03*
D11*
X88625000Y-33437500D03*
D12*
X27000000Y-80104900D03*
X27000000Y-83895100D03*
D13*
X70000000Y-65875000D03*
X70000000Y-58125000D03*
D14*
X84950001Y-45624999D03*
X84000000Y-45624999D03*
X83050002Y-45624999D03*
X83050002Y-48374999D03*
X84950001Y-48374999D03*
D15*
X30587500Y-41000000D03*
X27662500Y-41000000D03*
D16*
X81062500Y-48037500D03*
X81062500Y-50962500D03*
D13*
X23000000Y-65875000D03*
X23000000Y-58125000D03*
X35000000Y-75875000D03*
X35000000Y-68125000D03*
X55000000Y-75875000D03*
X55000000Y-68125000D03*
D15*
X85150000Y-30000000D03*
X82225000Y-30000000D03*
D13*
X87000000Y-75875000D03*
X87000000Y-68125000D03*
X55000000Y-65875000D03*
X55000000Y-58125000D03*
D17*
X24435000Y-91937500D03*
X24435000Y-91937500D03*
D18*
X26975000Y-91937500D03*
X29515000Y-91937500D03*
X32055000Y-91937500D03*
X34595000Y-91937500D03*
X37135000Y-91937500D03*
X39675000Y-91937500D03*
X42215000Y-91937500D03*
X44755000Y-91937500D03*
X47295000Y-91937500D03*
X49835000Y-91937500D03*
X52375000Y-91937500D03*
X54915000Y-91937500D03*
X57455000Y-91937500D03*
X59995000Y-91937500D03*
X62535000Y-91937500D03*
X65075000Y-91937500D03*
X67615000Y-91937500D03*
X70155000Y-91937500D03*
X72695000Y-91937500D03*
X75235000Y-91937500D03*
X77775000Y-91937500D03*
X80315000Y-91937500D03*
X82855000Y-91937500D03*
D17*
X85395000Y-91937500D03*
X85395000Y-91937500D03*
D13*
X55000000Y-78125000D03*
X55000000Y-85875000D03*
D19*
X24750000Y-43500000D03*
X24750000Y-41000000D03*
X24750000Y-38500000D03*
D12*
X59000000Y-73895100D03*
X59000000Y-70104900D03*
X79000000Y-73895100D03*
X79000000Y-70104900D03*
D13*
X87000000Y-65875000D03*
X87000000Y-58125000D03*
D20*
X32650001Y-32875001D03*
X32000000Y-32875001D03*
X31350001Y-32875001D03*
X31350001Y-35125002D03*
X32000000Y-35125002D03*
X32650001Y-35125002D03*
D21*
X69225000Y-37937500D03*
X72150000Y-37937500D03*
D22*
X82944900Y-52424999D03*
X82944900Y-54325001D03*
X85180100Y-53375000D03*
D16*
X64000000Y-24537500D03*
X64000000Y-27462500D03*
D12*
X59000000Y-80104900D03*
X59000000Y-83895100D03*
D13*
X45000000Y-75875000D03*
X45000000Y-68125000D03*
D12*
X27000000Y-73895100D03*
X27000000Y-70104900D03*
D13*
X23000000Y-78125000D03*
X23000000Y-85875000D03*
D12*
X39000000Y-73895100D03*
X39000000Y-70104900D03*
X69000000Y-73895100D03*
X69000000Y-70104900D03*
D16*
X71187500Y-32912500D03*
X71187500Y-35837500D03*
D14*
X84049999Y-37375001D03*
X85000000Y-37375001D03*
X85949998Y-37375001D03*
X85949998Y-34625001D03*
X85000000Y-34625001D03*
X84049999Y-34625001D03*
D12*
X74000000Y-80104900D03*
X74000000Y-83895100D03*
D23*
X52000000Y-34781250D03*
D24*
X49400000Y-31343750D03*
X49800000Y-31343750D03*
X50200000Y-31343750D03*
X50600000Y-31343750D03*
X51000000Y-31343750D03*
X51400000Y-31343750D03*
X51800000Y-31343750D03*
X52200000Y-31343750D03*
X52600000Y-31343750D03*
X53000000Y-31343750D03*
X53400000Y-31343750D03*
X53800000Y-31343750D03*
X54200000Y-31343750D03*
X54600000Y-31343750D03*
D25*
X55437500Y-32181250D03*
X55437500Y-32581250D03*
X55437500Y-32981250D03*
X55437500Y-33381250D03*
X55437500Y-33781250D03*
X55437500Y-34181250D03*
X55437500Y-34581250D03*
X55437500Y-34981250D03*
X55437500Y-35381250D03*
X55437500Y-35781250D03*
X55437500Y-36181250D03*
X55437500Y-36581250D03*
X55437500Y-36981250D03*
X55437500Y-37381250D03*
D24*
X54600000Y-38218750D03*
X54200000Y-38218750D03*
X53800000Y-38218750D03*
X53400000Y-38218750D03*
X53000000Y-38218750D03*
X52600000Y-38218750D03*
X52200000Y-38218750D03*
X51800000Y-38218750D03*
X51400000Y-38218750D03*
X51000000Y-38218750D03*
X50600000Y-38218750D03*
X50200000Y-38218750D03*
X49800000Y-38218750D03*
X49400000Y-38218750D03*
D25*
X48562500Y-37381250D03*
X48562500Y-36981250D03*
X48562500Y-36581250D03*
X48562500Y-36181250D03*
X48562500Y-35781250D03*
X48562500Y-35381250D03*
X48562500Y-34981250D03*
X48562500Y-34581250D03*
X48562500Y-34181250D03*
X48562500Y-33781250D03*
X48562500Y-33381250D03*
X48562500Y-32981250D03*
X48562500Y-32581250D03*
X48562500Y-32181250D03*
D26*
X47355100Y-23095000D03*
X47355100Y-24365000D03*
X47355100Y-25635000D03*
X47355100Y-26905000D03*
X54644900Y-26905000D03*
X54644900Y-25635000D03*
X54644900Y-24365000D03*
X54644900Y-23095000D03*
D13*
X87000000Y-78125000D03*
X87000000Y-85875000D03*
D12*
X44000000Y-64000000D03*
X44000000Y-60209800D03*
D27*
X67100002Y-21899501D03*
X67100002Y-22699601D03*
X67100002Y-23499701D03*
X67100002Y-24299801D03*
X67100002Y-25099901D03*
X67100002Y-25900001D03*
X67100002Y-26700101D03*
X67100002Y-27500201D03*
X67100002Y-28300301D03*
X67100002Y-29100401D03*
X67100002Y-29900501D03*
D28*
X68199400Y-30800001D03*
X68999500Y-30800001D03*
X69799600Y-30800001D03*
X70599700Y-30800001D03*
X71399800Y-30800001D03*
X72199900Y-30800001D03*
X73000000Y-30800001D03*
X73800100Y-30800001D03*
X74600200Y-30800001D03*
X75400300Y-30800001D03*
X76200400Y-30800001D03*
X77000500Y-30800001D03*
X77800600Y-30800001D03*
D27*
X78899998Y-29900501D03*
X78899998Y-29100401D03*
X78899998Y-28300301D03*
X78899998Y-27500201D03*
X78899998Y-26700101D03*
X78899998Y-25900001D03*
X78899998Y-25099901D03*
X78899998Y-24299801D03*
X78899998Y-23499701D03*
X78899998Y-22699601D03*
X78899998Y-21899501D03*
D28*
X77800600Y-21000000D03*
X77000500Y-21000000D03*
X76200400Y-21000000D03*
X75400300Y-21000000D03*
X74600200Y-21000000D03*
X73800100Y-21000000D03*
X73000000Y-21000000D03*
X72199900Y-21000000D03*
X71399800Y-21000000D03*
X70599700Y-21000000D03*
X69799600Y-21000000D03*
X68999500Y-21000000D03*
X68199400Y-21000000D03*
D29*
X73000000Y-25900001D03*
D30*
X78950788Y-30850806D03*
X78950788Y-20949200D03*
X67049212Y-30850806D03*
X67049212Y-20949200D03*
D31*
X82937501Y-49724999D03*
X82937501Y-50375000D03*
X82937501Y-51024999D03*
X85187502Y-51024999D03*
X85187502Y-50375000D03*
X85187502Y-49724999D03*
D16*
X88625000Y-36037500D03*
X88625000Y-38962500D03*
D12*
X59000000Y-63895100D03*
X59000000Y-60104900D03*
D13*
X65000000Y-75875000D03*
X65000000Y-68125000D03*
X70000000Y-78125000D03*
X70000000Y-85875000D03*
D15*
X33462500Y-31000000D03*
X30537500Y-31000000D03*
D12*
X74000000Y-63895100D03*
X74000000Y-60104900D03*
D15*
X76712500Y-37937500D03*
X73787500Y-37937500D03*
X33337500Y-36687500D03*
X30412500Y-36687500D03*
D32*
X42875000Y-28250000D03*
X42875000Y-28750000D03*
X42875000Y-29250000D03*
X42875000Y-29750000D03*
X42875000Y-30250000D03*
X42875000Y-30750000D03*
X42875000Y-31250000D03*
X42875000Y-31750000D03*
X42875000Y-32250000D03*
X42875000Y-32750000D03*
X42875000Y-33250000D03*
X42875000Y-33750000D03*
X42875000Y-34250000D03*
X42875000Y-34750000D03*
X42875000Y-35250000D03*
X42875000Y-35750000D03*
X42875000Y-36250000D03*
X42875000Y-36750000D03*
X42875000Y-37250000D03*
X42875000Y-37750000D03*
X42875000Y-38250000D03*
X42875000Y-38750000D03*
X42875000Y-39250000D03*
X42875000Y-39750000D03*
X42875000Y-40250000D03*
X42875000Y-40750000D03*
X42875000Y-41250000D03*
X42875000Y-41750000D03*
X42875000Y-42250000D03*
X42875000Y-42750000D03*
X42875000Y-43250000D03*
X42875000Y-43750000D03*
X42875000Y-44250000D03*
X42875000Y-44750000D03*
X42875000Y-45250000D03*
X42875000Y-45750000D03*
X42875000Y-46250000D03*
X42875000Y-46750000D03*
X42875000Y-47250000D03*
X42875000Y-47750000D03*
D33*
X40750000Y-26650000D03*
X40750000Y-49350000D03*
D12*
X27000000Y-63895100D03*
X27000000Y-60104900D03*
D34*
X47550000Y-41750000D03*
X52430000Y-41750000D03*
D12*
X49000000Y-73895100D03*
X49000000Y-70104900D03*
D16*
X67437500Y-32725000D03*
X67437500Y-35650000D03*
D15*
X45462500Y-22812500D03*
X42537500Y-22812500D03*
D12*
X83000000Y-73895100D03*
X83000000Y-70104900D03*
X83000000Y-80000000D03*
X83000000Y-83790200D03*
D21*
X30537500Y-22000000D03*
X33462500Y-22000000D03*
D12*
X83000000Y-63895100D03*
X83000000Y-60104900D03*
D13*
X40000000Y-78125000D03*
X40000000Y-85875000D03*
X23000000Y-75875000D03*
X23000000Y-68125000D03*
X40000000Y-65875000D03*
X40000000Y-58125000D03*
D16*
X61000000Y-25537500D03*
X61000000Y-28462500D03*
D12*
X44000000Y-80104900D03*
X44000000Y-83895100D03*
D35*
X22925000Y-30320000D03*
D36*
X27105000Y-30320000D03*
D35*
X22925000Y-21680000D03*
D36*
X27105000Y-21680000D03*
D37*
X27680000Y-24250000D03*
X27680000Y-25250000D03*
X27680000Y-26750000D03*
X27680000Y-27750000D03*
D38*
X27680000Y-28400000D03*
X27680000Y-29200000D03*
D37*
X27680000Y-27250000D03*
X27680000Y-26250000D03*
X27680000Y-25750000D03*
X27680000Y-24750000D03*
D38*
X27680000Y-23600000D03*
X27680000Y-22800000D03*
D13*
X75000000Y-75875000D03*
X75000000Y-68125000D03*
D39*
X87450000Y-43020000D03*
X87450000Y-41020000D03*
D40*
X85000000Y-34625000D03*
X79437500Y-35000000D03*
X49000000Y-48125000D03*
X61000000Y-55875000D03*
X38750000Y-52500000D03*
X38125000Y-52500000D03*
X37500000Y-52500000D03*
X36875000Y-52500000D03*
X38750000Y-50375000D03*
X38125000Y-50375000D03*
X37500000Y-50375000D03*
X36875000Y-50375000D03*
X30937500Y-55750000D03*
X37500000Y-45937500D03*
X36875000Y-45937500D03*
X38750000Y-45937500D03*
X38125000Y-45937500D03*
X76687500Y-25625000D03*
X76562500Y-24812500D03*
X47437500Y-28000000D03*
X52000000Y-34781250D03*
X32000000Y-32875001D03*
X67250000Y-52625000D03*
X42687500Y-28000000D03*
X82225000Y-30000000D03*
X30000000Y-24000000D03*
X28687500Y-43750000D03*
X76250000Y-52625000D03*
X44312500Y-34812500D03*
X78937500Y-30875000D03*
X65000000Y-48625000D03*
X85375000Y-56187500D03*
X47000000Y-32000000D03*
X46000000Y-32000000D03*
X53875000Y-30375000D03*
X53250000Y-37375000D03*
X52875000Y-39375000D03*
X53500000Y-39378141D03*
X56937500Y-31937500D03*
X38812500Y-43875000D03*
X29625000Y-45062500D03*
X53437500Y-29756543D03*
X52975562Y-30493891D03*
X45875000Y-28937500D03*
X86937500Y-22625000D03*
X28500000Y-28437500D03*
X31350001Y-32875001D03*
X31937500Y-43812500D03*
X31875000Y-46250000D03*
X77000000Y-31000000D03*
X33312500Y-51812500D03*
X65500000Y-23500000D03*
D41*
X86558801Y-49996299D03*
D40*
X67687500Y-35500000D03*
X74000000Y-48625000D03*
X67750000Y-47312500D03*
X75750000Y-47375000D03*
X70000000Y-47375000D03*
X76750000Y-47437500D03*
X66750000Y-47312500D03*
X31937500Y-31500000D03*
X29174998Y-43100001D03*
X26187500Y-35187500D03*
X70375000Y-35937500D03*
X76187500Y-30562500D03*
X66000000Y-27000000D03*
X39542654Y-43814912D03*
X29659390Y-44409390D03*
X66250000Y-45625000D03*
X75250000Y-46437500D03*
X29062500Y-64062500D03*
X69187500Y-31687500D03*
X29062500Y-77000000D03*
X29687500Y-77000000D03*
X65687500Y-46125000D03*
X30000000Y-87187500D03*
X29687500Y-64062500D03*
X67437500Y-32725000D03*
X74562500Y-46500000D03*
X71000000Y-32812500D03*
X77312500Y-48000000D03*
X72812500Y-32812500D03*
X68312500Y-48000000D03*
X73000000Y-29187500D03*
X73000000Y-29812500D03*
X78875000Y-29875000D03*
X30312500Y-64062500D03*
X31028110Y-53403110D03*
X30312500Y-77000000D03*
X71025190Y-54337690D03*
X70562500Y-53500000D03*
X46125000Y-85062500D03*
X46125000Y-85687500D03*
X45500000Y-85687500D03*
X44875000Y-85687500D03*
X44250000Y-85687500D03*
X43625000Y-85687500D03*
X43000000Y-85687500D03*
X42375000Y-85687500D03*
X41750000Y-85687500D03*
X41125000Y-85687500D03*
X41125000Y-86312500D03*
X41125000Y-86937500D03*
X41125000Y-87562500D03*
X40500000Y-87562500D03*
X39875000Y-87562500D03*
X30000000Y-27000000D03*
X30000000Y-26000000D03*
D41*
X83000000Y-64000000D03*
D40*
X78437500Y-63500000D03*
D41*
X27000000Y-64000000D03*
D40*
X80937500Y-63500000D03*
D41*
X83000000Y-74000000D03*
X83000000Y-80000000D03*
X79000000Y-74000000D03*
X74000000Y-80000000D03*
X74000000Y-64000000D03*
X69000000Y-74000000D03*
X59000000Y-80000000D03*
X59000000Y-74000000D03*
X59000000Y-64000000D03*
X49000000Y-74000000D03*
X44000000Y-80000000D03*
X44000000Y-64000000D03*
X39000000Y-74000000D03*
X27000000Y-80000000D03*
X27000000Y-74000000D03*
D40*
X35028110Y-87159390D03*
X34687500Y-64062500D03*
X34687500Y-77000000D03*
X33750000Y-87187500D03*
X33437500Y-64062500D03*
X33437500Y-77000000D03*
X30937500Y-77000000D03*
X31250000Y-87187500D03*
X30937500Y-64062500D03*
X46500000Y-30375000D03*
X44065640Y-31684360D03*
X35687500Y-33187500D03*
X27625000Y-52375000D03*
X31562500Y-64062500D03*
X31562500Y-77000000D03*
X30937500Y-41062500D03*
X40125000Y-47062500D03*
X33937500Y-36687500D03*
D41*
X49000000Y-56000000D03*
D40*
X32812500Y-77000000D03*
X32812500Y-64062500D03*
X34062500Y-77000000D03*
X34062500Y-64062500D03*
X32187500Y-77000000D03*
X62062500Y-50437500D03*
X32500000Y-87187500D03*
X32187500Y-64062500D03*
X57062500Y-34618755D03*
X64000000Y-28000000D03*
X58229518Y-34167018D03*
X63312500Y-29100401D03*
X62475000Y-25490186D03*
X58000000Y-33000000D03*
X62225000Y-26125000D03*
X58000000Y-32000000D03*
D42*
X85949998Y-37375001D02*
X86937500Y-36387499D01*
X86937500Y-36387499D02*
X86937500Y-32585000D01*
X86937500Y-32585000D02*
X88625000Y-30897500D01*
X88625000Y-36037500D02*
X88625000Y-33437500D01*
X86937500Y-22625000D02*
X86875000Y-22625000D01*
X86875000Y-22625000D02*
X81062500Y-28437500D01*
X81062500Y-28437500D02*
X81062500Y-32187500D01*
X81062500Y-32187500D02*
X83500001Y-34625001D01*
X83500001Y-34625001D02*
X84049999Y-34625001D01*
X85949998Y-34625001D02*
X85949998Y-33699998D01*
X85949998Y-33699998D02*
X85150000Y-32900000D01*
X85150000Y-32900000D02*
X85150000Y-30000000D01*
X82225000Y-30000000D02*
X82225000Y-31625003D01*
X82225000Y-31625003D02*
X85000000Y-34400003D01*
X85000000Y-34400003D02*
X85000000Y-34625000D01*
X87921168Y-39882500D02*
X87921168Y-39666332D01*
X87921168Y-39666332D02*
X88625000Y-38962500D01*
X85000000Y-34625000D02*
X85000000Y-34625001D01*
X84049999Y-37375001D02*
X81812501Y-37375001D01*
X81812501Y-37375001D02*
X79437500Y-35000000D01*
X40750000Y-49350000D02*
X47775000Y-49350000D01*
X47775000Y-49350000D02*
X49000000Y-48125000D01*
X34687500Y-64062500D02*
X34687500Y-60187500D01*
X34687500Y-60187500D02*
X38187500Y-56687500D01*
X38187500Y-56687500D02*
X60187500Y-56687500D01*
X60187500Y-56687500D02*
X61000000Y-55875000D01*
X34062500Y-64062500D02*
X34062500Y-59875000D01*
X34062500Y-59875000D02*
X37937500Y-56000000D01*
X37937500Y-56000000D02*
X49000000Y-56000000D01*
X31562500Y-64062500D02*
X31562500Y-58437500D01*
X31562500Y-58437500D02*
X36875000Y-53125000D01*
X36875000Y-53125000D02*
X36875000Y-52500000D01*
X32187500Y-64062500D02*
X32187500Y-58437500D01*
X32187500Y-58437500D02*
X37500000Y-53125000D01*
X37500000Y-53125000D02*
X37500000Y-52500000D01*
X32812500Y-64062500D02*
X32812500Y-58437500D01*
X32812500Y-58437500D02*
X38125000Y-53125000D01*
X38125000Y-53125000D02*
X38125000Y-52500000D01*
X33437500Y-64062500D02*
X33437500Y-58437500D01*
X33437500Y-58437500D02*
X38750000Y-53125000D01*
X38750000Y-53125000D02*
X38750000Y-52500000D01*
X37500000Y-45937500D02*
X37500000Y-50375000D01*
X38750000Y-45937500D02*
X38750000Y-50375000D01*
X38125000Y-45937500D02*
X38125000Y-50375000D01*
X36875000Y-45937500D02*
X36875000Y-50375000D01*
X30937500Y-64062500D02*
X30937500Y-55750000D01*
X38812500Y-43875000D02*
X38125000Y-43187500D01*
X31500000Y-43187500D02*
X29625000Y-45062500D01*
X38125000Y-43187500D02*
X31500000Y-43187500D01*
X76962501Y-25900001D02*
X76687500Y-25625000D01*
X78899998Y-25900001D02*
X76962501Y-25900001D01*
X76849901Y-25099901D02*
X76562500Y-24812500D01*
X76912401Y-25099901D02*
X76849901Y-25099901D01*
X78899998Y-25099901D02*
X76912401Y-25099901D01*
X57062500Y-34618755D02*
X57024995Y-34581250D01*
X57024995Y-34581250D02*
X55437500Y-34581250D01*
X42025000Y-34750000D02*
X42875000Y-34750000D01*
X32000000Y-33500000D02*
X32000000Y-32875001D01*
X67049212Y-30850806D02*
X67049212Y-29951291D01*
X73900001Y-25900001D02*
X73000000Y-25900001D01*
X74600200Y-21000000D02*
X75400300Y-21000000D01*
X40750000Y-26650000D02*
X41275000Y-26650000D01*
X67049212Y-20949200D02*
X68148600Y-20949200D01*
X30537500Y-31000000D02*
X30537500Y-31000000D01*
X68148600Y-20949200D02*
X68199400Y-21000000D01*
X41975000Y-28250000D02*
X41887500Y-28337500D01*
X27105000Y-29775000D02*
X27105000Y-30320000D01*
X82937501Y-50375000D02*
X83487501Y-50375000D01*
X47355100Y-26905000D02*
X47355100Y-27917600D01*
X28687500Y-36812500D02*
X32000000Y-33500000D01*
X24750000Y-43500000D02*
X28250000Y-43500000D01*
X41887500Y-34662500D02*
X41975000Y-34750000D01*
X78937500Y-30875000D02*
X78850806Y-30850806D01*
X27680000Y-29200000D02*
X27105000Y-29775000D01*
X78950788Y-20949200D02*
X77851400Y-20949200D01*
X27680000Y-22800000D02*
X27105000Y-22225000D01*
X83487501Y-50375000D02*
X84000000Y-49862501D01*
X27105000Y-22225000D02*
X27105000Y-21680000D01*
X67049212Y-29951291D02*
X67100002Y-29900501D01*
X51000000Y-38218750D02*
X51000000Y-35781250D01*
X41887500Y-28337500D02*
X41887500Y-29000000D01*
X73000000Y-25900001D02*
X73000000Y-21000000D01*
X76250000Y-52625000D02*
X67250000Y-52625000D01*
X42875000Y-34750000D02*
X44250000Y-34750000D01*
X28500000Y-43750000D02*
X28250000Y-43500000D01*
X28737500Y-29200000D02*
X30537500Y-31000000D01*
X73800100Y-21000000D02*
X74600200Y-21000000D01*
X69799600Y-29799600D02*
X69450001Y-29450001D01*
X77851400Y-20949200D02*
X77800600Y-21000000D01*
X82944900Y-52424999D02*
X85375000Y-54855099D01*
X82944900Y-52424999D02*
X83012501Y-52424999D01*
X42875000Y-29250000D02*
X41975000Y-29250000D01*
X44250000Y-34750000D02*
X44312500Y-34812500D01*
X28250000Y-43500000D02*
X28687500Y-43062500D01*
X67100002Y-20999990D02*
X67049212Y-20949200D01*
X27680000Y-22800000D02*
X29737500Y-22800000D01*
X30537500Y-22000000D02*
X30537500Y-23462500D01*
X40750000Y-26650000D02*
X34662500Y-20562500D01*
X69450001Y-29450001D02*
X73000000Y-25900001D01*
X78850806Y-30850806D02*
X73900001Y-25900001D01*
X34662500Y-20562500D02*
X31975000Y-20562500D01*
X41887500Y-29000000D02*
X41887500Y-34662500D01*
X67100002Y-22699601D02*
X67100002Y-21899501D01*
X42875000Y-28250000D02*
X41975000Y-28250000D01*
X84000000Y-44470000D02*
X87450000Y-41020000D01*
X77800600Y-21000000D02*
X77000500Y-21000000D01*
X84062500Y-50824999D02*
X83612501Y-50375000D01*
X84000000Y-49862501D02*
X84000000Y-45624999D01*
X41887500Y-29162500D02*
X41887500Y-29000000D01*
X32000000Y-32875001D02*
X32000000Y-32462500D01*
X84000000Y-45624999D02*
X84000000Y-44470000D01*
X67250000Y-52625000D02*
X67250000Y-50875000D01*
X68199400Y-21000000D02*
X68999500Y-21000000D01*
X40750000Y-36025000D02*
X42025000Y-34750000D01*
X72199900Y-21000000D02*
X73000000Y-21000000D01*
X83612501Y-50375000D02*
X82937501Y-50375000D01*
X70599700Y-21000000D02*
X71399800Y-21000000D01*
X67100002Y-29900501D02*
X68999500Y-29900501D01*
X71399800Y-21000000D02*
X72199900Y-21000000D01*
X27680000Y-29200000D02*
X28737500Y-29200000D01*
X28687500Y-43062500D02*
X28687500Y-36812500D01*
X76200400Y-21000000D02*
X75400300Y-21000000D01*
X83012501Y-52424999D02*
X84062500Y-51375000D01*
X67250000Y-50875000D02*
X65000000Y-48625000D01*
X51000000Y-35781250D02*
X52000000Y-34781250D01*
X78950788Y-30850806D02*
X78937500Y-30875000D01*
X41975000Y-29250000D02*
X41887500Y-29162500D01*
X85375000Y-54855099D02*
X85375000Y-56187500D01*
X76250000Y-52625000D02*
X76450001Y-52424999D01*
X47355100Y-27917600D02*
X47437500Y-28000000D01*
X68999500Y-21000000D02*
X69799600Y-21000000D01*
X84062500Y-51375000D02*
X84062500Y-50824999D01*
X29737500Y-22800000D02*
X30537500Y-22000000D01*
X74600200Y-27500201D02*
X73000000Y-25900001D01*
X41275000Y-26650000D02*
X42875000Y-28250000D01*
X30537500Y-23462500D02*
X30000000Y-24000000D01*
X69799600Y-30800001D02*
X69799600Y-29799600D01*
X28687500Y-43750000D02*
X28500000Y-43750000D01*
X67100002Y-21899501D02*
X67100002Y-20999990D01*
X41975000Y-34750000D02*
X42875000Y-34750000D01*
X74600200Y-30800001D02*
X74600200Y-27500201D01*
X40750000Y-49350000D02*
X40750000Y-36025000D01*
X68999500Y-29900501D02*
X69450001Y-29450001D01*
X32000000Y-32462500D02*
X30537500Y-31000000D01*
X77000500Y-21000000D02*
X76200400Y-21000000D01*
X31975000Y-20562500D02*
X30537500Y-22000000D01*
X73000000Y-21000000D02*
X73800100Y-21000000D01*
X76450001Y-52424999D02*
X82944900Y-52424999D01*
X69799600Y-21000000D02*
X70599700Y-21000000D01*
X86882499Y-39882500D02*
X87921168Y-39882500D01*
X89000000Y-41470000D02*
X87450000Y-43020000D01*
X87921168Y-39882500D02*
X89000000Y-40961332D01*
X89000000Y-40961332D02*
X89000000Y-41470000D01*
X84950001Y-45624999D02*
X84950001Y-45519999D01*
X84950001Y-45519999D02*
X87450000Y-43020000D01*
X85000000Y-37375001D02*
X85000000Y-38000001D01*
X85000000Y-38000001D02*
X86882499Y-39882500D01*
X47581250Y-32581250D02*
X47000000Y-32000000D01*
X48562500Y-32581250D02*
X47581250Y-32581250D01*
X48562500Y-32981250D02*
X46981250Y-32981250D01*
X46981250Y-32981250D02*
X46000000Y-32000000D01*
X42875000Y-28750000D02*
X43775000Y-28750000D01*
X44000000Y-31000000D02*
X46381250Y-33381250D01*
X46381250Y-33381250D02*
X48562500Y-33381250D01*
X43775000Y-28750000D02*
X44000000Y-28975000D01*
X44000000Y-28975000D02*
X44000000Y-31000000D01*
X42875000Y-34250000D02*
X45315380Y-34250000D01*
X45784130Y-33781250D02*
X48562500Y-33781250D01*
X45315380Y-34250000D02*
X45784130Y-33781250D01*
X48562500Y-34181250D02*
X45756250Y-34181250D01*
X45756250Y-34181250D02*
X43687500Y-36250000D01*
X43687500Y-36250000D02*
X42875000Y-36250000D01*
X43687500Y-36750000D02*
X42875000Y-36750000D01*
X48562500Y-34581250D02*
X45856250Y-34581250D01*
X45856250Y-34581250D02*
X43687500Y-36750000D01*
X43687500Y-37250000D02*
X42875000Y-37250000D01*
X45956250Y-34981250D02*
X43687500Y-37250000D01*
X48562500Y-34981250D02*
X45956250Y-34981250D01*
X46056250Y-35381250D02*
X43687500Y-37750000D01*
X48562500Y-35381250D02*
X46056250Y-35381250D01*
X43687500Y-37750000D02*
X42875000Y-37750000D01*
X45756250Y-36181250D02*
X43687500Y-38250000D01*
X43687500Y-38250000D02*
X42875000Y-38250000D01*
X48562500Y-36181250D02*
X45756250Y-36181250D01*
X48562500Y-36581250D02*
X45856250Y-36581250D01*
X45856250Y-36581250D02*
X43687500Y-38750000D01*
X43687500Y-38750000D02*
X42875000Y-38750000D01*
X43687500Y-39250000D02*
X42875000Y-39250000D01*
X45956250Y-36981250D02*
X43687500Y-39250000D01*
X48562500Y-36981250D02*
X45956250Y-36981250D01*
X46056250Y-37381250D02*
X43687500Y-39750000D01*
X43687500Y-39750000D02*
X42875000Y-39750000D01*
X48562500Y-37381250D02*
X46056250Y-37381250D01*
X49400000Y-38218750D02*
X45718750Y-38218750D01*
X45718750Y-38218750D02*
X43687500Y-40250000D01*
X43687500Y-40250000D02*
X42875000Y-40250000D01*
X49800000Y-38218750D02*
X49800000Y-38593512D01*
X49549762Y-38843750D02*
X45593750Y-38843750D01*
X45593750Y-38843750D02*
X43687500Y-40750000D01*
X43687500Y-40750000D02*
X42875000Y-40750000D01*
X49800000Y-38593512D02*
X49549762Y-38843750D01*
X50200000Y-38218750D02*
X50200000Y-38593512D01*
X45843750Y-39093750D02*
X43687500Y-41250000D01*
X49699762Y-39093750D02*
X45843750Y-39093750D01*
X50200000Y-38593512D02*
X49699762Y-39093750D01*
X43687500Y-41250000D02*
X42875000Y-41250000D01*
X46093750Y-39343750D02*
X43687500Y-41750000D01*
X49849762Y-39343750D02*
X46093750Y-39343750D01*
X50600000Y-38218750D02*
X50600000Y-38593512D01*
X43687500Y-41750000D02*
X42875000Y-41750000D01*
X50600000Y-38593512D02*
X49849762Y-39343750D01*
X51400000Y-38656250D02*
X48306250Y-41750000D01*
X51400000Y-38218750D02*
X51400000Y-38656250D01*
X48306250Y-41750000D02*
X47550000Y-41750000D01*
X51800000Y-38218750D02*
X51800000Y-41120000D01*
X51800000Y-41120000D02*
X52430000Y-41750000D01*
X52600000Y-37843988D02*
X52600000Y-38218750D01*
X53875000Y-30375000D02*
X53875000Y-29575324D01*
X53875000Y-29575324D02*
X53618719Y-29319043D01*
X53875000Y-31268750D02*
X53800000Y-31343750D01*
X53618719Y-29319043D02*
X52744040Y-29319043D01*
X51800000Y-30263083D02*
X51800000Y-31343750D01*
X53068988Y-37375000D02*
X52600000Y-37843988D01*
X52744040Y-29319043D02*
X51800000Y-30263083D01*
X53875000Y-30375000D02*
X53875000Y-31268750D01*
X53250000Y-37375000D02*
X53068988Y-37375000D01*
X52875000Y-39375000D02*
X53000000Y-39250000D01*
X53000000Y-39250000D02*
X53000000Y-38218750D01*
X53400000Y-39278141D02*
X53400000Y-38218750D01*
X53500000Y-39378141D02*
X53400000Y-39278141D01*
X54200000Y-40200000D02*
X54937500Y-40937500D01*
X54937500Y-42087622D02*
X53025122Y-44000000D01*
X53025122Y-44000000D02*
X45437500Y-44000000D01*
X54200000Y-38218750D02*
X54200000Y-40200000D01*
X45437500Y-44000000D02*
X43687500Y-42250000D01*
X43687500Y-42250000D02*
X42875000Y-42250000D01*
X54937500Y-40937500D02*
X54937500Y-42087622D01*
X45187500Y-44250000D02*
X53128676Y-44250000D01*
X53128676Y-44250000D02*
X55187500Y-42191176D01*
X43687500Y-42750000D02*
X45187500Y-44250000D01*
X55187500Y-38806250D02*
X54600000Y-38218750D01*
X42875000Y-42750000D02*
X43687500Y-42750000D01*
X55187500Y-42191176D02*
X55187500Y-38806250D01*
X55437500Y-42294730D02*
X53232230Y-44500000D01*
X53232230Y-44500000D02*
X44875000Y-44500000D01*
X43625000Y-43250000D02*
X42875000Y-43250000D01*
X44875000Y-44500000D02*
X43625000Y-43250000D01*
X55437500Y-37381250D02*
X55437500Y-42294730D01*
X56062500Y-42023284D02*
X53335784Y-44750000D01*
X53335784Y-44750000D02*
X44625000Y-44750000D01*
X55812262Y-36981250D02*
X56062500Y-37231488D01*
X55437500Y-36981250D02*
X55812262Y-36981250D01*
X56062500Y-37231488D02*
X56062500Y-42023284D01*
X44625000Y-44750000D02*
X43625000Y-43750000D01*
X43625000Y-43750000D02*
X42875000Y-43750000D01*
X56312500Y-42126838D02*
X53439338Y-45000000D01*
X43625000Y-44250000D02*
X42875000Y-44250000D01*
X56312500Y-37081488D02*
X56312500Y-42126838D01*
X55437500Y-36581250D02*
X55812262Y-36581250D01*
X55812262Y-36581250D02*
X56312500Y-37081488D01*
X44375000Y-45000000D02*
X43625000Y-44250000D01*
X53439338Y-45000000D02*
X44375000Y-45000000D01*
X53542892Y-45250000D02*
X44125000Y-45250000D01*
X55812262Y-36181250D02*
X56562500Y-36931488D01*
X56562500Y-36931488D02*
X56562500Y-42230392D01*
X44125000Y-45250000D02*
X43625000Y-44750000D01*
X43625000Y-44750000D02*
X42875000Y-44750000D01*
X56562500Y-42230392D02*
X53542892Y-45250000D01*
X55437500Y-36181250D02*
X55812262Y-36181250D01*
X53646446Y-45500000D02*
X43787500Y-45500000D01*
X43537500Y-45250000D02*
X42875000Y-45250000D01*
X56812500Y-36318750D02*
X56812500Y-42333946D01*
X55437500Y-35381250D02*
X55875000Y-35381250D01*
X56812500Y-42333946D02*
X53646446Y-45500000D01*
X55875000Y-35381250D02*
X56812500Y-36318750D01*
X43787500Y-45500000D02*
X43537500Y-45250000D01*
X57062500Y-36215196D02*
X55828554Y-34981250D01*
X57062500Y-42437500D02*
X57062500Y-36215196D01*
X53750000Y-45750000D02*
X57062500Y-42437500D01*
X55828554Y-34981250D02*
X55437500Y-34981250D01*
X42875000Y-45750000D02*
X53750000Y-45750000D01*
X55893750Y-32981250D02*
X55437500Y-32981250D01*
X56937500Y-31937500D02*
X55893750Y-32981250D01*
X53437500Y-31306250D02*
X53400000Y-31343750D01*
X53437500Y-29756543D02*
X53437500Y-31306250D01*
X53000000Y-31343750D02*
X53000000Y-30518329D01*
X53000000Y-30518329D02*
X52975562Y-30493891D01*
X51400000Y-29600000D02*
X52445190Y-28554810D01*
X55365000Y-24365000D02*
X54644900Y-24365000D01*
X51400000Y-31343750D02*
X51400000Y-29600000D01*
X56325000Y-25325000D02*
X55365000Y-24365000D01*
X55008410Y-28554810D02*
X56325000Y-27238219D01*
X56325000Y-27238219D02*
X56325000Y-25325000D01*
X52445190Y-28554810D02*
X55008410Y-28554810D01*
X56000000Y-26000000D02*
X55635000Y-25635000D01*
X51000000Y-31343750D02*
X51000000Y-29459620D01*
X51000000Y-29459620D02*
X52229810Y-28229810D01*
X55635000Y-25635000D02*
X54644900Y-25635000D01*
X54873790Y-28229810D02*
X56000000Y-27103600D01*
X52229810Y-28229810D02*
X54873790Y-28229810D01*
X56000000Y-27103600D02*
X56000000Y-26000000D01*
X50600000Y-29400000D02*
X53095000Y-26905000D01*
X50600000Y-31343750D02*
X50600000Y-29400000D01*
X53095000Y-26905000D02*
X54644900Y-26905000D01*
X45187500Y-27268260D02*
X45187500Y-25963325D01*
X50200000Y-30803303D02*
X49071697Y-29675000D01*
X50200000Y-31343750D02*
X50200000Y-30803303D01*
X49071697Y-29675000D02*
X47594240Y-29675000D01*
X45187500Y-25963325D02*
X45515825Y-25635000D01*
X45515825Y-25635000D02*
X47355100Y-25635000D01*
X47594240Y-29675000D02*
X45187500Y-27268260D01*
X45460825Y-24365000D02*
X47355100Y-24365000D01*
X49800000Y-30756857D02*
X48968143Y-29925000D01*
X44937500Y-27371813D02*
X44937500Y-24888325D01*
X49800000Y-31343750D02*
X49800000Y-30756857D01*
X44937500Y-24888325D02*
X45460825Y-24365000D01*
X47490686Y-29925000D02*
X44937500Y-27371813D01*
X48968143Y-29925000D02*
X47490686Y-29925000D01*
X47355100Y-23095000D02*
X45180000Y-23095000D01*
X45875000Y-28937500D02*
X47112500Y-30175000D01*
X45462500Y-22812500D02*
X45180000Y-23095000D01*
X49400000Y-30710411D02*
X49400000Y-31343750D01*
X47112500Y-30175000D02*
X48864589Y-30175000D01*
X48864589Y-30175000D02*
X49400000Y-30710411D01*
X44687500Y-23587500D02*
X44687500Y-27750000D01*
X45180000Y-23095000D02*
X44687500Y-23587500D01*
X44687500Y-27750000D02*
X45875000Y-28937500D01*
X27275624Y-28400000D02*
X26517500Y-27641876D01*
X27680000Y-28400000D02*
X28500000Y-28437500D01*
X27680000Y-28400000D02*
X27275624Y-28400000D01*
X27275624Y-23600000D02*
X27680000Y-23600000D01*
X26517500Y-27641876D02*
X26517500Y-24358124D01*
X28500000Y-28437500D02*
X28525000Y-28400000D01*
X26517500Y-24358124D02*
X27275624Y-23600000D01*
X31937500Y-46187500D02*
X31875000Y-46250000D01*
X77000500Y-31000500D02*
X77000500Y-31003201D01*
X77000500Y-30999500D02*
X77000000Y-31000000D01*
X77000500Y-30800001D02*
X77000500Y-30999500D01*
X31937500Y-43812500D02*
X31937500Y-46187500D01*
X77000000Y-31000000D02*
X77000500Y-31000500D01*
X33312500Y-51812500D02*
X60500000Y-51812500D01*
X81682399Y-53062500D02*
X82944900Y-54325001D01*
X61750000Y-53062500D02*
X81682399Y-53062500D01*
X60500000Y-51812500D02*
X61750000Y-53062500D01*
X86133802Y-49996299D02*
X86558801Y-49996299D01*
X65037799Y-23499701D02*
X64000000Y-24537500D01*
X31937500Y-31500000D02*
X32125000Y-31500000D01*
X85937502Y-52617598D02*
X85937502Y-49799999D01*
X66750000Y-47312500D02*
X67750000Y-47312500D01*
X65500299Y-23499701D02*
X65500000Y-23500000D01*
X32125000Y-31500000D02*
X32650001Y-32025001D01*
X62000000Y-24537500D02*
X61000000Y-25537500D01*
X85180100Y-53375000D02*
X85937502Y-52617598D01*
X75750000Y-47375000D02*
X76687500Y-47375000D01*
X67100002Y-23499701D02*
X65500299Y-23499701D01*
X74000000Y-48625000D02*
X74000000Y-47375000D01*
X73787500Y-37937500D02*
X72150000Y-37937500D01*
X59187500Y-27350000D02*
X61000000Y-25537500D01*
X72150000Y-37937500D02*
X72150000Y-36800000D01*
X72150000Y-36800000D02*
X71187500Y-35837500D01*
X70000000Y-47375000D02*
X74000000Y-47375000D01*
X59187500Y-29562500D02*
X59187500Y-27350000D01*
X76687500Y-47375000D02*
X76750000Y-47437500D01*
X85862502Y-49724999D02*
X85187502Y-49724999D01*
X29174998Y-37925002D02*
X30412500Y-36687500D01*
X65499701Y-23499701D02*
X65037799Y-23499701D01*
X85937502Y-49799999D02*
X85862502Y-49724999D01*
X24750000Y-38500000D02*
X24750000Y-36625000D01*
X64000000Y-24537500D02*
X62000000Y-24537500D01*
X29174998Y-43100001D02*
X29174998Y-37925002D01*
X65125000Y-35500000D02*
X59187500Y-29562500D01*
X67687500Y-35500000D02*
X65125000Y-35500000D01*
X74000000Y-47375000D02*
X75750000Y-47375000D01*
X32650001Y-32025001D02*
X32650001Y-32875001D01*
X85937502Y-49799999D02*
X86133802Y-49996299D01*
X24750000Y-36625000D02*
X26187500Y-35187500D01*
X65500000Y-23500000D02*
X65499701Y-23499701D01*
X31318780Y-42750000D02*
X29659390Y-44409390D01*
X66500201Y-27500201D02*
X66000000Y-27000000D01*
X67100002Y-27500201D02*
X66500201Y-27500201D01*
X39542654Y-43814912D02*
X38477742Y-42750000D01*
X38477742Y-42750000D02*
X31318780Y-42750000D01*
X32396446Y-51062500D02*
X29062500Y-54396446D01*
X74437500Y-45625000D02*
X69437500Y-45625000D01*
X29375000Y-91797500D02*
X29375000Y-77312500D01*
X69437500Y-45625000D02*
X66250000Y-45625000D01*
X68999500Y-31499500D02*
X68999500Y-30800001D01*
X69187500Y-31687500D02*
X68999500Y-31499500D01*
X66250000Y-45625000D02*
X54228554Y-45625000D01*
X29515000Y-91937500D02*
X29375000Y-91797500D01*
X75250000Y-46437500D02*
X74437500Y-45625000D01*
X69187500Y-45375000D02*
X69437500Y-45625000D01*
X29375000Y-77312500D02*
X29062500Y-77000000D01*
X29062500Y-54396446D02*
X29062500Y-64062500D01*
X48791054Y-51062500D02*
X32396446Y-51062500D01*
X54228554Y-45625000D02*
X48791054Y-51062500D01*
X69187500Y-31687500D02*
X69187500Y-45375000D01*
X60500000Y-51312500D02*
X32500000Y-51312500D01*
X67437500Y-32725000D02*
X68199400Y-31963100D01*
X29687500Y-54125000D02*
X29687500Y-64062500D01*
X30000000Y-87187500D02*
X30000000Y-77312500D01*
X65687500Y-46125000D02*
X60500000Y-51312500D01*
X74187500Y-46125000D02*
X74562500Y-46500000D01*
X65687500Y-46125000D02*
X74187500Y-46125000D01*
X30000000Y-77312500D02*
X29687500Y-77000000D01*
X32500000Y-51312500D02*
X29687500Y-54125000D01*
X68199400Y-31963100D02*
X68199400Y-30800001D01*
X71000000Y-31812500D02*
X70599700Y-31412200D01*
X71000000Y-32812500D02*
X71000000Y-31812500D01*
X70599700Y-31412200D02*
X70599700Y-30800001D01*
X77000000Y-46937500D02*
X77312500Y-47250000D01*
X72812500Y-32812500D02*
X71399800Y-31399800D01*
X77312500Y-47250000D02*
X77312500Y-48000000D01*
X69375000Y-46937500D02*
X76562500Y-46937500D01*
X68312500Y-48000000D02*
X69375000Y-46937500D01*
X76562500Y-36562500D02*
X72812500Y-32812500D01*
X71399800Y-31399800D02*
X71399800Y-30800001D01*
X76562500Y-46937500D02*
X76562500Y-36562500D01*
X76562500Y-46937500D02*
X77000000Y-46937500D01*
X72199900Y-29987600D02*
X72199900Y-30800001D01*
X73000000Y-29187500D02*
X72199900Y-29987600D01*
X73000000Y-29812500D02*
X73000000Y-30800001D01*
X31028110Y-53403110D02*
X30312500Y-54118720D01*
X30625000Y-77312500D02*
X30312500Y-77000000D01*
X32055000Y-90617500D02*
X30625000Y-89187500D01*
X32055000Y-91937500D02*
X32055000Y-90617500D01*
X30625000Y-89187500D02*
X30625000Y-77312500D01*
X30312500Y-54118720D02*
X30312500Y-64062500D01*
X23000000Y-65875000D02*
X22125000Y-65875000D01*
X71025190Y-54337690D02*
X71712690Y-54337690D01*
X79000000Y-65875000D02*
X70000000Y-65875000D01*
X71712690Y-54337690D02*
X79000000Y-61625000D01*
X80315000Y-80338812D02*
X82528812Y-78125000D01*
X80315000Y-91937500D02*
X80315000Y-80338812D01*
X21000000Y-67000000D02*
X21000000Y-75000000D01*
X70000000Y-78125000D02*
X70000000Y-75875000D01*
X21000000Y-75000000D02*
X21875000Y-75875000D01*
X40000000Y-65875000D02*
X55000000Y-65875000D01*
X55000000Y-65875000D02*
X70000000Y-65875000D01*
X70000000Y-75875000D02*
X75000000Y-75875000D01*
X79000000Y-61625000D02*
X79000000Y-65875000D01*
X40000000Y-65875000D02*
X23000000Y-65875000D01*
X23000000Y-78125000D02*
X23000000Y-75875000D01*
X23000000Y-75875000D02*
X35000000Y-75875000D01*
X21875000Y-75875000D02*
X23000000Y-75875000D01*
X22125000Y-65875000D02*
X21000000Y-67000000D01*
X65000000Y-75875000D02*
X55000000Y-75875000D01*
X45000000Y-75875000D02*
X55000000Y-75875000D01*
X65000000Y-75875000D02*
X70000000Y-75875000D01*
X87000000Y-75875000D02*
X75000000Y-75875000D01*
X87000000Y-78125000D02*
X87000000Y-75875000D01*
X40000000Y-75875000D02*
X35000000Y-75875000D01*
X45000000Y-75875000D02*
X40000000Y-75875000D01*
X55000000Y-78125000D02*
X55000000Y-75875000D01*
X82528812Y-78125000D02*
X87000000Y-78125000D01*
X40000000Y-78125000D02*
X40000000Y-75875000D01*
X79875000Y-60687500D02*
X79875000Y-64875000D01*
X79875000Y-64875000D02*
X80875000Y-65875000D01*
X80875000Y-65875000D02*
X87000000Y-65875000D01*
X72687500Y-53500000D02*
X79875000Y-60687500D01*
X70562500Y-53500000D02*
X72687500Y-53500000D01*
X46125000Y-85062500D02*
X47750000Y-86687500D01*
X74150000Y-86687500D02*
X77775000Y-90312500D01*
X77775000Y-90312500D02*
X77775000Y-91937500D01*
X47750000Y-86687500D02*
X74150000Y-86687500D01*
X71860000Y-86937500D02*
X75235000Y-90312500D01*
X46125000Y-85687500D02*
X47375000Y-86937500D01*
X75235000Y-90312500D02*
X75235000Y-91937500D01*
X47375000Y-86937500D02*
X71860000Y-86937500D01*
X69570000Y-87187500D02*
X72695000Y-90312500D01*
X45500000Y-85687500D02*
X47000000Y-87187500D01*
X72695000Y-90312500D02*
X72695000Y-91937500D01*
X47000000Y-87187500D02*
X69570000Y-87187500D01*
X67280000Y-87437500D02*
X70155000Y-90312500D01*
X44875000Y-85687500D02*
X46625000Y-87437500D01*
X70155000Y-90312500D02*
X70155000Y-91937500D01*
X46625000Y-87437500D02*
X67280000Y-87437500D01*
X46250000Y-87687500D02*
X64990000Y-87687500D01*
X64990000Y-87687500D02*
X67615000Y-90312500D01*
X44250000Y-85687500D02*
X46250000Y-87687500D01*
X67615000Y-90312500D02*
X67615000Y-91937500D01*
X62700000Y-87937500D02*
X65075000Y-90312500D01*
X45875000Y-87937500D02*
X62700000Y-87937500D01*
X43625000Y-85687500D02*
X45875000Y-87937500D01*
X65075000Y-90312500D02*
X65075000Y-91937500D01*
X45500000Y-88187500D02*
X60410000Y-88187500D01*
X60410000Y-88187500D02*
X62535000Y-90312500D01*
X62535000Y-90312500D02*
X62535000Y-91937500D01*
X43000000Y-85687500D02*
X45500000Y-88187500D01*
X58120000Y-88437500D02*
X59995000Y-90312500D01*
X59995000Y-90312500D02*
X59995000Y-91937500D01*
X45125000Y-88437500D02*
X58120000Y-88437500D01*
X42375000Y-85687500D02*
X45125000Y-88437500D01*
X44750000Y-88687500D02*
X55830000Y-88687500D01*
X57455000Y-90312500D02*
X57455000Y-91937500D01*
X55830000Y-88687500D02*
X57455000Y-90312500D01*
X41750000Y-85687500D02*
X44750000Y-88687500D01*
X44375000Y-88937500D02*
X53540000Y-88937500D01*
X41125000Y-85687500D02*
X44375000Y-88937500D01*
X54915000Y-90312500D02*
X54915000Y-91937500D01*
X53540000Y-88937500D02*
X54915000Y-90312500D01*
X51250000Y-89187500D02*
X52375000Y-90312500D01*
X44000000Y-89187500D02*
X51250000Y-89187500D01*
X52375000Y-90312500D02*
X52375000Y-91937500D01*
X41125000Y-86312500D02*
X44000000Y-89187500D01*
X43625000Y-89437500D02*
X48960000Y-89437500D01*
X49835000Y-90312500D02*
X49835000Y-91937500D01*
X41125000Y-86937500D02*
X43625000Y-89437500D01*
X48960000Y-89437500D02*
X49835000Y-90312500D01*
X47295000Y-90312500D02*
X47295000Y-91937500D01*
X43250000Y-89687500D02*
X46670000Y-89687500D01*
X46670000Y-89687500D02*
X47295000Y-90312500D01*
X41125000Y-87562500D02*
X43250000Y-89687500D01*
X44380000Y-89937500D02*
X44755000Y-90312500D01*
X40500000Y-87562500D02*
X42875000Y-89937500D01*
X42875000Y-89937500D02*
X44380000Y-89937500D01*
X44755000Y-90312500D02*
X44755000Y-91937500D01*
X42215000Y-89902500D02*
X42215000Y-91937500D01*
X39875000Y-87562500D02*
X42215000Y-89902500D01*
X28517500Y-26012501D02*
X28517500Y-26487499D01*
X28517500Y-26487499D02*
X28254999Y-26750000D01*
X28517500Y-26487499D02*
X29487499Y-26487499D01*
X29487499Y-26487499D02*
X30000000Y-27000000D01*
X28254999Y-25750000D02*
X28517500Y-26012501D01*
X27680000Y-25750000D02*
X28254999Y-25750000D01*
X28254999Y-26750000D02*
X27680000Y-26750000D01*
X26842500Y-25512501D02*
X26842500Y-25966876D01*
X27125624Y-26250000D02*
X27680000Y-26250000D01*
X27680000Y-25250000D02*
X29250000Y-25250000D01*
X27680000Y-25250000D02*
X27105001Y-25250000D01*
X27105001Y-25250000D02*
X26842500Y-25512501D01*
X29250000Y-25250000D02*
X30000000Y-26000000D01*
X26842500Y-25966876D02*
X27125624Y-26250000D01*
X77250000Y-63500000D02*
X75580401Y-65169599D01*
X67375000Y-65250000D02*
X58042001Y-65250000D01*
X67562500Y-65062500D02*
X67375000Y-65250000D01*
X42497612Y-64843800D02*
X27843800Y-64843800D01*
X81517705Y-65107099D02*
X81892901Y-65107099D01*
X81892901Y-65107099D02*
X83000000Y-64000000D01*
X42928311Y-65274499D02*
X42497612Y-64843800D01*
X57635801Y-64843800D02*
X54406200Y-64843800D01*
X80937500Y-63500000D02*
X80937500Y-64526894D01*
X27843800Y-64843800D02*
X27000000Y-64000000D01*
X80937500Y-64526894D02*
X81517705Y-65107099D01*
X58042001Y-65250000D02*
X57635801Y-64843800D01*
X75580401Y-65169599D02*
X70794599Y-65169599D01*
X70687500Y-65062500D02*
X67562500Y-65062500D01*
X53975501Y-65274499D02*
X42928311Y-65274499D01*
X70794599Y-65169599D02*
X70687500Y-65062500D01*
X78437500Y-63500000D02*
X77250000Y-63500000D01*
X54406200Y-64843800D02*
X53975501Y-65274499D01*
X83000000Y-73895100D02*
X83000000Y-74000000D01*
X79000000Y-73895100D02*
X79000000Y-74000000D01*
X35028110Y-77340610D02*
X34687500Y-77000000D01*
X35028110Y-87159390D02*
X35028110Y-77340610D01*
X33750000Y-77312500D02*
X33437500Y-77000000D01*
X33750000Y-87187500D02*
X33750000Y-77312500D01*
X31250000Y-77312500D02*
X30937500Y-77000000D01*
X31250000Y-87187500D02*
X31250000Y-77312500D01*
X30712500Y-24750000D02*
X33462500Y-22000000D01*
X27680000Y-24750000D02*
X30712500Y-24750000D01*
X33462500Y-31000000D02*
X30212500Y-27750000D01*
X30212500Y-27750000D02*
X27680000Y-27750000D01*
X51843328Y-32181250D02*
X48562500Y-32181250D01*
X52956672Y-32181250D02*
X54000000Y-32181250D01*
X53337500Y-36643750D02*
X53800000Y-36643750D01*
X44437500Y-22250000D02*
X44437500Y-28312500D01*
X54644900Y-23095000D02*
X53112400Y-21562500D01*
X54000000Y-32181250D02*
X55437500Y-32181250D01*
X49262500Y-35562078D02*
X49043328Y-35781250D01*
X54956672Y-32181250D02*
X55437500Y-32181250D01*
X49043328Y-35781250D02*
X48562500Y-35781250D01*
X52600000Y-31824578D02*
X52956672Y-32181250D01*
X33749998Y-35125002D02*
X32650001Y-35125002D01*
X44065640Y-31684360D02*
X44065640Y-33309360D01*
X42537500Y-26412500D02*
X42537500Y-22812500D01*
X44065640Y-33309360D02*
X43625000Y-33750000D01*
X54200000Y-31981250D02*
X54000000Y-32181250D01*
X54200000Y-31343750D02*
X54200000Y-31981250D01*
X55437500Y-35781250D02*
X54956672Y-35781250D01*
X53800000Y-36643750D02*
X54662500Y-35781250D01*
X52200000Y-31343750D02*
X52200000Y-31824578D01*
X53800000Y-38218750D02*
X53800000Y-36643750D01*
X54662500Y-35781250D02*
X55437500Y-35781250D01*
X54200000Y-31343750D02*
X54600000Y-31343750D01*
X53112400Y-21562500D02*
X45125000Y-21562500D01*
X43625000Y-33750000D02*
X42875000Y-33750000D01*
X54737500Y-32400422D02*
X54956672Y-32181250D01*
X54956672Y-35781250D02*
X54737500Y-35562078D01*
X46500000Y-30375000D02*
X42537500Y-26412500D01*
X46500000Y-30375000D02*
X48306250Y-32181250D01*
X45125000Y-21562500D02*
X44437500Y-22250000D01*
X48306250Y-32181250D02*
X48562500Y-32181250D01*
X52600000Y-31343750D02*
X52600000Y-31824578D01*
X49262500Y-32400422D02*
X49262500Y-35562078D01*
X48562500Y-32181250D02*
X49043328Y-32181250D01*
X54737500Y-35562078D02*
X54737500Y-32400422D01*
X52200000Y-31824578D02*
X51843328Y-32181250D01*
X52200000Y-37781250D02*
X53337500Y-36643750D01*
X35687500Y-33187500D02*
X33749998Y-35125002D01*
X49043328Y-32181250D02*
X49262500Y-32400422D01*
X52200000Y-31343750D02*
X52600000Y-31343750D01*
X52200000Y-38218750D02*
X52200000Y-37781250D01*
X34595000Y-91937500D02*
X34595000Y-90470000D01*
X31875000Y-87750000D02*
X31875000Y-77312500D01*
X27625000Y-52375000D02*
X27625000Y-45431219D01*
X34595000Y-90470000D02*
X31875000Y-87750000D01*
X31875000Y-77312500D02*
X31562500Y-77000000D01*
X30937500Y-42118719D02*
X30937500Y-41062500D01*
X27625000Y-45431219D02*
X30937500Y-42118719D01*
X40062500Y-39750000D02*
X37000000Y-36687500D01*
X37000000Y-36687500D02*
X33937500Y-36687500D01*
X40062500Y-47000000D02*
X40062500Y-39750000D01*
X40125000Y-47062500D02*
X40062500Y-47000000D01*
X37135000Y-91937500D02*
X37135000Y-91572500D01*
X33125000Y-77312500D02*
X32812500Y-77000000D01*
X33125000Y-87562500D02*
X33125000Y-77312500D01*
X37135000Y-91572500D02*
X33125000Y-87562500D01*
X34375000Y-77312500D02*
X34062500Y-77000000D01*
X38000000Y-89625000D02*
X36250000Y-89625000D01*
X39675000Y-91937500D02*
X39675000Y-91300000D01*
X34375000Y-87750000D02*
X34375000Y-87187500D01*
X36250000Y-89625000D02*
X34375000Y-87750000D01*
X39675000Y-91300000D02*
X38000000Y-89625000D01*
X34375000Y-87187500D02*
X34375000Y-77312500D01*
X32500000Y-77312500D02*
X32187500Y-77000000D01*
X64312500Y-48187500D02*
X67500000Y-48187500D01*
X67500000Y-48187500D02*
X70275000Y-50962500D01*
X82937501Y-51024999D02*
X81124999Y-51024999D01*
X70275000Y-50962500D02*
X81062500Y-50962500D01*
X81124999Y-51024999D02*
X81062500Y-50962500D01*
X32500000Y-87187500D02*
X32500000Y-77312500D01*
X62062500Y-50437500D02*
X64312500Y-48187500D01*
X82937501Y-49724999D02*
X82937501Y-48487500D01*
X83050002Y-48374999D02*
X81399999Y-48374999D01*
X81399999Y-48374999D02*
X81062500Y-48037500D01*
X82937501Y-48487500D02*
X83050002Y-48374999D01*
X24750000Y-41000000D02*
X27662500Y-41000000D01*
X27000000Y-59868801D02*
X27000000Y-60104900D01*
X25256199Y-58125000D02*
X27000000Y-59868801D01*
X23000000Y-58125000D02*
X25256199Y-58125000D01*
X44000000Y-59973701D02*
X44000000Y-60209800D01*
X42151299Y-58125000D02*
X44000000Y-59973701D01*
X40000000Y-58125000D02*
X42151299Y-58125000D01*
X55000000Y-58125000D02*
X57256199Y-58125000D01*
X59000000Y-59868801D02*
X59000000Y-60104900D01*
X57256199Y-58125000D02*
X59000000Y-59868801D01*
X70000000Y-58125000D02*
X72256199Y-58125000D01*
X72256199Y-58125000D02*
X74000000Y-59868801D01*
X74000000Y-59868801D02*
X74000000Y-60104900D01*
X87000000Y-58125000D02*
X84743801Y-58125000D01*
X84743801Y-58125000D02*
X83000000Y-59868801D01*
X83000000Y-59868801D02*
X83000000Y-60104900D01*
X27000000Y-69868801D02*
X27000000Y-70104900D01*
X23000000Y-68125000D02*
X25256199Y-68125000D01*
X25256199Y-68125000D02*
X27000000Y-69868801D01*
X35000000Y-68125000D02*
X37256199Y-68125000D01*
X39000000Y-69868801D02*
X39000000Y-70104900D01*
X37256199Y-68125000D02*
X39000000Y-69868801D01*
X47256199Y-68125000D02*
X49000000Y-69868801D01*
X49000000Y-69868801D02*
X49000000Y-70104900D01*
X45000000Y-68125000D02*
X47256199Y-68125000D01*
X59000000Y-69868801D02*
X59000000Y-70104900D01*
X55000000Y-68125000D02*
X57256199Y-68125000D01*
X57256199Y-68125000D02*
X59000000Y-69868801D01*
X69000000Y-69868801D02*
X69000000Y-70104900D01*
X65000000Y-68125000D02*
X67256199Y-68125000D01*
X67256199Y-68125000D02*
X69000000Y-69868801D01*
X79000000Y-69868801D02*
X79000000Y-70104900D01*
X77256199Y-68125000D02*
X79000000Y-69868801D01*
X75000000Y-68125000D02*
X77256199Y-68125000D01*
X87000000Y-68125000D02*
X84743801Y-68125000D01*
X84743801Y-68125000D02*
X83000000Y-69868801D01*
X83000000Y-69868801D02*
X83000000Y-70104900D01*
X25256199Y-85875000D02*
X27000000Y-84131199D01*
X23000000Y-85875000D02*
X25256199Y-85875000D01*
X27000000Y-84131199D02*
X27000000Y-83895100D01*
X43256199Y-84875000D02*
X44000000Y-84131199D01*
X41000000Y-84875000D02*
X43256199Y-84875000D01*
X44000000Y-84131199D02*
X44000000Y-83895100D01*
X40000000Y-85875000D02*
X41000000Y-84875000D01*
X59000000Y-84131199D02*
X59000000Y-83895100D01*
X57256199Y-85875000D02*
X59000000Y-84131199D01*
X55000000Y-85875000D02*
X57256199Y-85875000D01*
X72256199Y-85875000D02*
X74000000Y-84131199D01*
X74000000Y-84131199D02*
X74000000Y-83895100D01*
X70000000Y-85875000D02*
X72256199Y-85875000D01*
X84848701Y-85875000D02*
X83000000Y-84026299D01*
X83000000Y-84026299D02*
X83000000Y-83790200D01*
X87000000Y-85875000D02*
X84848701Y-85875000D01*
X64000000Y-28000000D02*
X64537500Y-28000000D01*
X64000000Y-27462500D02*
X64000000Y-27462500D01*
X64537500Y-28000000D02*
X64837801Y-28300301D01*
X64837801Y-28300301D02*
X67100002Y-28300301D01*
X64000000Y-28000000D02*
X64000000Y-27462500D01*
X63312500Y-29100401D02*
X67100002Y-29100401D01*
X58215286Y-34181250D02*
X55437500Y-34181250D01*
X58229518Y-34167018D02*
X58215286Y-34181250D01*
X61637901Y-29100401D02*
X61000000Y-28462500D01*
X63312500Y-29100401D02*
X61637901Y-29100401D01*
X66896802Y-25099901D02*
X67100002Y-25099901D01*
X62559815Y-25575001D02*
X66421702Y-25575001D01*
X66421702Y-25575001D02*
X66896802Y-25099901D01*
X57218750Y-33781250D02*
X58000000Y-33000000D01*
X55437500Y-33781250D02*
X57218750Y-33781250D01*
X62475000Y-25490186D02*
X62559815Y-25575001D01*
X62350000Y-26000000D02*
X67000003Y-26000000D01*
X62225000Y-26125000D02*
X62350000Y-26000000D01*
X67000003Y-26000000D02*
X67100002Y-25900001D01*
X56618750Y-33381250D02*
X58000000Y-32000000D01*
X55437500Y-33381250D02*
X56618750Y-33381250D01*
M02*
